<svg xmlns="http://www.w3.org/2000/svg" width="43.657" height="40.747" viewBox="0 0 43.657 40.747">
  <g id="lan" transform="translate(0 -16)">
    <path id="Path_8386" data-name="Path 8386" d="M245.618,291.963l-1.256.734A5.049,5.049,0,0,1,240,300.289v1.455a6.5,6.5,0,0,0,5.618-9.781Z" transform="translate(-218.171 -250.863)" fill="#fff"/>
    <path id="Path_8387" data-name="Path 8387" d="M244.1,257.953A6.517,6.517,0,0,0,240,256.5v1.455a4.99,4.99,0,0,1,3.179,1.127Z" transform="translate(-218.171 -218.626)" fill="#fff"/>
    <path id="Path_8388" data-name="Path 8388" d="M145.459,224a9.459,9.459,0,1,0,9.459,9.459A9.459,9.459,0,0,0,145.459,224Zm0,17.463a8,8,0,1,1,8-8A8,8,0,0,1,145.459,241.463Z" transform="translate(-123.63 -189.082)" fill="#fff"/>
    <path id="Path_8389" data-name="Path 8389" d="M48,40h1.455v1.455H48Z" transform="translate(-43.634 -21.817)" fill="#fff"/>
    <path id="Path_8390" data-name="Path 8390" d="M42.93,21.821H42.2V16.728A.728.728,0,0,0,41.474,16H35.653a.728.728,0,0,0-.728.728v5.093H34.2a.728.728,0,0,0-.728.728v7.276a.723.723,0,0,0,.077.325h0l2.834,5.668V48.743a3.642,3.642,0,0,1-3.638,3.638H31.251a12.37,12.37,0,1,0-18.845,0H10.914a3.642,3.642,0,0,1-3.638-3.638V35.818L10.11,30.15h0a.723.723,0,0,0,.077-.325V22.549a.728.728,0,0,0-.728-.728H8.731V16.728A.728.728,0,0,0,8,16H2.183a.728.728,0,0,0-.728.728v5.093H.728A.728.728,0,0,0,0,22.549v7.276a.724.724,0,0,0,.077.325h0L2.91,35.818V48.743a8.013,8.013,0,0,0,8,8H32.743a8.013,8.013,0,0,0,8-8V35.818L43.58,30.15h0a.723.723,0,0,0,.077-.325V22.549A.728.728,0,0,0,42.93,21.821Zm-6.549-4.366h4.366v4.366H39.292V20.366H37.836v1.455H36.381Zm2.91,5.821v1.455H37.836V23.276ZM2.91,17.455H7.276v4.366H5.821V20.366H4.366v1.455H2.91Zm2.91,5.821v1.455H4.366V23.276Zm-4.366,0H2.91v1.637a1.275,1.275,0,0,0,1.273,1.273H6a1.275,1.275,0,0,0,1.273-1.273V23.276H8.731V29.1H1.455Zm1.177,8.731L1.9,30.552H8.282l-.728,1.455Zm.728,1.455H6.827L6.1,34.918H4.088Zm7.554,21.829a6.556,6.556,0,0,1-6.549-6.549V36.373H5.821v12.37a5.1,5.1,0,0,0,5.093,5.093h2.953a12.418,12.418,0,0,0,2.145,1.455Zm0-10.914A10.914,10.914,0,1,1,21.829,55.292,10.914,10.914,0,0,1,10.914,44.377Zm28.377,4.366a6.556,6.556,0,0,1-6.549,6.549h-5.1a12.418,12.418,0,0,0,2.145-1.455h2.953a5.1,5.1,0,0,0,5.093-5.093V36.373h1.455Zm.278-13.825H37.558l-.728-1.455H40.3Zm1.455-2.91H36.1l-.728-1.455h6.377ZM42.2,29.1H34.926V23.276h1.455v1.637a1.275,1.275,0,0,0,1.273,1.273h1.819a1.275,1.275,0,0,0,1.273-1.273V23.276H42.2Z" fill="#fff"/>
    <path id="Path_8391" data-name="Path 8391" d="M416,40h1.455v1.455H416Z" transform="translate(-378.164 -21.817)" fill="#fff"/>
  </g>
</svg>
