<svg xmlns="http://www.w3.org/2000/svg" width="22.012" height="27" viewBox="0 0 22.012 27">
  <g id="apple_white" transform="translate(-2.104)">
    <g id="Group_3537" data-name="Group 3537" transform="translate(2.104)">
      <path id="Path_9054" data-name="Path 9054" d="M15.769,0h.162A4.876,4.876,0,0,1,14.7,3.675a3.807,3.807,0,0,1-3.351,1.573A4.73,4.73,0,0,1,12.6,1.687,5.4,5.4,0,0,1,15.769,0Z" transform="translate(0.176)" fill="#fff"/>
      <path id="Path_9055" data-name="Path 9055" d="M24.116,19.461v.056a16.8,16.8,0,0,1-2.248,4.549c-.857,1.238-1.908,2.9-3.783,2.9-1.621,0-2.7-1.094-4.358-1.124C11.969,25.818,11,26.762,9.4,27H8.849a4.9,4.9,0,0,1-2.825-2.044,18.4,18.4,0,0,1-3.92-10.3V13.388A8.416,8.416,0,0,1,5.559,6.57a5.619,5.619,0,0,1,3.917-.952A9.5,9.5,0,0,1,11.4,6.2a5.117,5.117,0,0,0,1.918.6,4.446,4.446,0,0,0,1.346-.432,7.939,7.939,0,0,1,4.33-.806A5.972,5.972,0,0,1,23.4,8.324a6.025,6.025,0,0,0-2.877,5.9,6.071,6.071,0,0,0,3.593,5.237Z" transform="translate(-2.104)" fill="#fff"/>
    </g>
  </g>
</svg>
