<svg xmlns="http://www.w3.org/2000/svg" width="20.5" height="19.732" viewBox="0 0 20.5 19.732">
  <path id="black_favorite" d="M14.357,10.346A5.643,5.643,0,0,0,10,12.409a5.64,5.64,0,0,0-10,3.58c0,2.436,1.453,5.254,4.318,8.375A41.587,41.587,0,0,0,9.6,29.139l.4.3.4-.3a41.587,41.587,0,0,0,5.286-4.775C18.547,21.243,20,18.425,20,15.989A5.649,5.649,0,0,0,14.357,10.346Zm.353,13.127A40.1,40.1,0,0,1,10,27.782a40.109,40.109,0,0,1-4.711-4.309c-2.6-2.83-3.971-5.418-3.971-7.484a4.322,4.322,0,0,1,8.1-2.092L10,14.937l.577-1.04a4.322,4.322,0,0,1,8.1,2.092C18.681,18.055,17.308,20.643,14.711,23.473Z" transform="translate(0.25 -10.016)" stroke="#000" stroke-width="0.5"/>
</svg>
