<svg xmlns="http://www.w3.org/2000/svg" width="19.958" height="16.396" viewBox="0 0 19.958 16.396">
  <g id="compare" transform="translate(-3 -8.175)">
    <path id="Path_8961" data-name="Path 8961" d="M36.218,11.4H26.881L29.339,9.4a.688.688,0,1,0-.871-1.066l-3.953,3.23a.691.691,0,0,0-.082.982c.025.03.055.056.082.084l3.953,3.23a.688.688,0,1,0,.871-1.066l-2.459-2.009h9.337a.688.688,0,1,0,0-1.376Z" transform="translate(-13.949)" fill="#fff"/>
    <path id="Path_8962" data-name="Path 8962" d="M15.557,37.3a.69.69,0,0,0-.166-.861l-3.953-3.23a.688.688,0,1,0-.871,1.066l2.459,2.009H3.688a.688.688,0,1,0,0,1.376h9.337l-2.459,2.009a.688.688,0,1,0,.871,1.066l3.953-3.23a.768.768,0,0,0,.166-.205Z" transform="translate(0 -16.317)" fill="#fff"/>
  </g>
</svg>
