<svg xmlns="http://www.w3.org/2000/svg" width="17.166" height="14.104" viewBox="0 0 17.166 14.104">
  <g id="compare_white" transform="translate(-3 -8.174)">
    <path id="Path_8961" data-name="Path 8961" d="M34.546,10.953H26.515L28.63,9.225a.592.592,0,1,0-.749-.917l-3.4,2.778a.6.6,0,0,0-.071.844c.022.026.047.048.071.072l3.4,2.778a.592.592,0,1,0,.749-.917l-2.115-1.728h8.031a.592.592,0,0,0,0-1.184Z" transform="translate(-14.972)" fill="#fff"/>
    <path id="Path_8962" data-name="Path 8962" d="M13.8,36.7a.594.594,0,0,0-.143-.74l-3.4-2.778a.592.592,0,0,0-.749.917l2.115,1.728H3.592a.592.592,0,1,0,0,1.184h8.031L9.508,38.742a.592.592,0,1,0,.749.917l3.4-2.778A.661.661,0,0,0,13.8,36.7Z" transform="translate(0 -17.515)" fill="#fff"/>
  </g>
</svg>
