<svg xmlns="http://www.w3.org/2000/svg" width="30.699" height="30.013" viewBox="0 0 30.699 30.013">
  <g id="customer_support" transform="translate(-0.293 -1.011)">
    <path id="Path_8595" data-name="Path 8595" d="M28.8,14.058a13.166,13.166,0,0,0-26.315,0A3.1,3.1,0,0,0,.643,16.885v3.474a3.1,3.1,0,0,0,3.094,3.094,2,2,0,0,0,2-2V15.793A2,2,0,0,0,3.933,13.81a11.731,11.731,0,0,1,23.418,0,2,2,0,0,0-1.8,1.982v5.658a2,2,0,0,0,1.83,1.984v1.43a2.923,2.923,0,0,1-2.92,2.92H22.295a2.149,2.149,0,0,0-2.041-1.453H18.024a2.14,2.14,0,0,0-.908.2A2.175,2.175,0,0,0,15.853,28.5a2.174,2.174,0,0,0,2.171,2.171h2.229A2.18,2.18,0,0,0,22.3,29.22h2.161a4.36,4.36,0,0,0,4.355-4.355V23.18a3.1,3.1,0,0,0,1.83-2.821V16.884A3.1,3.1,0,0,0,28.8,14.058ZM4.3,15.793v5.658a.567.567,0,0,1-.567.567,1.661,1.661,0,0,1-1.659-1.659V16.885a1.661,1.661,0,0,1,1.659-1.659.567.567,0,0,1,.567.567Zm16.67,12.864a.739.739,0,0,1-.72.583H18.024a.736.736,0,0,1-.305-1.405.713.713,0,0,1,.305-.066h2.229a.739.739,0,0,1,.72.889Zm8.235-8.3a1.661,1.661,0,0,1-1.659,1.659.567.567,0,0,1-.567-.567V15.793a.567.567,0,0,1,.567-.567,1.661,1.661,0,0,1,1.659,1.659Z" fill="#fff" stroke="#fff" stroke-width="0.7"/>
    <path id="Path_8596" data-name="Path 8596" d="M27.6,27.575a2.884,2.884,0,0,0,2.877-2.884V18.813A2.884,2.884,0,0,0,27.6,15.929H18.808a2.884,2.884,0,0,0-2.877,2.884v5.877a2.884,2.884,0,0,0,2.877,2.884h.054V29.1a1.411,1.411,0,0,0,1.408,1.418,1.379,1.379,0,0,0,.994-.421l2.527-2.52Zm-4.567-1.164L20.3,29.138a.034.034,0,0,1-.047.011.046.046,0,0,1-.031-.051v-2.2a.68.68,0,0,0-.679-.681h-.733a1.523,1.523,0,0,1-1.519-1.523V18.813a1.522,1.522,0,0,1,1.519-1.523H27.6a1.524,1.524,0,0,1,1.519,1.523v5.877A1.523,1.523,0,0,1,27.6,26.214H23.511A.679.679,0,0,0,23.032,26.411Z" transform="translate(-7.561 -7.205)" fill="#fff" stroke="#fff" stroke-width="0.7"/>
    <path id="Path_8597" data-name="Path 8597" d="M23.619,26.787a1.119,1.119,0,1,0,1.12,1.119A1.12,1.12,0,0,0,23.619,26.787Z" transform="translate(-11.446 -13.317)" fill="#fff" stroke="#fff" stroke-width="0.7"/>
    <path id="Path_8598" data-name="Path 8598" d="M30.9,26.787a1.119,1.119,0,1,0,1.12,1.119A1.12,1.12,0,0,0,30.9,26.787Z" transform="translate(-15.262 -13.317)" fill="#fff" stroke="#fff" stroke-width="0.7"/>
    <path id="Path_8599" data-name="Path 8599" d="M38.191,26.787a1.119,1.119,0,1,0,1.12,1.119A1.12,1.12,0,0,0,38.191,26.787Z" transform="translate(-19.078 -13.317)" fill="#fff" stroke="#fff" stroke-width="0.7"/>
  </g>
</svg>
