<svg xmlns="http://www.w3.org/2000/svg" width="16" height="14.666" viewBox="0 0 16 14.666">
  <g id="db_my_returns" transform="translate(-2 -5)">
    <path id="Path_8451" data-name="Path 8451" d="M15.333,10.79V7.51l1.6-1.6V11.4h.533V5.267h0A.259.259,0,0,0,17.2,5H4.4a.265.265,0,0,0-.189.078L2.078,7.211A.266.266,0,0,0,2,7.4V17.533a.266.266,0,0,0,.267.267h12.8a.266.266,0,0,0,.267-.267V14.344A3.062,3.062,0,0,1,12.8,19.133a.267.267,0,0,0,0,.533h.533a4.663,4.663,0,0,0,2-8.877Zm-.377-3.657H10.11l1.6-1.6h4.846Zm-5.678.078A.265.265,0,0,0,9.2,7.4V9.267H8.133V7.51L10.11,5.533h.846ZM4.51,5.533H9.356l-1.6,1.6H2.91ZM2.533,17.267v-9.6H7.6V9.533a.266.266,0,0,0,.267.267h1.6a.266.266,0,0,0,.267-.267V7.667H14.8v2.906a4.636,4.636,0,0,0-1.467-.24h-.4V9a.266.266,0,0,0-.422-.217L8.778,11.45a.266.266,0,0,0,0,.434l3.733,2.667a.266.266,0,0,0,.422-.217V13a3.053,3.053,0,0,1,1.867.741v3.523ZM15.346,18.61A3.6,3.6,0,0,0,12.8,12.467h-.133a.266.266,0,0,0-.267.267v1.082L9.392,11.667,12.4,9.518V10.6a.266.266,0,0,0,.267.267h.667a4.133,4.133,0,0,1,2.013,7.743Z" fill="#676767"/>
    <path id="Path_8452" data-name="Path 8452" d="M6,47H8.4v.4H6Z" transform="translate(-3.2 -30.694)" fill="#676767"/>
    <path id="Path_8453" data-name="Path 8453" d="M6,43H8.4v.4H6Z" transform="translate(-3.2 -27.771)" fill="#676767"/>
  </g>
</svg>
