<svg xmlns="http://www.w3.org/2000/svg" width="15.998" height="13.154" viewBox="0 0 15.998 13.154">
  <g id="db_my_payments" transform="translate(0 -11.002)">
    <path id="Path_8430" data-name="Path 8430" d="M15.233,13.059,3.773,11.015a.939.939,0,0,0-1.077.761L1.958,16.01H.9a.9.9,0,0,0-.9.9v6.346a.9.9,0,0,0,.9.9H12.592a.9.9,0,0,0,.9-.9V21.028a1.319,1.319,0,0,0,.968-.055.952.952,0,0,0,.445-.646l1.078-6.183a.937.937,0,0,0-.75-1.085ZM3.2,11.864a.419.419,0,0,1,.478-.341l11.46,2.044a.421.421,0,0,1,.335.488L15.3,15.076,3.026,12.887Zm9.775,11.4a.388.388,0,0,1-.387.387H.9a.388.388,0,0,1-.387-.387V16.913A.388.388,0,0,1,.9,16.526H12.592a.388.388,0,0,1,.387.387ZM14.4,20.238c-.08.459-.59.321-.9.265v-3.59a.9.9,0,0,0-.9-.9H2.482L2.937,13.4l.748.133,11.526,2.056Z" fill="#676767"/>
    <path id="Path_8431" data-name="Path 8431" d="M35.47,97.551H33.893a.274.274,0,0,1,0-.548H35.47a.274.274,0,1,1,0,.548Z" transform="translate(-29.32 -75.034)" fill="#676767"/>
    <path id="Path_8432" data-name="Path 8432" d="M13.622,97.551H12.045a.274.274,0,0,1,0-.548h1.577a.274.274,0,1,1,0,.548Z" transform="translate(-10.157 -75.034)" fill="#676767"/>
    <path id="Path_8433" data-name="Path 8433" d="M57.318,97.551H55.741a.274.274,0,0,1,0-.548h1.577a.274.274,0,1,1,0,.548Z" transform="translate(-48.374 -75.034)" fill="#676767"/>
    <path id="Path_8434" data-name="Path 8434" d="M79.167,97.551H77.59a.274.274,0,0,1,0-.548h1.577a.274.274,0,1,1,0,.548Z" transform="translate(-67.429 -75.034)" fill="#676767"/>
    <path id="Path_8435" data-name="Path 8435" d="M13.623,77.041H11.637a.686.686,0,0,1-.685-.685v-.787a.686.686,0,0,1,.685-.685h1.986a.686.686,0,0,1,.685.685v.787a.686.686,0,0,1-.685.685Zm-1.986-1.61a.137.137,0,0,0-.137.137v.787a.137.137,0,0,0,.137.137h1.986a.137.137,0,0,0,.137-.137v-.787a.137.137,0,0,0-.137-.137Z" transform="translate(-9.451 -55.733)" fill="#676767"/>
  </g>
</svg>
