<svg xmlns="http://www.w3.org/2000/svg" width="16" height="16.002" viewBox="0 0 16 16.002">
  <path id="db_my_wallet" d="M15.467,8.848V5.6a.788.788,0,0,0-.267-.59V2.932a.8.8,0,0,0-.8-.8H12.593A3.436,3.436,0,0,0,8.418,1.123,3.462,3.462,0,0,0,2.667,2.132H1.6A1.6,1.6,0,0,0,0,3.732V14.4A1.6,1.6,0,0,0,1.6,16H14.667a.8.8,0,0,0,.8-.8V11.949A.8.8,0,0,0,16,11.2V9.6A.8.8,0,0,0,15.467,8.848Zm-.8-5.916V4.8H13.288a3.483,3.483,0,0,0,.046-.533,3.445,3.445,0,0,0-.391-1.6H14.4a.267.267,0,0,1,.267.265ZM12.25,2.554a2.865,2.865,0,0,1,.5,2.244H6.987A2.93,2.93,0,0,1,12.25,2.554ZM5.867.532a2.925,2.925,0,0,1,2.07.855A3.42,3.42,0,0,0,6.446,4.8H3.258A2.926,2.926,0,0,1,5.867.532ZM.533,3.732A1.071,1.071,0,0,1,1.6,2.665h.9A3.436,3.436,0,0,0,2.665,4.8H1.656a1.109,1.109,0,0,1-1.12-.97.82.82,0,0,1,0-.1ZM14.667,15.465H1.6A1.067,1.067,0,0,1,.533,14.4V12.265H2.291a.537.537,0,0,1,.411.192l.434.521a1.083,1.083,0,1,0,.411-.34l-.434-.522a1.067,1.067,0,0,0-.822-.385H.533V10.665H5.1a1.067,1.067,0,1,0,0-.533H.533V9.065H2.291a1.069,1.069,0,0,0,.821-.384l.435-.523A1.054,1.054,0,0,0,4,8.265a1.074,1.074,0,1,0-.865-.447L2.7,8.339a.538.538,0,0,1-.412.193H.533V4.905a1.691,1.691,0,0,0,1.123.427H14.667a.267.267,0,0,1,.267.267V8.8H13.6a1.6,1.6,0,1,0,0,3.2h1.333v3.2a.267.267,0,0,1-.266.265ZM4,13.065a.533.533,0,1,1-.533.533A.533.533,0,0,1,4,13.065ZM5.6,10.4a.533.533,0,1,1,.533.533A.533.533,0,0,1,5.6,10.4ZM3.467,7.2A.533.533,0,1,1,4,7.732.533.533,0,0,1,3.467,7.2Zm12,4a.267.267,0,0,1-.267.267H13.6a1.067,1.067,0,0,1,0-2.133h1.6a.267.267,0,0,1,.267.267Z" transform="translate(0 0.002)" fill="#676767"/>
</svg>
