<svg xmlns="http://www.w3.org/2000/svg" width="16.001" height="16" viewBox="0 0 16.001 16">
  <g id="db_my_wishlist" transform="translate(0.001)">
    <path id="Path_8436" data-name="Path 8436" d="M15.532,8.367a.349.349,0,0,1-.208-.069C15.146,8.166,11,5.042,11,2.531A2.532,2.532,0,0,1,15.532.979a2.532,2.532,0,0,1,4.532,1.552c0,2.511-4.146,5.635-4.324,5.767a.349.349,0,0,1-.208.069Zm-2-7.67A1.837,1.837,0,0,0,11.7,2.531c0,1.692,2.6,4.077,3.835,5.048,1.238-.971,3.835-3.355,3.835-5.048A1.834,1.834,0,0,0,15.852,1.8a.349.349,0,0,1-.64,0A1.828,1.828,0,0,0,13.532.7Z" transform="translate(-4.064)" fill="#676767"/>
    <path id="Path_8437" data-name="Path 8437" d="M14.2,13H5.645a.326.326,0,0,1-.322-.256L4.007,6.381a.311.311,0,0,1,.068-.264A.333.333,0,0,1,4.329,6H7.618a.319.319,0,1,1,0,.637H4.73l1.184,5.73h8.012l.539-2.609a.331.331,0,0,1,.387-.25.319.319,0,0,1,.259.374l-.592,2.865A.328.328,0,0,1,14.2,13Z" transform="translate(-1.278 -1.848)" fill="#676767"/>
    <path id="Path_8438" data-name="Path 8438" d="M4.531,12.458a.348.348,0,0,1-.341-.28L2.462,3.536A1.049,1.049,0,0,0,1.436,2.7H.349a.35.35,0,1,1,0-.7H1.436a1.748,1.748,0,0,1,1.71,1.4l1.728,8.641a.348.348,0,0,1-.274.41.32.32,0,0,1-.068.007Z" transform="translate(0 -0.605)" fill="#676767"/>
    <path id="Path_8439" data-name="Path 8439" d="M15.185,18.092H3.988a1.048,1.048,0,0,1,0-2.092H5.3a.35.35,0,1,1,0,.7H3.988a.35.35,0,0,0,0,.7h11.2a.35.35,0,0,1,0,.7Z" transform="translate(-0.908 -5.403)" fill="#676767"/>
    <path id="Path_8440" data-name="Path 8440" d="M7.394,22.789A1.394,1.394,0,1,1,8.788,21.4a1.394,1.394,0,0,1-1.394,1.394Zm0-2.092a.7.7,0,1,0,.7.7.7.7,0,0,0-.7-.7Z" transform="translate(-2.037 -6.789)" fill="#676767"/>
    <path id="Path_8441" data-name="Path 8441" d="M16.394,22.789A1.394,1.394,0,1,1,17.788,21.4a1.394,1.394,0,0,1-1.394,1.394Zm0-2.092a.7.7,0,1,0,.7.7.7.7,0,0,0-.7-.7Z" transform="translate(-5.092 -6.789)" fill="#676767"/>
  </g>
</svg>
