<svg xmlns="http://www.w3.org/2000/svg" width="16" height="16.004" viewBox="0 0 16 16.004">
  <g id="db_my_giftcards" transform="translate(0 0.003)">
    <path id="Path_8454" data-name="Path 8454" d="M14.58,19.2H3.02A.967.967,0,0,1,2,18.3v-6a.322.322,0,0,1,.34-.3H15.26a.322.322,0,0,1,.34.3v6A.967.967,0,0,1,14.58,19.2ZM2.68,12.6v5.7a.323.323,0,0,0,.34.3H14.58a.323.323,0,0,0,.34-.3V12.6Z" transform="translate(-0.8 -3.2)" fill="#676767"/>
    <path id="Path_8455" data-name="Path 8455" d="M15,10.6H1a.955.955,0,0,1-1-.9V7.9A.955.955,0,0,1,1,7H15a.955.955,0,0,1,1,.9V9.7a.955.955,0,0,1-1,.9ZM1,7.6a.319.319,0,0,0-.333.3V9.7A.319.319,0,0,0,1,10H15a.319.319,0,0,0,.333-.3V7.9A.319.319,0,0,0,15,7.6Z" transform="translate(0 -2.178)" fill="#676767"/>
    <path id="Path_8456" data-name="Path 8456" d="M11.8,4.8a.3.3,0,0,1-.3-.342C11.51,4.413,12.18,0,15.7,0c1.55,0,2.1.838,2.1,1.555,0,1.348-1.862,3.245-6,3.245ZM15.7.6c-2.467,0-3.308,2.631-3.533,3.594,3.287-.1,5.034-1.57,5.034-2.639A.781.781,0,0,0,16.868.9,1.955,1.955,0,0,0,15.7.6Z" transform="translate(-3)" fill="#676767"/>
    <path id="Path_8457" data-name="Path 8457" d="M8,4.8c-4.139,0-6-1.9-6-3.245A1.388,1.388,0,0,1,2.572.424,2.535,2.535,0,0,1,4.1,0C7.62,0,8.29,4.413,8.3,4.458A.3.3,0,0,1,8,4.8ZM4.1.6c-.926,0-1.5.365-1.5.955,0,1.07,1.748,2.538,5.037,2.64C7.419,3.226,6.6.6,4.1.6Z" transform="translate(-0.8)" fill="#676767"/>
    <path id="Path_8458" data-name="Path 8458" d="M11.8,17.2a.3.3,0,0,1-.3-.3V7.3a.3.3,0,1,1,.6,0v9.6A.3.3,0,0,1,11.8,17.2Z" transform="translate(-3.8 -1.2)" fill="#676767"/>
  </g>
</svg>
