<svg xmlns="http://www.w3.org/2000/svg" width="16.005" height="14.495" viewBox="0 0 16.005 14.495">
  <g id="db_my_tickets" transform="translate(0 -23.943)">
    <g id="Group_1980" data-name="Group 1980" transform="translate(5.739 23.941)">
      <g id="Group_1979" data-name="Group 1979">
        <path id="Path_8442" data-name="Path 8442" d="M193.184,31.5h-.306a.465.465,0,1,1,0-.929h.306a.236.236,0,0,0,.237-.237v-1.42a.236.236,0,0,0-.237-.237h-.306a.465.465,0,0,1-.464-.464v-.086l.347-.318a.237.237,0,0,0,.02-.328l-.923-1.077a.237.237,0,0,0-.333-.026l-.232.2a.464.464,0,1,1-.6-.7l.232-.2a.236.236,0,0,0,.026-.333l-.923-1.077a.236.236,0,0,0-.333-.026l-.232.2a.464.464,0,0,1-.655-.05l-.31-.361a.237.237,0,0,0-.333-.026l-4.089,3.5H183.4a.237.237,0,1,0,0,.473h8.546v.239a.938.938,0,0,0,.937.937h.069V30.1h-.069a.938.938,0,0,0,0,1.875h.069v.946h-.069a.938.938,0,0,0-.937.937v.536h-1.635a.236.236,0,1,0,0,.473h1.872a.236.236,0,0,0,.237-.236v-.773a.465.465,0,0,1,.464-.464h.306a.236.236,0,0,0,.236-.236V31.734a.236.236,0,0,0-.242-.234Zm-8.386-4,3.49-2.99.156.182a.937.937,0,0,0,1.322.1l.053-.045.615.718-.052.045a.937.937,0,0,0,1.22,1.423l.052-.045.522.61Z" transform="translate(-183.159 -23.941)" fill="#676767"/>
      </g>
    </g>
    <g id="Group_1982" data-name="Group 1982" transform="translate(0 27.522)">
      <g id="Group_1981" data-name="Group 1981">
        <path id="Path_8443" data-name="Path 8443" d="M10.786,144.92H1.479v-.239a.938.938,0,0,0-.937-.937H.473V142.8H.542a.938.938,0,0,0,0-1.875H.473v-.946H.542a.938.938,0,0,0,.937-.937V138.5h2.7a.237.237,0,0,0,0-.473H1.243a.236.236,0,0,0-.237.237v.773a.465.465,0,0,1-.464.464H.237a.236.236,0,0,0-.237.236v1.419a.236.236,0,0,0,.237.237H.542a.465.465,0,0,1,0,.929h-.3a.236.236,0,0,0-.237.237v1.419a.236.236,0,0,0,.237.236h.3a.465.465,0,0,1,.464.464v.128l-.334.265a.236.236,0,0,0-.033.339l.923,1.077a.237.237,0,0,0,.333.026l.232-.2a.465.465,0,0,1,.6.705l-.232.2a.236.236,0,0,0-.026.333l.923,1.077a.236.236,0,0,0,.333.026l.232-.2a.464.464,0,0,1,.655.05l.31.361a.236.236,0,0,0,.333.026l4.081-3.5.006-.006h1.437a.237.237,0,0,0,0-.473Zm-5.653,3.463-.156-.182a.937.937,0,0,0-1.322-.1l-.053.045-.615-.718.052-.045a.938.938,0,0,0-1.22-1.424L1.768,146l-.522-.61H8.623Z" transform="translate(0 -138.031)" fill="#676767"/>
      </g>
    </g>
    <g id="Group_1984" data-name="Group 1984" transform="translate(2.606 28.62)">
      <g id="Group_1983" data-name="Group 1983">
        <path id="Path_8444" data-name="Path 8444" d="M87.082,173.562H80.594a.237.237,0,0,0,0,.473h6.26v4.2H76.979v-4.2h1.875a.237.237,0,0,0,0-.473h-2.1a.232.232,0,0,0-.228.237v4.672a.232.232,0,0,0,.228.237H87.082a.232.232,0,0,0,.228-.237V173.8a.232.232,0,0,0-.228-.238Z" transform="translate(-76.523 -173.562)" fill="#676767"/>
      </g>
    </g>
    <g id="Group_1986" data-name="Group 1986" transform="translate(3.462 30.157)">
      <g id="Group_1985" data-name="Group 1985">
        <path id="Path_8445" data-name="Path 8445" d="M112.195,222.827h-1.306c-.086,0-.127.093-.127.179s.046.182.127.182h.454v1.769c0,.083.1.127.2.127s.2-.043.2-.127v-1.769h.451c.08,0,.127-.086.127-.182S112.281,222.827,112.195,222.827Z" transform="translate(-110.762 -222.827)" fill="#676767"/>
      </g>
    </g>
    <g id="Group_1988" data-name="Group 1988" transform="translate(5.243 30.157)">
      <g id="Group_1987" data-name="Group 1987">
        <path id="Path_8446" data-name="Path 8446" d="M167.956,222.827c-.1,0-.2.037-.2.123v2.007c0,.083.1.127.2.127s.2-.043.2-.127V222.95C168.156,222.864,168.055,222.827,167.956,222.827Z" transform="translate(-167.755 -222.827)" fill="#676767"/>
      </g>
    </g>
    <g id="Group_1990" data-name="Group 1990" transform="translate(5.995 30.157)">
      <g id="Group_1989" data-name="Group 1989">
        <path id="Path_8447" data-name="Path 8447" d="M193.043,224.292c-.1,0-.191.031-.2.127-.009.13-.034.33-.315.33-.213,0-.33-.114-.33-.355v-.861c0-.241.117-.355.324-.355a.286.286,0,0,1,.321.306c0,.093.086.127.2.127.136,0,.2-.037.2-.2,0-.358-.306-.587-.735-.587a.644.644,0,0,0-.713.707v.861a.642.642,0,0,0,.71.707c.432,0,.738-.238.738-.611C193.247,224.332,193.182,224.292,193.043,224.292Z" transform="translate(-191.799 -222.825)" fill="#676767"/>
      </g>
    </g>
    <g id="Group_1992" data-name="Group 1992" transform="translate(7.717 30.157)">
      <g id="Group_1991" data-name="Group 1991">
        <path id="Path_8448" data-name="Path 8448" d="M248.416,224.828l-.673-1.025.553-.692a.119.119,0,0,0,.025-.077.25.25,0,0,0-.232-.207.128.128,0,0,0-.111.059l-.667.908v-.843c0-.086-.1-.123-.2-.123s-.2.037-.2.123h0v2.007c0,.083.1.127.2.127s.2-.043.2-.127v-.6l.167-.21.58.88a.157.157,0,0,0,.139.077.244.244,0,0,0,.241-.2.12.12,0,0,0-.022-.072Z" transform="translate(-246.909 -222.827)" fill="#676767"/>
      </g>
    </g>
    <g id="Group_1994" data-name="Group 1994" transform="translate(9.424 30.157)">
      <g id="Group_1993" data-name="Group 1993">
        <path id="Path_8449" data-name="Path 8449" d="M302.8,224.731h-.874v-.621h.469a.14.14,0,0,0,.127-.154c0-.083-.046-.161-.127-.161h-.469v-.618h.874c.08,0,.127-.083.127-.179s-.04-.173-.127-.173h-1.1c-.09,0-.176.043-.176.127v2c0,.083.086.127.176.127h1.1c.086,0,.127-.09.127-.173S302.88,224.731,302.8,224.731Z" transform="translate(-301.525 -222.826)" fill="#676767"/>
      </g>
    </g>
    <g id="Group_1996" data-name="Group 1996" transform="translate(10.915 30.157)">
      <g id="Group_1995" data-name="Group 1995">
        <path id="Path_8450" data-name="Path 8450" d="M350.649,222.827h-1.306c-.086,0-.127.093-.127.179s.046.182.127.182h.454v1.769c0,.083.1.127.2.127s.2-.043.2-.127v-1.769h.451c.08,0,.127-.086.127-.182S350.735,222.827,350.649,222.827Z" transform="translate(-349.216 -222.827)" fill="#676767"/>
      </g>
    </g>
  </g>
</svg>
