<svg xmlns="http://www.w3.org/2000/svg" width="14.488" height="16" viewBox="0 0 14.488 16">
  <g id="db_my_profile" transform="translate(-2.497 -1.5)">
    <path id="Path_8428" data-name="Path 8428" d="M11.262,14.5H8.214A5.95,5.95,0,0,0,2.5,20.65a.4.4,0,0,0,.381.41H16.6a.4.4,0,0,0,.381-.41,5.95,5.95,0,0,0-5.714-6.15ZM3.276,20.24a5.123,5.123,0,0,1,4.938-4.92h3.048A5.123,5.123,0,0,1,16.2,20.24Z" transform="translate(0 -3.56)" fill="#676767"/>
    <path id="Path_8429" data-name="Path 8429" d="M10.458,10.52a4.261,4.261,0,0,0,3.958-4.51A4.261,4.261,0,0,0,10.458,1.5,4.261,4.261,0,0,0,6.5,6.01a4.266,4.266,0,0,0,3.958,4.51Zm0-8.2A3.486,3.486,0,0,1,13.7,6.01,3.486,3.486,0,0,1,10.458,9.7,3.486,3.486,0,0,1,7.22,6.01a3.49,3.49,0,0,1,3.239-3.69Z" transform="translate(-0.72)" fill="#676767"/>
  </g>
</svg>
