<svg xmlns="http://www.w3.org/2000/svg" width="19.492" height="24" viewBox="0 0 19.492 24">
  <g id="delete" transform="translate(0.003 0.001)">
    <path id="Path_8975" data-name="Path 8975" d="M222.979,154.7a.581.581,0,0,0-.581.581v10.974a.581.581,0,0,0,1.161,0V155.284A.581.581,0,0,0,222.979,154.7Zm0,0" transform="translate(-209.926 -146.515)" fill="#c8c8c8"/>
    <path id="Path_8976" data-name="Path 8976" d="M104.979,154.7a.581.581,0,0,0-.581.581v10.974a.581.581,0,0,0,1.161,0V155.284A.581.581,0,0,0,104.979,154.7Zm0,0" transform="translate(-98.545 -146.515)" fill="#c8c8c8"/>
    <path id="Path_8977" data-name="Path 8977" d="M1.593,7.144V20.991a3.1,3.1,0,0,0,.824,2.139A2.768,2.768,0,0,0,4.426,24H15.06a2.767,2.767,0,0,0,2.008-.868,3.1,3.1,0,0,0,.824-2.139V7.144a2.147,2.147,0,0,0-.551-4.222H14.464v-.7A2.208,2.208,0,0,0,12.238,0H7.247a2.208,2.208,0,0,0-2.226,2.22v.7H2.144a2.147,2.147,0,0,0-.551,4.222ZM15.06,22.874H4.426a1.78,1.78,0,0,1-1.709-1.883V7.193H16.769v13.8a1.78,1.78,0,0,1-1.709,1.883ZM6.146,2.219a1.083,1.083,0,0,1,1.1-1.1h4.991a1.083,1.083,0,0,1,1.1,1.1v.7H6.146Zm-4,1.827h15.2a1.012,1.012,0,0,1,0,2.023H2.144a1.012,1.012,0,0,1,0-2.023Zm0,0" transform="translate(0 0)" fill="#c8c8c8"/>
    <path id="Path_8978" data-name="Path 8978" d="M163.979,154.7a.581.581,0,0,0-.581.581v10.974a.581.581,0,0,0,1.161,0V155.284A.581.581,0,0,0,163.979,154.7Zm0,0" transform="translate(-154.236 -146.515)" fill="#c8c8c8"/>
  </g>
</svg>
