<svg xmlns="http://www.w3.org/2000/svg" width="30.563" height="30.558" viewBox="0 0 30.563 30.558">
  <path id="faq" d="M27.87,9.826H20.451V2.675A2.678,2.678,0,0,0,17.776,0H2.675A2.678,2.678,0,0,0,0,2.675V12.941a2.678,2.678,0,0,0,2.675,2.675H3.86v4.513a.478.478,0,0,0,.822.331l4.656-4.844h.645v7.231a2.692,2.692,0,0,0,2.689,2.689h8.493l4.687,4.876a.478.478,0,0,0,.822-.331V25.536h1.2a2.692,2.692,0,0,0,2.689-2.689V12.515A2.692,2.692,0,0,0,27.87,9.826ZM9.135,14.661a.478.478,0,0,0-.344.147L4.815,18.944V15.139a.478.478,0,0,0-.477-.477H2.675a1.722,1.722,0,0,1-1.72-1.72V2.675A1.722,1.722,0,0,1,2.675.955h15.1a1.722,1.722,0,0,1,1.72,1.72V9.826H12.672a2.692,2.692,0,0,0-2.689,2.689v2.146ZM29.6,22.847a1.736,1.736,0,0,1-1.734,1.734H26.2a.478.478,0,0,0-.477.477V28.9l-4.006-4.168a.478.478,0,0,0-.344-.147h-8.7a1.736,1.736,0,0,1-1.734-1.734V12.515a1.736,1.736,0,0,1,1.734-1.734h15.2A1.736,1.736,0,0,1,29.6,12.515ZM9.564,5.783A3.066,3.066,0,0,1,7.811,8.546,1.4,1.4,0,0,0,6.99,9.84v.516a.477.477,0,1,1-.955,0V9.84A2.334,2.334,0,0,1,7.4,7.682a2.1,2.1,0,1,0-2.989-1.9.477.477,0,1,1-.955,0,3.052,3.052,0,1,1,6.1,0ZM7.293,12.361a.781.781,0,1,1-.781-.781A.781.781,0,0,1,7.293,12.361Zm5.264-8.089a.478.478,0,0,1,.477-.477h3.617a.478.478,0,1,1,0,.955H13.035a.478.478,0,0,1-.477-.478Zm0,2.926a.478.478,0,0,1,.477-.477h3.617a.477.477,0,0,1,0,.955H13.035a.478.478,0,0,1-.477-.476Zm12.855,7.558a.478.478,0,0,1-.477.477H15.607a.477.477,0,0,1,0-.955h9.329a.478.478,0,0,1,.477.478Zm0,2.926a.478.478,0,0,1-.477.477H15.607a.477.477,0,1,1,0-.955h9.329a.478.478,0,0,1,.477.477Zm0,2.926a.478.478,0,0,1-.477.477H15.607a.477.477,0,1,1,0-.955h9.329a.478.478,0,0,1,.477.477Z"/>
</svg>
