<svg xmlns="http://www.w3.org/2000/svg" width="30.5" height="29.198" viewBox="0 0 30.5 29.198">
  <path id="favourite"
    d="M21.536,10.346A8.465,8.465,0,0,0,15,13.44,8.46,8.46,0,0,0,0,18.81c0,3.654,2.179,7.881,6.477,12.563a62.381,62.381,0,0,0,7.929,7.162l.594.446.594-.446a62.379,62.379,0,0,0,7.929-7.162C27.821,26.691,30,22.464,30,18.81A8.473,8.473,0,0,0,21.536,10.346Zm.53,19.69A60.154,60.154,0,0,1,15,36.5a60.163,60.163,0,0,1-7.066-6.464c-3.9-4.245-5.956-8.127-5.956-11.226a6.483,6.483,0,0,1,12.157-3.138L15,17.232l.865-1.56A6.483,6.483,0,0,1,28.022,18.81C28.022,21.909,25.962,25.791,22.066,30.036Z"
    transform="translate(0.25 -10.096)" fill="#fff" stroke="#000000" stroke-width="0.5" />
</svg>