<svg xmlns="http://www.w3.org/2000/svg" width="31.535" height="30.564" viewBox="0 0 31.535 30.564">
  <path id="favorite_1_" data-name="favorite (1)" d="M22.279,10.346a8.715,8.715,0,0,0-6.762,3.241,8.714,8.714,0,0,0-6.762-3.241A8.822,8.822,0,0,0,0,19.213c0,3.829,2.254,8.257,6.7,13.162a64.807,64.807,0,0,0,8.2,7.5l.615.468.615-.468a64.8,64.8,0,0,0,8.2-7.5c4.446-4.905,6.7-9.334,6.7-13.162A8.822,8.822,0,0,0,22.279,10.346Zm.548,20.628a62.514,62.514,0,0,1-7.31,6.771,62.524,62.524,0,0,1-7.31-6.771C4.177,26.527,2.046,22.46,2.046,19.213a6.692,6.692,0,0,1,12.576-3.288l.895,1.635.895-1.635a6.692,6.692,0,0,1,12.576,3.288C28.988,22.46,26.858,26.527,22.827,30.974Z" transform="translate(0.25 -10.096)" fill="#fff" stroke="#fff" stroke-width="0.5"/>
</svg>
