<svg xmlns="http://www.w3.org/2000/svg" width="82.968" height="82.837" viewBox="0 0 82.968 82.837">
  <g id="free_installations" transform="translate(0.002 -0.416)">
    <path id="Path_8502" data-name="Path 8502" d="M78.733,57.875a14.608,14.608,0,0,0-15.552-3.234l-2.334-2.329a5.07,5.07,0,0,0,.532-.461L67.2,46.039a5.062,5.062,0,0,0,0-7.154h0a5.062,5.062,0,0,0-3.861-1.47,5.721,5.721,0,0,0,.053-.774,5.6,5.6,0,0,0-5.351-5.6,5.6,5.6,0,0,0-5.97-7.338,5.748,5.748,0,0,0,.038-.645,5.561,5.561,0,0,0-1.64-3.965,5.629,5.629,0,0,0-7.939,0l-3.723,3.714-.288-.287a3.587,3.587,0,0,0-5.059,0l-1.235,1.233-3.6-3.6A14.467,14.467,0,0,0,12.413.678c-.678.128-2.74.516-3.163,2.094-.414,1.543,1.058,2.808,1.765,3.416.072.062,5.813,5.779,5.813,5.779a4.071,4.071,0,0,1,.242,5.486,4.1,4.1,0,0,1-5.506-.242s-5.73-5.728-5.792-5.8C5.163,10.7,3.894,9.238,2.351,9.652c-1.579.424-1.967,2.481-2.1,3.156a14.464,14.464,0,0,0,3.979,12.95,14.609,14.609,0,0,0,15.552,3.234l4.168,4.159a10.054,10.054,0,0,0-.659,4.214c.2,3.261-1.531,6.459-5.78,10.695L13.09,52.476a4,4,0,0,0-4.64.724l-6.2,6.185a3.981,3.981,0,0,0,0,5.628L19.37,82.091a3.994,3.994,0,0,0,5.632,0l6.2-6.185a3.987,3.987,0,0,0,.727-4.632l7.529-7.513c2.232-2.227,2.594-2.166,4.958-1.772.4.066.849.142,1.356.214,2.063.3,4.459-.752,5.819-1.478l2.748,2.742a14.622,14.622,0,0,0-.977,5.905,1.215,1.215,0,0,0,1.213,1.164h.052A1.215,1.215,0,0,0,55.79,69.27a12.136,12.136,0,0,1,1.091-5.57,1.215,1.215,0,0,0-.245-1.37L37.189,42.918a10.654,10.654,0,0,0,1.288-4.632,13.326,13.326,0,0,0,5.041,2.668,8.841,8.841,0,0,0,4.092.2c0,.014,0,.027,0,.041a5.6,5.6,0,0,0,5.347,5.591,5.055,5.055,0,0,0,5.434,6.507l3.654,3.646a1.215,1.215,0,0,0,1.365.244A12.165,12.165,0,0,1,77.016,59.6a12.035,12.035,0,0,1,3.307,10.777,4.166,4.166,0,0,1-.358,1.174,5.227,5.227,0,0,1-.93-.914c-.1-.126-5.915-5.937-5.915-5.937a6.537,6.537,0,0,0-8.882-.3,1.248,1.248,0,0,0-.116.116,6.507,6.507,0,0,0,.3,8.87l6.857,6.824a4.209,4.209,0,0,1-1.176.356,12.037,12.037,0,0,1-13.01-6.325A1.215,1.215,0,0,0,54.93,75.35a14.448,14.448,0,0,0,12.9,7.86,14.7,14.7,0,0,0,2.726-.255c.678-.128,2.74-.516,3.163-2.094.414-1.543-1.058-2.808-1.765-3.416-.072-.062-5.813-5.779-5.813-5.779A3.73,3.73,0,1,1,71.4,66.422s5.73,5.728,5.792,5.8c.61.706,1.879,2.174,3.421,1.759,1.577-.424,1.966-2.481,2.094-3.156a14.463,14.463,0,0,0-3.978-12.95ZM54.978,27.026a3.187,3.187,0,0,1,.044,4.446l-3.906,3.9c-.671-.972-4.361-4.632-4.361-4.632l3.719-3.711a3.194,3.194,0,0,1,4.5,0ZM44.251,20.818a3.18,3.18,0,0,1,4.505,4.488L45.033,29.02l-4.5-4.492ZM20.924,26.694a1.215,1.215,0,0,0-1.365-.244A12.166,12.166,0,0,1,5.951,24.038,12.035,12.035,0,0,1,2.644,13.26,4.166,4.166,0,0,1,3,12.086,5.227,5.227,0,0,1,3.93,13c.1.122,5.915,5.932,5.915,5.932a6.536,6.536,0,0,0,8.882.3,1.248,1.248,0,0,0,.116-.116,6.507,6.507,0,0,0-.3-8.87S11.8,3.6,11.687,3.422a4.209,4.209,0,0,1,1.176-.356A12.038,12.038,0,0,1,26.086,19.938a1.215,1.215,0,0,0,.245,1.368l4.178,4.172L25.98,30a8.525,8.525,0,0,0-.806.937ZM49.251,37.229a5.635,5.635,0,0,0-.814,1.029c-2.589,1.6-6.682-.163-8.719-2.125l-.253-.252c-1.862-1.856-2.852-2.844-2.944-2.937h0l-.013-.014-.019-.017a1.215,1.215,0,0,0-1.722,1.712l.024.025A4.606,4.606,0,0,1,36.054,38a9.4,9.4,0,0,1-2.937,6.361,1.216,1.216,0,0,0,1.717,1.721,13.823,13.823,0,0,0,.984-1.1L49.78,58.918a7.333,7.333,0,0,1-3.664.879c-.48-.069-.916-.141-1.3-.205-2.816-.47-4.078-.542-7.075,2.449l-7.4,7.381-6.113-6.1a1.215,1.215,0,0,0-1.716,1.721L29.482,72h0a1.551,1.551,0,0,1,0,2.186l-6.2,6.185a1.559,1.559,0,0,1-2.2,0L3.968,63.29a1.551,1.551,0,0,1,0-2.186l6.2-6.185a1.559,1.559,0,0,1,2.2,0l6.13,6.116a1.216,1.216,0,1,0,1.717-1.721l-5.268-5.256,4.287-4.278c4.793-4.778,6.734-8.535,6.49-12.562a7.331,7.331,0,0,1,1.975-5.5l7.484-7.468a1.166,1.166,0,0,1,1.625,0l1.144,1.142,7.921,7.9.637.632a20.017,20.017,0,0,1,2.852,3.2Zm3.97,7.137a3.173,3.173,0,0,1-2.253-5.416l4.563-4.55a3.194,3.194,0,0,1,4.505,0h0a3.174,3.174,0,0,1,0,4.486h0l-4.564,4.553a3.16,3.16,0,0,1-2.251.927Zm2.712,5.764a2.632,2.632,0,0,1,0-3.713l5.82-5.811a2.647,2.647,0,0,1,3.733,0h0a2.632,2.632,0,0,1,0,3.713l-5.824,5.812a2.645,2.645,0,0,1-3.729,0Z"/>
  </g>
</svg>
