<svg xmlns="http://www.w3.org/2000/svg" width="21.193" height="21.275" viewBox="0 0 21.193 21.275">
  <g id="grid_orange" transform="translate(-1.85)">
    <path id="Path_1595" data-name="Path 1595" d="M7.625.661A.66.66,0,0,0,6.964,0H2.511A.66.66,0,0,0,1.85.661V5.116a.66.66,0,0,0,.661.661H6.966a.66.66,0,0,0,.661-.661V.661Z" fill="#ff4f04"/>
    <path id="Path_1596" data-name="Path 1596" d="M357.325.661A.66.66,0,0,0,356.664,0h-4.453a.66.66,0,0,0-.661.661V5.116a.66.66,0,0,0,.661.661h4.453a.66.66,0,0,0,.661-.661Z" transform="translate(-341.992)" fill="#ff4f04"/>
    <path id="Path_1597" data-name="Path 1597" d="M707.025.661A.66.66,0,0,0,706.364,0h-4.453a.66.66,0,0,0-.661.661V5.116a.66.66,0,0,0,.661.661h4.455a.66.66,0,0,0,.661-.661V.661Z" transform="translate(-683.984)" fill="#ff4f04"/>
    <path id="Path_1598" data-name="Path 1598" d="M7.625,352.261a.66.66,0,0,0-.661-.661H2.511a.66.66,0,0,0-.661.661v4.453a.66.66,0,0,0,.661.661H6.966a.66.66,0,0,0,.661-.661v-4.453Z" transform="translate(0 -343.85)" fill="#ff4f04"/>
    <path id="Path_1599" data-name="Path 1599" d="M357.325,352.261a.66.66,0,0,0-.661-.661h-4.453a.66.66,0,0,0-.661.661v4.453a.66.66,0,0,0,.661.661h4.453a.66.66,0,0,0,.661-.661Z" transform="translate(-341.992 -343.85)" fill="#ff4f04"/>
    <path id="Path_1600" data-name="Path 1600" d="M707.025,352.261a.66.66,0,0,0-.661-.661h-4.453a.66.66,0,0,0-.661.661v4.453a.66.66,0,0,0,.661.661h4.455a.66.66,0,0,0,.661-.661v-4.453Z" transform="translate(-683.984 -343.85)" fill="#ff4f04"/>
    <path id="Path_1601" data-name="Path 1601" d="M6.964,703.1H2.511a.66.66,0,0,0-.661.661v4.455a.66.66,0,0,0,.661.661H6.966a.66.66,0,0,0,.661-.661v-4.455a.665.665,0,0,0-.663-.661Z" transform="translate(0 -687.602)" fill="#ff4f04"/>
    <path id="Path_1602" data-name="Path 1602" d="M356.664,703.1h-4.453a.66.66,0,0,0-.661.661v4.455a.66.66,0,0,0,.661.661h4.453a.66.66,0,0,0,.661-.661v-4.455a.662.662,0,0,0-.661-.661Z" transform="translate(-341.992 -687.602)" fill="#ff4f04"/>
    <path id="Path_1603" data-name="Path 1603" d="M706.364,703.1h-4.453a.66.66,0,0,0-.661.661v4.455a.66.66,0,0,0,.661.661h4.455a.66.66,0,0,0,.661-.661v-4.455a.665.665,0,0,0-.663-.661Z" transform="translate(-683.984 -687.602)" fill="#ff4f04"/>
  </g>
</svg>
