<svg xmlns="http://www.w3.org/2000/svg" width="24.537" height="24.537" viewBox="0 0 24.537 24.537">
  <path id="language" d="M15.969,28.237a11.974,11.974,0,0,1-4.8-.967,12.431,12.431,0,0,1-3.9-2.629A12.289,12.289,0,0,1,3.7,15.908,12.041,12.041,0,0,1,11.164,4.637a12.308,12.308,0,0,1,4.8-.937,12.308,12.308,0,0,1,4.8.937,12.343,12.343,0,0,1,6.512,16.091,12.178,12.178,0,0,1-2.614,3.913,12.431,12.431,0,0,1-3.9,2.629A11.974,11.974,0,0,1,15.969,28.237Zm4.744-16.771h4.5a9.722,9.722,0,0,0-2.72-3.46,10.4,10.4,0,0,0-3.989-1.949,13.37,13.37,0,0,1,1.284,2.4A19.1,19.1,0,0,1,20.713,11.466Zm-7.615,0h5.8a11.786,11.786,0,0,0-1.118-3.1,12.267,12.267,0,0,0-1.813-2.614,6.513,6.513,0,0,0-1.617,2.13A19.912,19.912,0,0,0,13.1,11.466Zm-6.98,7.192h4.775q-.091-.816-.106-1.466t-.015-1.284q0-.755.03-1.345t.121-1.315h-4.8a8.811,8.811,0,0,0-.287,1.3,10.59,10.59,0,0,0-.076,1.36,11.708,11.708,0,0,0,.076,1.405A8.518,8.518,0,0,0,6.117,18.658ZM13.4,25.88a12.813,12.813,0,0,1-1.284-2.448,19.162,19.162,0,0,1-.891-2.992h-4.5A10.315,10.315,0,0,0,9.351,23.8,13.545,13.545,0,0,0,13.4,25.88ZM6.722,11.466h4.533a17.525,17.525,0,0,1,.831-2.9A13.81,13.81,0,0,1,13.37,6.087,10.378,10.378,0,0,0,9.442,8.006,9.815,9.815,0,0,0,6.722,11.466Zm9.247,14.777a10.623,10.623,0,0,0,1.738-2.478,14.69,14.69,0,0,0,1.163-3.324H13.1a15.55,15.55,0,0,0,1.118,3.248A10.081,10.081,0,0,0,15.969,26.243Zm-3.2-7.585H19.2q.121-.937.151-1.526t.03-1.224q0-.6-.03-1.163t-.151-1.5H12.766q-.121.937-.151,1.5t-.03,1.163q0,.635.03,1.224T12.766,18.658Zm5.772,7.192a12.08,12.08,0,0,0,3.9-2.07,10.742,10.742,0,0,0,2.78-3.339H20.743a21.891,21.891,0,0,1-.922,2.961A12.813,12.813,0,0,1,18.537,25.85Zm2.478-7.192h4.8q.181-.725.272-1.345a9.78,9.78,0,0,0,.091-1.405,8.848,8.848,0,0,0-.091-1.36q-.091-.574-.272-1.3H21.045q.091,1.088.121,1.632t.03,1.027q0,.665-.045,1.254T21.015,18.658Z" transform="translate(-3.7 -3.7)" fill="#fff"/>
</svg>
