<svg xmlns="http://www.w3.org/2000/svg" width="752pt" height="752pt" version="1.1" viewBox="0 0 752 752">
    <path fill="var(--fill)"
        d="m295.49 269.84c1.0117 2.3711 1.5469 4.9219 1.5781 7.5-0.070312 5.2227-2.1172 10.227-5.7227 14.008-1.918 1.7461-4.1211 3.1445-6.5117 4.1445-2.3398 1.1055-4.9102 1.6445-7.4961 1.5781-5.2266-0.070312-10.23-2.1172-14.012-5.7227-3.6914-3.7227-5.7539-8.7656-5.7227-14.008 0.03125-2.5781 0.56641-5.1289 1.5781-7.5 1-2.3906 2.4023-4.5938 4.1445-6.5117 2.7734-2.7383 6.3008-4.5938 10.129-5.3281 3.8242-0.73828 7.7852-0.32812 11.379 1.1836 2.3906 1 4.5938 2.4023 6.5117 4.1445 1.7461 1.918 3.1445 4.1211 4.1445 6.5117zm179.17-12.234h-118.39c-7.0508 0-13.566 3.7617-17.09 9.8672-3.5234 6.1055-3.5234 13.629 0 19.73 3.5234 6.1055 10.039 9.8672 17.09 9.8672h118.39c7.0508 0 13.562-3.7617 17.09-9.8672 3.5234-6.1016 3.5234-13.625 0-19.73-3.5273-6.1055-10.039-9.8672-17.09-9.8672zm-189.83 100.24c-3.5938-1.5117-7.5547-1.9258-11.379-1.1875-3.8281 0.73828-7.3555 2.5938-10.129 5.332-1.8281 1.8516-3.2383 4.0703-4.1445 6.5117-1.0117 2.3711-1.5469 4.918-1.5781 7.4961-0.03125 5.2461 2.0312 10.289 5.7227 14.012 3.7812 3.6055 8.7852 5.6484 14.012 5.7227 2.5781-0.03125 5.125-0.56641 7.4961-1.5781 2.3906-1 4.5938-2.4023 6.5117-4.1445l2.3672-2.9609c0.75-1.0977 1.3477-2.293 1.7773-3.5508 0.70703-1.0938 1.2383-2.293 1.5781-3.5508 0.097657-1.3164 0.097657-2.6328 0-3.9492-0.070312-5.2227-2.1172-10.227-5.7227-14.008-1.918-1.7422-4.1211-3.1445-6.5117-4.1445zm189.83-1.5781h-118.39c-7.0508 0-13.566 3.7617-17.09 9.8672-3.5234 6.1055-3.5234 13.625 0 19.73 3.5234 6.1055 10.039 9.8672 17.09 9.8672h118.39c7.0508 0 13.562-3.7617 17.09-9.8672 3.5234-6.1055 3.5234-13.625 0-19.73-3.5273-6.1055-10.039-9.8672-17.09-9.8672zm-183.32 104.38c-1.918-1.7422-4.1211-3.1445-6.5117-4.1406-3.5938-1.5117-7.5547-1.9258-11.379-1.1875-3.8281 0.73828-7.3555 2.5898-10.129 5.3281-1.7969 1.8789-3.2031 4.0898-4.1445 6.5117-2.1094 4.7773-2.1094 10.223 0 15 0.94141 2.4219 2.3477 4.6328 4.1445 6.5117 3.7812 3.6055 8.7852 5.6484 14.012 5.7227 2.5781-0.03125 5.125-0.57031 7.4961-1.582 2.3906-0.99609 4.5938-2.3984 6.5117-4.1406 1.7969-1.8789 3.207-4.0898 4.1445-6.5117 2.1133-4.7773 2.1133-10.223 0-15-0.9375-2.4219-2.3477-4.6328-4.1445-6.5117zm183.32-5.7227h-118.39c-7.0508 0-13.566 3.7617-17.09 9.8672-3.5234 6.1055-3.5234 13.629 0 19.734 3.5234 6.1055 10.039 9.8672 17.09 9.8672h118.39c7.0508 0 13.562-3.7617 17.09-9.8672 3.5234-6.1055 3.5234-13.629 0-19.734-3.5273-6.1055-10.039-9.8672-17.09-9.8672zm98.664-217.05v276.25c0 15.699-6.2383 30.758-17.34 41.859-11.102 11.102-26.16 17.34-41.859 17.34h-276.25c-15.703 0-30.758-6.2383-41.859-17.34-11.102-11.102-17.34-26.16-17.34-41.859v-276.25c0-15.703 6.2383-30.758 17.34-41.859s26.156-17.34 41.859-17.34h276.25c15.699 0 30.758 6.2383 41.859 17.34 11.102 11.102 17.34 26.156 17.34 41.859zm-39.465 0c0-5.2344-2.082-10.254-5.7812-13.953-3.6992-3.7031-8.7188-5.7812-13.953-5.7812h-276.25c-5.2344 0-10.254 2.0781-13.953 5.7812-3.7031 3.6992-5.7812 8.7188-5.7812 13.953v276.25c0 5.2344 2.0781 10.254 5.7812 13.953 3.6992 3.6992 8.7188 5.7812 13.953 5.7812h276.25c5.2344 0 10.254-2.082 13.953-5.7812s5.7812-8.7188 5.7812-13.953z" />
</svg>