<svg xmlns="http://www.w3.org/2000/svg" width="24.106" height="18.285" viewBox="0 0 24.106 18.285">
  <g id="list_orange" transform="translate(0.001 -73.861)">
    <g id="_x31_0_21_" transform="translate(0 73.862)">
      <g id="Group_1923" data-name="Group 1923">
        <path id="Path_1604" data-name="Path 1604" d="M2.494,73.862a2.494,2.494,0,1,0,2.493,2.493,2.494,2.494,0,0,0-2.493-2.493Zm0,6.649A2.494,2.494,0,1,0,4.987,83,2.494,2.494,0,0,0,2.494,80.511Zm0,6.649a2.493,2.493,0,1,0,2.493,2.493A2.493,2.493,0,0,0,2.494,87.16Zm6.649-9.143h13.3a1.662,1.662,0,0,0,0-3.325H9.143a1.662,1.662,0,0,0,0,3.325Zm13.3,3.325H9.143a1.662,1.662,0,0,0,0,3.325h13.3a1.662,1.662,0,0,0,0-3.325Zm0,6.649H9.143a1.662,1.662,0,0,0,0,3.325h13.3a1.662,1.662,0,0,0,0-3.325Z" transform="translate(0 -73.862)" fill="#ff4f04"/>
      </g>
    </g>
  </g>
</svg>
