<svg xmlns="http://www.w3.org/2000/svg" width="33.75" height="30.001" viewBox="0 0 33.75 30.001">
  <path id="live_chat" d="M36.5,18.625H34.213a13.136,13.136,0,0,0-24.675,0H7.25A2.257,2.257,0,0,0,5,20.875v4.5a2.257,2.257,0,0,0,2.25,2.25h2.812a.783.783,0,0,0,.6-.3.727.727,0,0,0,.113-.675,11.326,11.326,0,0,1,0-7.05,11.63,11.63,0,0,1,22.163,0,11.326,11.326,0,0,1,0,7.05,11.557,11.557,0,0,1-11.062,8.1H16.25a2.625,2.625,0,0,0,0,5.25H20a2.609,2.609,0,0,0,2.625-2.625V36.212a13.061,13.061,0,0,0,11.588-8.587H36.5a2.257,2.257,0,0,0,2.25-2.25v-4.5A2.257,2.257,0,0,0,36.5,18.625Zm-27.413,7.5H7.25a.752.752,0,0,1-.75-.75v-4.5a.752.752,0,0,1,.75-.75H9.087a13.5,13.5,0,0,0,0,6Zm12.038,11.25A1.1,1.1,0,0,1,20,38.5H16.25a1.125,1.125,0,0,1,0-2.25h4.875Zm16.125-12a.752.752,0,0,1-.75.75H34.663a13.5,13.5,0,0,0,0-6H36.5a.752.752,0,0,1,.75.75Zm-6-2.25a9.375,9.375,0,1,0-18.75,0A9.222,9.222,0,0,0,14.75,29.2l-2.025,2.025A.751.751,0,0,0,13.25,32.5h8.625a9.378,9.378,0,0,0,9.375-9.375Zm-14.925,5.55A7.775,7.775,0,0,1,14,23.125,7.875,7.875,0,1,1,21.875,31H15.05l1.237-1.237A.807.807,0,0,0,16.325,28.675Zm4.8-5.55a.75.75,0,1,1,.75.75A.75.75,0,0,1,21.125,23.125Zm3.75,0a.75.75,0,1,1,.75.75.75.75,0,0,1-.75-.75Zm-7.5,0a.75.75,0,1,1,.75.75A.75.75,0,0,1,17.375,23.125Z" transform="translate(-5 -9.999)"/>
</svg>
