<svg xmlns="http://www.w3.org/2000/svg" width="21.257" height="25.282" viewBox="0 0 21.257 25.282">
  <g id="location" transform="translate(0.25 0.395)">
    <g id="Group_2161" data-name="Group 2161" transform="translate(0 0)">
      <g id="Group_2160" data-name="Group 2160">
        <path id="Path_8590" data-name="Path 8590" d="M57.169,3.039a10.379,10.379,0,0,0-17.718,7.339c0,5.608,5.3,10.273,8.151,12.779.4.348.736.649,1.01.9a1.788,1.788,0,0,0,2.434,0c.272-.254.614-.555,1.01-.9,2.849-2.506,8.151-7.17,8.151-12.779a10.312,10.312,0,0,0-3.039-7.34ZM51.107,22.079c-.4.356-.754.663-1.042.933a.347.347,0,0,1-.472,0c-.288-.269-.637-.573-1.042-.933-2.678-2.356-7.664-6.741-7.664-11.7a8.941,8.941,0,1,1,17.883,0C58.772,15.337,53.786,19.722,51.107,22.079Z" transform="translate(-39.451 0.002)" fill="#fff" stroke="#fff" stroke-width="0.5"/>
      </g>
    </g>
    <g id="Group_2163" data-name="Group 2163" transform="translate(5.735 5.365)">
      <g id="Group_2162" data-name="Group 2162">
        <path id="Path_8591" data-name="Path 8591" d="M165.215,112.938a4.645,4.645,0,1,0,4.645,4.645,4.645,4.645,0,0,0-4.645-4.645Zm0,7.829a3.184,3.184,0,1,1,3.184-3.184,3.184,3.184,0,0,1-3.184,3.184Z" transform="translate(-160.57 -112.938)" fill="#fff" stroke="#fff" stroke-width="0.5"/>
      </g>
    </g>
  </g>
</svg>
