<svg xmlns="http://www.w3.org/2000/svg" width="25.877" height="30.5" viewBox="0 0 25.877 30.5">
  <g id="location_2_" data-name="location (2)" transform="translate(-39.201 0.25)">
    <g id="Group_2161" data-name="Group 2161" transform="translate(39.451)">
      <g id="Group_2160" data-name="Group 2160" transform="translate(0)">
        <path id="Path_8590" data-name="Path 8590" d="M61.112,3.716a12.688,12.688,0,0,0-21.661,8.972c0,6.856,6.483,12.559,9.965,15.622.484.426.9.793,1.235,1.1a2.186,2.186,0,0,0,2.976,0c.333-.311.751-.679,1.235-1.1,3.483-3.064,9.965-8.766,9.965-15.622A12.606,12.606,0,0,0,61.112,3.716ZM53.7,26.992c-.495.435-.922.811-1.274,1.14a.424.424,0,0,1-.577,0c-.352-.329-.779-.7-1.274-1.14-3.274-2.88-9.369-8.241-9.369-14.3a10.931,10.931,0,0,1,21.862,0C63.071,18.75,56.976,24.111,53.7,26.992Z" transform="translate(-39.451)" fill="#fff" stroke="#fff" stroke-width="0.5"/>
      </g>
    </g>
    <g id="Group_2163" data-name="Group 2163" transform="translate(46.462 6.557)">
      <g id="Group_2162" data-name="Group 2162" transform="translate(0)">
        <path id="Path_8591" data-name="Path 8591" d="M166.248,112.938a5.678,5.678,0,1,0,5.678,5.678A5.684,5.684,0,0,0,166.248,112.938Zm0,9.571a3.893,3.893,0,1,1,3.893-3.893A3.9,3.9,0,0,1,166.248,122.509Z" transform="translate(-160.57 -112.938)" fill="#fff" stroke="#fff" stroke-width="0.5"/>
      </g>
    </g>
  </g>
</svg>
