<svg xmlns="http://www.w3.org/2000/svg" width="75.101" height="83" viewBox="0 0 75.101 83">
  <g id="my_profile" transform="translate(-2.5 -1.5)">
    <path id="Path_8428" data-name="Path 8428" d="M47.952,14.5H32.143C15.779,14.518,2.517,28.469,2.5,45.684a2.03,2.03,0,0,0,1.976,2.079H75.619A2.03,2.03,0,0,0,77.6,45.684C77.578,28.469,64.316,14.518,47.952,14.5ZM6.527,43.6c1.047-14.071,12.2-24.932,25.615-24.947h15.81C61.368,18.673,72.52,29.534,73.567,43.6Z" transform="translate(0 36.737)"/>
    <path id="Path_8429" data-name="Path 8429" d="M27.416,47.237c11.552,0,20.916-10.239,20.916-22.868S38.968,1.5,27.416,1.5,6.5,11.739,6.5,24.368,15.87,47.223,27.416,47.237Zm0-41.579c9.451,0,17.113,8.377,17.113,18.711s-7.662,18.71-17.113,18.71S10.3,34.7,10.3,24.368s7.666-18.7,17.113-18.711Z" transform="translate(12.632)"/>
  </g>
</svg>
