<svg xmlns="http://www.w3.org/2000/svg" width="68.556" height="82.992" viewBox="0 0 68.556 82.992">
  <g id="my_reward_points" transform="translate(-44.474 -0.007)">
    <path id="Path_8467" data-name="Path 8467" d="M160.357,80.428a1.2,1.2,0,0,0,1.408-.984,24.615,24.615,0,0,0,.444-4.664c0-12.763-9.811-23.146-21.871-23.146S118.467,62.017,118.467,74.78s9.811,23.146,21.871,23.146a21.7,21.7,0,0,0,19.445-12.54,1.3,1.3,0,0,0-.513-1.7,1.162,1.162,0,0,0-1.607.542A19.331,19.331,0,0,1,140.338,95.4c-10.744,0-19.485-9.25-19.485-20.621s8.741-20.621,19.485-20.621,19.485,9.25,19.485,20.621a21.942,21.942,0,0,1-.4,4.157A1.263,1.263,0,0,0,160.357,80.428Z" transform="translate(-61.585 -42.969)"/>
    <path id="Path_8468" data-name="Path 8468" d="M200.25,111.02a1.26,1.26,0,0,0-1.019-.86l-8.2-1.179-3.653-7.461a1.266,1.266,0,0,0-2.26,0l-3.653,7.461-8.2,1.179a1.272,1.272,0,0,0-.7,2.155l5.946,5.79-1.417,8.19a1.268,1.268,0,0,0,1.828,1.332l7.327-3.883,7.328,3.883A1.268,1.268,0,0,0,195.4,126.3l-1.417-8.19,5.946-5.79a1.264,1.264,0,0,0,.32-1.3Zm-8.5,5.739a1.265,1.265,0,0,0-.364,1.122l1.093,6.313L186.83,121.2a1.256,1.256,0,0,0-1.176,0l-5.649,2.994,1.093-6.313a1.265,1.265,0,0,0-.364-1.122l-4.584-4.464,6.324-.909a1.259,1.259,0,0,0,.951-.693l2.816-5.752,2.816,5.752a1.259,1.259,0,0,0,.951.693l6.324.909Z" transform="translate(-107.492 -84.74)"/>
    <path id="Path_8469" data-name="Path 8469" d="M112.877,72.5,100.992,51.849a30.685,30.685,0,0,0-37.09-48,1.219,1.219,0,1,0,1.18,2.133,28.325,28.325,0,1,1-4.48,3.1,1.218,1.218,0,1,0-1.566-1.866,30.771,30.771,0,0,0-2.5,44.67L53.17,57.734a1.217,1.217,0,1,0,2.106,1.22l3.06-5.316a30.569,30.569,0,0,0,13.026,6.929L60.875,78.788l-2.684-8.473a1.216,1.216,0,0,0-1.419-.822L48.113,71.4l4.33-7.523a1.217,1.217,0,1,0-2.106-1.22l-5.708,9.917a1.227,1.227,0,0,0,1.314,1.8l10.266-2.259L59.391,82.16a1.222,1.222,0,0,0,2.212.24L73.879,61.073a30.607,30.607,0,0,0,9.786-.006l7.373,12.809a1.217,1.217,0,1,0,2.106-1.22L86.176,60.55A30.57,30.57,0,0,0,99.193,53.6l10.2,17.719-8.658-1.9a1.216,1.216,0,0,0-1.419.822l-2.684,8.473-.649-1.128a1.217,1.217,0,1,0-2.106,1.22L95.9,82.327a1.222,1.222,0,0,0,2.212-.24L101.3,72.04l10.262,2.26a1.228,1.228,0,0,0,1.314-1.8Z"/>
  </g>
</svg>
