<svg xmlns="http://www.w3.org/2000/svg" width="83" height="83.003" viewBox="0 0 83 83.003">
  <path id="my_wallet" d="M80.23,45.9V29.05a4.086,4.086,0,0,0-1.383-3.06V15.217a4.15,4.15,0,0,0-4.15-4.15H65.323A17.824,17.824,0,0,0,43.665,5.834a17.956,17.956,0,0,0-29.832,5.233H8.3a8.327,8.327,0,0,0-8.3,8.3V74.7A8.308,8.308,0,0,0,8.3,83H76.08a4.15,4.15,0,0,0,4.15-4.15V61.994A4.15,4.15,0,0,0,83,58.1V49.8a4.15,4.15,0,0,0-2.77-3.9ZM76.08,15.217V24.9H68.927a18.067,18.067,0,0,0,.237-2.767,17.868,17.868,0,0,0-2.029-8.3H74.7A1.383,1.383,0,0,1,76.08,15.217ZM63.545,13.26A14.862,14.862,0,0,1,66.121,24.9H36.242a15.2,15.2,0,0,1,27.3-11.64ZM30.432,2.767A15.173,15.173,0,0,1,41.172,7.2a17.739,17.739,0,0,0-7.737,17.7H16.9A15.179,15.179,0,0,1,30.432,2.767ZM2.767,19.367A5.555,5.555,0,0,1,8.3,13.834h4.652A17.824,17.824,0,0,0,13.825,24.9H8.59a5.75,5.75,0,0,1-5.81-5.023,4.255,4.255,0,0,1-.014-.5ZM76.08,80.231H8.3A5.533,5.533,0,0,1,2.767,74.7V63.632h9.116a2.785,2.785,0,0,1,2.133,1l2.249,2.7A5.619,5.619,0,1,0,18.4,65.568L16.144,62.86a5.533,5.533,0,0,0-4.262-1.995H2.767V55.332H26.479a5.533,5.533,0,1,0,0-2.767H2.767V47.032h9.116a5.546,5.546,0,0,0,4.259-1.992L18.4,42.329a5.467,5.467,0,0,0,2.352.553,5.57,5.57,0,1,0-4.485-2.317l-2.245,2.7a2.789,2.789,0,0,1-2.137,1H2.767V25.453A8.773,8.773,0,0,0,8.59,27.666H76.08a1.383,1.383,0,0,1,1.383,1.383v16.6H70.547a8.3,8.3,0,1,0,0,16.6h6.916v16.6a1.383,1.383,0,0,1-1.383,1.382ZM20.749,67.782a2.767,2.767,0,1,1-2.767,2.767,2.767,2.767,0,0,1,2.767-2.767Zm8.3-13.833a2.767,2.767,0,1,1,2.767,2.767,2.767,2.767,0,0,1-2.767-2.767Zm-11.066-16.6a2.767,2.767,0,1,1,2.767,2.767A2.767,2.767,0,0,1,17.983,37.349ZM80.23,58.1a1.383,1.383,0,0,1-1.383,1.383h-8.3a5.533,5.533,0,0,1,0-11.066h8.3A1.383,1.383,0,0,1,80.23,49.8Z" transform="translate(0 0.003)"/>
</svg>
