<svg xmlns="http://www.w3.org/2000/svg" width="19.291" height="17.913" viewBox="0 0 19.291 17.913">
  <path id="Icon_ionic-ios-star" data-name="Icon ionic-ios-star" d="M20.809,9.576H14.475L12.55,3.831a.7.7,0,0,0-1.309,0L9.316,9.576H2.939a.691.691,0,0,0-.689.689.506.506,0,0,0,.013.116.662.662,0,0,0,.289.487l5.206,3.669-2,5.809A.691.691,0,0,0,6,21.121a.666.666,0,0,0,.388.168.844.844,0,0,0,.431-.155L11.9,17.512l5.081,3.621a.807.807,0,0,0,.431.155.619.619,0,0,0,.383-.168.683.683,0,0,0,.237-.775l-2-5.809,5.163-3.7.125-.108a.722.722,0,0,0,.224-.461A.729.729,0,0,0,20.809,9.576Z" transform="translate(-2.25 -3.375)" fill="#dc3a1a"/>
</svg>
