<svg xmlns="http://www.w3.org/2000/svg" width="90.323" height="90.314" viewBox="0 0 90.323 90.314">
  <g id="payment-method" transform="translate(0 -0.023)">
    <g id="Group_2185" data-name="Group 2185" transform="translate(26.947 67.736)">
      <g id="Group_2184" data-name="Group 2184">
        <path id="Path_8600" data-name="Path 8600" d="M156.243,385.276a1.843,1.843,0,0,0-.1-.332,1.8,1.8,0,0,0-.162-.3,1.719,1.719,0,0,0-.487-.487,1.741,1.741,0,0,0-.305-.162,1.657,1.657,0,0,0-.33-.1,1.735,1.735,0,0,0-.688,0,1.712,1.712,0,0,0-.332.1,1.79,1.79,0,0,0-.3.162,1.763,1.763,0,0,0-.649.79,1.7,1.7,0,0,0-.1.332,1.7,1.7,0,0,0,0,.688,1.655,1.655,0,0,0,.1.33,1.631,1.631,0,0,0,.162.305,1.714,1.714,0,0,0,.487.487,1.786,1.786,0,0,0,.3.163,1.716,1.716,0,0,0,.332.1,1.7,1.7,0,0,0,.688,0,1.661,1.661,0,0,0,.33-.1,1.748,1.748,0,0,0,.305-.163,1.714,1.714,0,0,0,.487-.487,1.745,1.745,0,0,0,.162-.305,1.787,1.787,0,0,0,.1-.33,1.694,1.694,0,0,0,0-.688Z" transform="translate(-152.75 -383.857)"/>
      </g>
    </g>
    <g id="Group_2187" data-name="Group 2187" transform="translate(0 54.693)">
      <g id="Group_2186" data-name="Group 2186">
        <path id="Path_8601" data-name="Path 8601" d="M81.148,324.928l-.021-.052c-1.624-3.8-5.432-5.2-9.938-3.664l-12.29,3.4a8.057,8.057,0,0,0-4.989-4.913l-.047-.017-13.51-4.585a13.934,13.934,0,0,0-11.241-5.172c-4.609,0-8.686,3.162-11.018,6.608H1.764A1.764,1.764,0,0,0,0,318.294v22.241A1.764,1.764,0,0,0,1.764,342.3H12.253a1.764,1.764,0,0,0,1.764-1.764v-1.523h4.919a1.764,1.764,0,0,0,1.764-1.764v-.508c2.867.25,3.81.794,6.444,2.313a106.786,106.786,0,0,0,10.6,5.411l.077.033a15.834,15.834,0,0,0,5.676,1.07,14.062,14.062,0,0,0,5.845-1.251l27.166-9.727c.048-.017.1-.037.143-.058C79.245,333.336,83.114,329.97,81.148,324.928ZM10.489,338.771H3.528V320.058h6.961Zm6.683-3.287H14.017V320.058h3.155Zm58.067-4.189-27.154,9.722-.08.031-.071.031a11.434,11.434,0,0,1-8.785.15A102.19,102.19,0,0,1,28.907,336c-2.887-1.665-4.278-2.467-8.206-2.791V319c1.672-2.741,4.915-5.546,8.411-5.546,6,0,8.536,3.9,8.636,4.057a1.765,1.765,0,0,0,.936.747l14.02,4.758c2.239.84,3.423,2.758,2.879,4.67a3.437,3.437,0,0,1-4.223,2.373l-15.805-5.009a1.764,1.764,0,1,0-1.066,3.363l15.833,5.017.05.015a7,7,0,0,0,1.915.269,6.975,6.975,0,0,0,6.69-5.064q.061-.214.108-.429l13.246-3.669c1.913-.653,4.424-.889,5.542,1.686C79.028,329.259,76.021,330.922,75.239,331.295Z" transform="translate(0 -309.922)"/>
      </g>
    </g>
    <g id="Group_2189" data-name="Group 2189" transform="translate(59.848 21.806)">
      <g id="Group_2188" data-name="Group 2188">
        <path id="Path_8602" data-name="Path 8602" d="M342.745,124.917a1.713,1.713,0,0,0-.1-.332,1.789,1.789,0,0,0-.381-.572,1.69,1.69,0,0,0-.268-.219,1.789,1.789,0,0,0-.3-.162,1.757,1.757,0,0,0-1.02-.1,1.655,1.655,0,0,0-.33.1,1.738,1.738,0,0,0-.305.162,1.713,1.713,0,0,0-.487.487,1.789,1.789,0,0,0-.162.3,1.71,1.71,0,0,0-.1.332,1.7,1.7,0,0,0,0,.688,1.659,1.659,0,0,0,.1.33,1.742,1.742,0,0,0,.162.305,1.713,1.713,0,0,0,.487.487,1.738,1.738,0,0,0,.305.162,1.778,1.778,0,0,0,.33.1,1.739,1.739,0,0,0,.344.035,1.771,1.771,0,0,0,.346-.035,1.864,1.864,0,0,0,.33-.1,1.789,1.789,0,0,0,.3-.162,1.716,1.716,0,0,0,.487-.487,1.63,1.63,0,0,0,.162-.305,1.662,1.662,0,0,0,.1-.33,1.781,1.781,0,0,0,0-.688Z" transform="translate(-339.25 -123.498)"/>
      </g>
    </g>
    <g id="Group_2191" data-name="Group 2191" transform="translate(5.238 0.023)">
      <g id="Group_2190" data-name="Group 2190">
        <path id="Path_8603" data-name="Path 8603" d="M113.011,6H102.523a1.764,1.764,0,0,0-1.764,1.764V9.285H95.84a1.764,1.764,0,0,0-1.764,1.764v.508c-2.867-.25-3.81-.794-6.444-2.313a106.744,106.744,0,0,0-10.6-5.411L76.956,3.8a15.008,15.008,0,0,0-11.519.181l-7.1,2.542L52.354.54a1.764,1.764,0,0,0-2.495,0L30.214,20.185a1.75,1.75,0,0,0,0,2.495L63.783,56.248a1.906,1.906,0,0,0,2.495,0L84.213,38.314c.466.04.95.062,1.452.062,4.609,0,8.686-3.162,11.018-6.608h16.329A1.764,1.764,0,0,0,114.776,30V7.762A1.764,1.764,0,0,0,113.011,6ZM51.106,4.282,55.127,8.3a7.691,7.691,0,0,1-8.042,0ZM37.977,25.453l-4.021-4.021,4.021-4.021a7.691,7.691,0,0,1,0,8.042ZM65.03,52.506l-4.02-4.02a7.681,7.681,0,0,1,8.04,0Zm6.562-6.561a11.211,11.211,0,0,0-13.123,0l-17.95-17.95a11.211,11.211,0,0,0,0-13.125l4.025-4.025a11.211,11.211,0,0,0,13.125,0l3.816,3.816a6.992,6.992,0,0,0-5.249,3.846A10.055,10.055,0,1,0,67.8,30.953l5.956,2.021a11.263,11.263,0,0,0,1.869,8.941ZM60.867,28.6l.047.017,3.528,1.2a6.528,6.528,0,1,1-8.86-7.456A7.81,7.81,0,0,0,60.867,28.6Zm17.3,10.773a7.716,7.716,0,0,1-1.127-3.669,13.717,13.717,0,0,0,3.111,1.685ZM94.075,29.3c-1.672,2.741-4.915,5.547-8.411,5.547a12.839,12.839,0,0,1-1.84-.129h-.007a10.1,10.1,0,0,1-6.535-3.576c-.036-.053-.189-.254-.212-.287a1.758,1.758,0,0,0-.972-.808l-14.026-4.76c-2.238-.84-3.422-2.757-2.879-4.668v-.008a3.437,3.437,0,0,1,4.222-2.366L79.222,23.25a1.764,1.764,0,0,0,1.066-3.363L67.718,15.9l-.11-.11,0,0L61.1,9.283l5.594-2,.061-.023.019-.007.071-.031a11.433,11.433,0,0,1,8.785-.15A102.187,102.187,0,0,1,85.869,12.3c2.887,1.665,4.278,2.467,8.206,2.791Zm6.683-1.061H97.6V12.813h3.155Zm10.489,0h-6.961V9.526h6.961Z" transform="translate(-29.691 -0.023)"/>
      </g>
    </g>
  </g>
</svg>
