<svg xmlns="http://www.w3.org/2000/svg" width="36.003" height="36.001" viewBox="0 0 36.003 36.001">
  <g id="payment_initial" transform="translate(0 0.001)">
    <g id="Group_2158" data-name="Group 2158" transform="translate(0.003)">
      <g id="Group_2157" data-name="Group 2157">
        <path id="Path_8587" data-name="Path 8587" d="M33.7,29.455H27.944a6.545,6.545,0,0,1,0-13.091H33.7a.82.82,0,0,0,.822-.818V13.091A3.272,3.272,0,0,0,31.5,9.845l-4.72-8.207a3.26,3.26,0,0,0-4.462-1.2L6.132,9.819H3.29A3.283,3.283,0,0,0,0,13.091V32.728A3.283,3.283,0,0,0,3.29,36H31.231a3.283,3.283,0,0,0,3.287-3.273V30.273a.82.82,0,0,0-.818-.818ZM27.792,6.7l1.791,3.114H22.42ZM9.4,9.819,23.14,1.855a1.611,1.611,0,0,1,2.208.6h0l-12.7,7.364Z" transform="translate(-0.003)" fill="#c8c8c8"/>
        <path id="Path_8588" data-name="Path 8588" d="M308.32,234.674h-5.2a4.454,4.454,0,1,0,0,8.908h5.2a2.229,2.229,0,0,0,2.227-2.227V236.9a2.229,2.229,0,0,0-2.227-2.226Zm-5.2,5.939a1.485,1.485,0,1,1,1.485-1.485,1.485,1.485,0,0,1-1.485,1.485Z" transform="translate(-274.547 -216.048)" fill="#c8c8c8"/>
      </g>
    </g>
  </g>
</svg>
