<svg xmlns="http://www.w3.org/2000/svg" width="19.904" height="18.998" viewBox="0 0 19.904 18.998">
  <g id="rating_star" transform="translate(-1254.215 -646.99)">
    <path id="Path_1560" data-name="Path 1560" d="M.267.426,4.143-4.083,7.071.426,8.89,1.3s1.329.009,2.61,0c.353-.039.761-.576.87.633C12.485,3.183,9.475,4.1,8.89,6.2c-.641,2.307.554,5.775.554,5.775S6.734,9.76,4.143,9.76s-5.774,2.69-5.774,2.69L-.6,6.2-4.08,1.928Z" transform="translate(1260.119 652.913)" fill="#ff9e30"/>
    <g id="Group_1862" data-name="Group 1862" transform="translate(1254.216 647)">
      <path id="Path_1559" data-name="Path 1559" d="M19.874,19a.583.583,0,0,0-.471-.4l-6.17-.9-2.759-5.591a.583.583,0,0,0-1.046,0l-2.759,5.6-6.17.9a.583.583,0,0,0-.323,1L4.64,23.953,3.587,30.1a.583.583,0,0,0,.846.615l5.518-2.9,5.518,2.9a.583.583,0,0,0,.846-.615l-1.054-6.145L19.726,19.6a.583.583,0,0,0,.148-.6Zm-5.646,4.328a.583.583,0,0,0-.168.516l.906,5.283-4.744-2.494a.583.583,0,0,0-.543,0l-4.743,2.5.906-5.283a.583.583,0,0,0-.168-.516L1.836,19.59l5.3-.771a.583.583,0,0,0,.439-.319l2.372-4.806L12.323,18.5a.583.583,0,0,0,.439.319l5.3.771Z" transform="translate(0 -11.794)" fill="#ff9e30"/>
    </g>
  </g>
</svg>
