<svg xmlns="http://www.w3.org/2000/svg" width="96" height="93.858" viewBox="0 0 96 93.858">
  <path id="return-box_1_" data-name="return-box (1)" d="M95.906,73.21a20.82,20.82,0,0,0-8.1-14.4,26.209,26.209,0,0,0-6.115-3.539V29.924a1.5,1.5,0,0,0-.75-1.3L41.594,5.91a1.5,1.5,0,0,0-1.5,0L.751,28.625a1.5,1.5,0,0,0-.75,1.3V75.353a1.5,1.5,0,0,0,.75,1.3L40.094,99.367a1.5,1.5,0,0,0,1.5,0L80.937,76.652a1.5,1.5,0,0,0,.655-.782,10.841,10.841,0,0,1,2.067,4.36c1.237,5.763-2.49,11.367-9.728,14.623a1.5,1.5,0,0,0,.9,2.84c6.944-1.363,12.627-4.593,16.435-9.342A20.9,20.9,0,0,0,95.906,73.21Zm-55.062-22.3L29.877,44.575,66.22,23.592l10.967,6.332ZM18.468,37.988,54.81,17l8.41,4.855L26.877,42.843Zm6.91,7.453V59.866l-8.409-4.855V40.586Zm15.467-36.5,10.967,6.332L15.468,36.255,4.5,29.924ZM3,32.522l10.967,6.332V55.877a1.5,1.5,0,0,0,.75,1.3l11.409,6.587a1.5,1.5,0,0,0,2.25-1.3V47.173L39.344,53.5V95.47L3,74.487ZM42.344,95.47V53.5L78.687,32.522V54.2A39.8,39.8,0,0,0,68.424,52.6V47.752a1.5,1.5,0,0,0-2.463-1.15L48.62,61.116a1.5,1.5,0,0,0,.076,2.36L66.037,76.2a1.5,1.5,0,0,0,2.387-1.209V69.946a19.838,19.838,0,0,1,10.162,3.123c.034.023.067.048.1.072v1.347ZM83.8,91.061a16.155,16.155,0,0,0,1.017-1.492A13.545,13.545,0,0,0,86.592,79.6a14.78,14.78,0,0,0-6.316-9.012,23.58,23.58,0,0,0-13.351-3.684,1.5,1.5,0,0,0-1.5,1.5v3.622l-13.412-9.84L65.424,50.963V54.08a1.5,1.5,0,0,0,1.5,1.5c17.9,0,25.192,9.654,26,17.92.589,6.058-2.17,13.116-9.119,17.561Z" transform="translate(-0.001 -5.709)"/>
</svg>
