<svg xmlns="http://www.w3.org/2000/svg" width="12.159" height="13.97" viewBox="0 0 12.159 13.97">
  <path id="share" d="M9.872,9.4a2.281,2.281,0,0,0-1.691.749L4.416,7.815a2.278,2.278,0,0,0,0-1.658L8.181,3.825a2.286,2.286,0,1,0-.439-.708L3.977,5.448a2.287,2.287,0,1,0,0,3.075l3.765,2.332A2.286,2.286,0,1,0,9.872,9.4ZM8.419,2.287A1.453,1.453,0,1,1,9.872,3.74,1.454,1.454,0,0,1,8.419,2.287ZM2.286,8.438A1.453,1.453,0,1,1,3.739,6.986,1.455,1.455,0,0,1,2.286,8.438Zm6.133,3.246a1.453,1.453,0,1,1,1.453,1.453A1.454,1.454,0,0,1,8.419,11.684Zm0,0" transform="translate(0 -0.001)"/>
</svg>
