<svg xmlns="http://www.w3.org/2000/svg" width="41.2" height="28.2" viewBox="0 0 41.2 28.2">
  <path id="local_shipping_FILL0_wght200_GRAD0_opsz48" d="M11,38.2a4.968,4.968,0,0,1-3.65-1.5A5.027,5.027,0,0,1,5.85,33H3.4V12.75A2.732,2.732,0,0,1,6.15,10h26.9v7.4H37.3l7.3,9.75V33h-3a4.985,4.985,0,0,1-1.525,3.7A5.051,5.051,0,0,1,36.4,38.2a4.968,4.968,0,0,1-3.65-1.5,5.027,5.027,0,0,1-1.5-3.7H16.2a4.985,4.985,0,0,1-1.525,3.7A5.051,5.051,0,0,1,11,38.2Zm.05-1.5a3.67,3.67,0,0,0,3.65-3.65,3.489,3.489,0,0,0-1.075-2.6A3.555,3.555,0,0,0,11.05,29.4a3.659,3.659,0,0,0-2.6,6.225A3.489,3.489,0,0,0,11.05,36.7ZM4.9,31.45H6A4.62,4.62,0,0,1,7.825,28.9a5.288,5.288,0,0,1,6.325,0A4.587,4.587,0,0,1,16,31.45H31.55V11.55H6.15a1.23,1.23,0,0,0-.85.375,1.116,1.116,0,0,0-.4.825ZM36.4,36.7A3.489,3.489,0,0,0,39,35.625a3.659,3.659,0,0,0-5.175-5.175A3.663,3.663,0,0,0,36.4,36.7Zm-3.35-9.35h9.8l-6.4-8.4h-3.4Zm-14.8-5.6Z" transform="translate(-3.4 -10)" fill="#818181"/>
</svg>
