<svg xmlns="http://www.w3.org/2000/svg" width="31.641" height="36.001" viewBox="0 0 31.641 36.001">
  <g id="signin_inprogress" transform="translate(-31)">
    <g id="Group_2076" data-name="Group 2076" transform="translate(37.614)">
      <g id="Group_2075" data-name="Group 2075">
        <path id="Path_8537" data-name="Path 8537" d="M130.206,0a9.206,9.206,0,1,0,9.206,9.206A9.206,9.206,0,0,0,130.206,0Z" transform="translate(-121)" fill="#dc3a1a"/>
      </g>
    </g>
    <g id="Group_2078" data-name="Group 2078" transform="translate(31 21.543)">
      <g id="Group_2077" data-name="Group 2077">
        <path id="Path_8538" data-name="Path 8538" d="M58.63,303.969A13.742,13.742,0,0,0,48.93,300H44.711a13.742,13.742,0,0,0-9.7,3.969A13.213,13.213,0,0,0,31,313.435a1.039,1.039,0,0,0,1.055,1.023H61.586a1.039,1.039,0,0,0,1.055-1.023,13.213,13.213,0,0,0-4.011-9.466Z" transform="translate(-31 -300)" fill="#dc3a1a"/>
      </g>
    </g>
  </g>
</svg>
