<svg xmlns="http://www.w3.org/2000/svg" width="30.05" height="30" viewBox="0 0 30.05 30">
  <g id="wrench_2_" data-name="wrench (2)" transform="translate(0 -0.422)">
    <path id="Path_8899" data-name="Path 8899" d="M28.516,21.231a5.291,5.291,0,0,0-5.633-1.171l-.845-.844a1.836,1.836,0,0,0,.193-.167l2.11-2.1a1.833,1.833,0,0,0,0-2.591h0a1.833,1.833,0,0,0-1.4-.533,2.072,2.072,0,0,0,.019-.28,2.028,2.028,0,0,0-1.938-2.027,2.027,2.027,0,0,0-2.162-2.658,2.082,2.082,0,0,0,.014-.234,2.014,2.014,0,0,0-.594-1.436,2.039,2.039,0,0,0-2.875,0L14.057,8.531l-.1-.1a1.3,1.3,0,0,0-1.832,0l-.447.446-1.3-1.3A5.24,5.24,0,0,0,4.5.515C4.25.561,3.5.7,3.35,1.273s.383,1.017.639,1.237C4.015,2.533,6.094,4.6,6.094,4.6a1.474,1.474,0,0,1,.088,1.987A1.484,1.484,0,0,1,4.188,6.5S2.113,4.428,2.09,4.4c-.221-.256-.68-.787-1.239-.637s-.712.9-.758,1.143A5.243,5.243,0,0,0,7.166,10.77l1.51,1.506A3.641,3.641,0,0,0,8.437,13.8c.072,1.181-.554,2.339-2.093,3.873l-1.6,1.6a1.447,1.447,0,0,0-1.68.261L.815,21.777a1.442,1.442,0,0,0,0,2.038L7.015,30a1.447,1.447,0,0,0,2.04,0l2.245-2.24a1.444,1.444,0,0,0,.263-1.678l2.727-2.721c.808-.806.94-.785,1.8-.642.144.024.307.051.491.078a3.806,3.806,0,0,0,2.108-.535l1,.993a5.3,5.3,0,0,0-.354,2.139.44.44,0,0,0,.439.422h.019a.44.44,0,0,0,.421-.458,4.4,4.4,0,0,1,.4-2.019.44.44,0,0,0-.089-.5l-7.043-7.029a3.859,3.859,0,0,0,.466-1.678,4.826,4.826,0,0,0,1.826.966,3.2,3.2,0,0,0,1.482.074s0,.01,0,.015a2.028,2.028,0,0,0,1.937,2.025,1.843,1.843,0,0,0-.079.537,1.829,1.829,0,0,0,1.833,1.831,1.842,1.842,0,0,0,.214-.013l1.323,1.32a.44.44,0,0,0,.494.089,4.406,4.406,0,0,1,4.929.874,4.359,4.359,0,0,1,1.2,3.9,1.509,1.509,0,0,1-.13.425,1.893,1.893,0,0,1-.337-.331c-.038-.044-2.142-2.148-2.142-2.148a2.367,2.367,0,0,0-3.217-.109.452.452,0,0,0-.042.042,2.357,2.357,0,0,0,.109,3.213l2.483,2.472a1.524,1.524,0,0,1-.426.129,4.36,4.36,0,0,1-4.712-2.291.44.44,0,1,0-.783.4,5.233,5.233,0,0,0,4.671,2.847,5.325,5.325,0,0,0,.987-.092c.245-.046.992-.187,1.146-.758s-.383-1.017-.639-1.237c-.026-.022-2.105-2.093-2.105-2.093a1.351,1.351,0,1,1,1.906-1.9s2.075,2.075,2.1,2.1c.221.256.681.787,1.239.637s.712-.9.758-1.143a5.238,5.238,0,0,0-1.441-4.69Zm-8.6-11.173a1.154,1.154,0,0,1,.016,1.61L18.513,13.08c-.243-.352-1.579-1.678-1.579-1.678l1.347-1.344A1.157,1.157,0,0,1,19.912,10.058ZM16.027,7.809a1.157,1.157,0,0,1,1.632,0,1.152,1.152,0,0,1,0,1.625L16.31,10.78,14.68,9.153ZM7.578,9.938a.44.44,0,0,0-.494-.089,4.406,4.406,0,0,1-4.929-.874,4.359,4.359,0,0,1-1.2-3.9,1.509,1.509,0,0,1,.13-.425,1.893,1.893,0,0,1,.337.331c.038.044,2.142,2.148,2.142,2.148a2.367,2.367,0,0,0,3.217.109.452.452,0,0,0,.042-.042A2.357,2.357,0,0,0,6.716,3.98S4.275,1.572,4.233,1.509a1.524,1.524,0,0,1,.426-.129A4.36,4.36,0,0,1,9.448,7.491a.44.44,0,0,0,.089.5L11.05,9.5,9.41,11.134a3.088,3.088,0,0,0-.292.34Zm10.26,3.816a2.041,2.041,0,0,0-.295.373c-.938.581-2.42-.059-3.158-.77l-.091-.091L13.227,12.2l0,0,0-.005-.007-.006a.44.44,0,0,0-.624.62l.009.009a1.668,1.668,0,0,1,.459,1.214,3.4,3.4,0,0,1-1.064,2.3.44.44,0,0,0,.622.623,5.007,5.007,0,0,0,.356-.4l5.057,5.047a2.656,2.656,0,0,1-1.327.318c-.174-.025-.332-.051-.471-.074a2.3,2.3,0,0,0-2.563.887L10.99,25.413,8.776,23.2a.44.44,0,1,0-.622.623l2.524,2.518h0a.562.562,0,0,1,0,.792l-2.245,2.24a.565.565,0,0,1-.8,0l-6.2-6.186a.562.562,0,0,1,0-.792l2.245-2.24a.565.565,0,0,1,.8,0L6.7,22.375a.44.44,0,1,0,.622-.623l-1.908-1.9L6.965,18.3c1.736-1.73,2.439-3.091,2.35-4.55a2.655,2.655,0,0,1,.715-1.993l2.711-2.7a.422.422,0,0,1,.589,0l.415.414,2.869,2.862.231.229a7.25,7.25,0,0,1,1.033,1.158Zm1.438,2.585a1.149,1.149,0,0,1-.816-1.962l1.653-1.649a1.157,1.157,0,0,1,1.632,0h0a1.15,1.15,0,0,1,0,1.625h0L20.091,16a1.144,1.144,0,0,1-.815.336Zm.982,2.088a.953.953,0,0,1,0-1.345l2.108-2.1a.959.959,0,0,1,1.352,0h0a.953.953,0,0,1,0,1.345l-2.11,2.1a.958.958,0,0,1-1.351,0Z" fill="#818181"/>
  </g>
</svg>
