<?xml version="1.0" standalone="yes"?>
<svg xmlns="http://www.w3.org/2000/svg" width="225" height="225">
<path style="fill:#fbfbfb; stroke:none;" d="M0 0L0 225L225 225L225 0L0 0z"/>
<path style="fill:#000000; stroke:none;" d="M11 35L12 36L11 35z"/>
<path style="fill:#000000; stroke:none;" d="M12 35L13 36L12 35z"/>
<path style="fill:#ffffff; stroke:none;" d="M13 35L13 36L20 36L13 35z"/>
<path style="fill:#000000; stroke:none;" d="M20 35L21 36L20 35z"/>
<path style="fill:#ffffff; stroke:none;" d="M21 35L21 36L32 36L21 35z"/>
<path style="fill:#000000; stroke:none;" d="M32 35L33 36L32 35z"/>
<path style="fill:#ffffff; stroke:none;" d="M33 35L33 36L95 36L75 35L33 35z"/>
<path style="fill:#000000; stroke:none;" d="M95 35L96 36L95 35z"/>
<path style="fill:#ffffff; stroke:none;" d="M96 35L96 36L128 36L96 35z"/>
<path style="fill:#000000; stroke:none;" d="M128.667 35.3333L129.333 35.6667L128.667 35.3333z"/>
<path style="fill:#ffffff; stroke:none;" d="M130 35L130 36L152 36L130 35z"/>
<path style="fill:#000000; stroke:none;" d="M152.667 35.3333L153.333 35.6667L152.667 35.3333z"/>
<path style="fill:#ffffff; stroke:none;" d="M154 35L154 36L175 36L154 35z"/>
<path style="fill:#000000; stroke:none;" d="M175 35L176 36L175 35z"/>
<path style="fill:#ffffff; stroke:none;" d="M176 35L176 36L200 36L176 35z"/>
<path style="fill:#000000; stroke:none;" d="M200 35L201 36L200 35z"/>
<path style="fill:#ffffff; stroke:none;" d="M201 35L201 36L211 36L201 35z"/>
<path style="fill:#000000; stroke:none;" d="M211 35L212 36L211 35z"/>
<path style="fill:#000000; stroke:none;" d="M212.667 35.3333L213.333 35.6667L212.667 35.3333M9 36L8 38L9 36z"/>
<path style="fill:#000000; stroke:none;" d="M10 36L8 39L10 36z"/>
<path style="fill:#ffffff; stroke:none;" d="M11 36L12 37L11 36z"/>
<path style="fill:#000000; stroke:none;" d="M69 162L56.787 181.972L43 183L43 189L182 189L182 183L168.213 181.972L156 162C169.383 158.814 185.271 161 199 161C203.472 161 211.705 162.503 215.262 159.142C220.394 154.293 218 140.36 218 134L218 65C218 58.226 220.971 42.2204 214.852 37.7423C210.96 34.8939 204.536 36 200 36L163 36L63 36C47.4423 36 29.2891 33.3909 14.0046 36.2284C3.77931 38.1266 7 55.4839 7 63L7 133C7 139.743 4.44601 153.305 9.51389 158.566C13.2648 162.46 21.114 161 26 161C39.7292 161 55.6169 158.814 69 162z"/>
<path style="fill:#ffffff; stroke:none;" d="M213 36L214 37L213 36z"/>
<path style="fill:#000000; stroke:none;" d="M214 36L215 37L214 36z"/>
<path style="fill:#000000; stroke:none;" d="M215 36L217 40L218 40L215 36z"/>
<path style="fill:#ffffff; stroke:none;" d="M215 37L216 38L215 37z"/>
<path style="fill:#000000; stroke:none;" d="M216 38L217 39L216 38z"/>
<path style="fill:#ffffff; stroke:none;" d="M7 40L7 43L8 43L7 40M209 41L210 42L209 41z"/>
<path style="fill:#000000; stroke:none;" d="M14 42L14 124C14 130.598 10.8731 148.151 15.0278 153.397C17.2439 156.195 23.8582 155.037 26.9853 154.975C38.6512 154.745 50.329 155 62 155L159 155C175.864 155 194.404 157.081 211 154L211 42L14 42z"/>
<path style="fill:#000000; stroke:none;" d="M47 45L48 46L47 45M56 45L57 46L56 45M80.6667 45.3333L81.3333 45.6667L80.6667 45.3333M130 45L131 46L130 45M180 45L181 46L180 45M18 46L17 56L18 56L18 46z"/>
<path style="fill:#ffffff; stroke:none;" d="M19 46L20 47L19 46z"/>
<path style="fill:#000000; stroke:none;" d="M20.3179 47.0278C15.5962 50.1786 18 63.9842 18 69L18 129C18 133.88 15.7046 146.743 20.3179 149.821C28.1141 155.023 49.7077 151 59 151L163 151L192 151C195.72 151 201.42 151.998 204.682 149.821C209.295 146.743 207 133.88 207 129L207 69C207 63.9842 209.404 50.1786 204.682 47.0278C201.713 45.0464 196.389 46 193 46L163 46L59 46L32 46C28.6106 46 23.2871 45.0464 20.3179 47.0278z"/>
<path style="fill:#ffffff; stroke:none;" d="M205 46L206 47L205 46z"/>
<path style="fill:#000000; stroke:none;" d="M206 47L207 48L206 47M207 48L207 51L208 51L207 48z"/>
<path style="fill:#ffffff; stroke:none;" d="M200 51L201 52L200 51z"/>
<path style="fill:#000000; stroke:none;" d="M25 52L25 53L29 53L25 52z"/>
<path style="fill:#ffffff; stroke:none;" d="M29 52L30 53L29 52z"/>
<path style="fill:#000000; stroke:none;" d="M30 52L30 53L128 53L98 52L30 52z"/>
<path style="fill:#ffffff; stroke:none;" d="M128 52L129 53L128 52z"/>
<path style="fill:#000000; stroke:none;" d="M129 52L129 53L152 53L129 52z"/>
<path style="fill:#ffffff; stroke:none;" d="M152 52L153 53L152 52z"/>
<path style="fill:#000000; stroke:none;" d="M153 52L153 53L201 54L188 52L153 52z"/>
<path style="fill:#000000; stroke:none;" d="M24 53L24 70L25 70L24 53z"/>
<path style="fill:#fbfbfb; stroke:none;" d="M25 53L25 144L200 144L200 53L25 53z"/>
<path style="fill:#000000; stroke:none;" d="M200 54L200 72L201 72L200 54z"/>
<path style="fill:#000000; stroke:none;" d="M207 55L207 61L208 61L207 55M17 57L17 80L18 80L17 57M207 64L207 72L208 72L207 64z"/>
<path style="fill:#000000; stroke:none;" d="M109 66L109 67L112 67L109 66M101 67L101 68L104 68L101 67z"/>
<path style="fill:#000000; stroke:none;" d="M104 67L104 68L107 68L104 67z"/>
<path style="fill:#ffffff; stroke:none;" d="M107 67L107 68L117 68L107 67z"/>
<path style="fill:#000000; stroke:none;" d="M117 67L117 68L120 68L117 67z"/>
<path style="fill:#000000; stroke:none;" d="M120 67L120 68L124 68L120 67M97 68L97 69L100 69L97 68z"/>
<path style="fill:#000000; stroke:none;" d="M100 68L101 69L100 68z"/>
<path style="fill:#ffffff; stroke:none;" d="M101 68L102 69L101 68z"/>
<path style="fill:#000000; stroke:none;" d="M72 87C78.4535 88.327 80.9013 84.2264 86 81.0463C92.4656 77.0136 100.333 73.6528 108 73.0903C117.5 72.3932 126.631 74.4251 135 78.9236C140.912 82.1012 145.92 88.8629 153 87C150.378 79.3532 141.253 74.4662 134 71.7068C115.623 64.7152 81.4596 65.9654 72 87z"/>
<path style="fill:#ffffff; stroke:none;" d="M123 68L124 69L123 68z"/>
<path style="fill:#000000; stroke:none;" d="M124 68L125 69L124 68z"/>
<path style="fill:#000000; stroke:none;" d="M125 68L125 69L134 71L134 70L125 68M94.6667 69.3333L95.3333 69.6667L94.6667 69.3333z"/>
<path style="fill:#ffffff; stroke:none;" d="M96.6667 69.3333L97.3333 69.6667L96.6667 69.3333M127 69L128 70L127 69z"/>
<path style="fill:#000000; stroke:none;" d="M24 70L24 74L25 74L24 70z"/>
<path style="fill:#000000; stroke:none;" d="M89 71L89 72L93 71L89 71z"/>
<path style="fill:#000000; stroke:none;" d="M93 70L94 71L93 70z"/>
<path style="fill:#ffffff; stroke:none;" d="M94 70L95 71L94 70M130 70L131 71L130 70z"/>
<path style="fill:#000000; stroke:none;" d="M131 70L132 71L131 70M91 71L92 72L91 71z"/>
<path style="fill:#ffffff; stroke:none;" d="M92 71L93 72L92 71M133 71L134 72L133 71z"/>
<path style="fill:#000000; stroke:none;" d="M134 71L135 72L134 71z"/>
<path style="fill:#000000; stroke:none;" d="M135 71L136 72L135 71M87 72L88 73L87 72z"/>
<path style="fill:#000000; stroke:none;" d="M88 72L89 73L88 72z"/>
<path style="fill:#ffffff; stroke:none;" d="M89 72L90 73L89 72M136 72L137 73L136 72z"/>
<path style="fill:#000000; stroke:none;" d="M137 72L138 73L137 72z"/>
<path style="fill:#000000; stroke:none;" d="M200 72L200 80L201 80L200 72z"/>
<path style="fill:#000000; stroke:none;" d="M85 73L86 74L85 73z"/>
<path style="fill:#000000; stroke:none;" d="M86 73L87 74L86 73z"/>
<path style="fill:#ffffff; stroke:none;" d="M104 73L104 74L109 74L104 73z"/>
<path style="fill:#000000; stroke:none;" d="M109 73L110 74L109 73z"/>
<path style="fill:#ffffff; stroke:none;" d="M110.667 73.3333L111.333 73.6667L110.667 73.3333z"/>
<path style="fill:#000000; stroke:none;" d="M112.667 73.3333L113.333 73.6667L112.667 73.3333z"/>
<path style="fill:#ffffff; stroke:none;" d="M114 73L114 74L120 74L114 73M138 73L140 75L138 73z"/>
<path style="fill:#000000; stroke:none;" d="M139 73L140 74L139 73M24.3333 74.6667L24.6667 75.3333L24.3333 74.6667M83 74L82 76L83 74z"/>
<path style="fill:#000000; stroke:none;" d="M84 74L85 75L84 74z"/>
<path style="fill:#ffffff; stroke:none;" d="M85 74L86 75L85 74M93 74L94 75L93 74M100.667 74.3333L101.333 74.6667L100.667 74.3333z"/>
<path style="fill:#000000; stroke:none;" d="M102.667 74.3333L103.333 74.6667L102.667 74.3333z"/>
<path style="fill:#000000; stroke:none;" d="M104 74L104 75L107 75L104 74M117 74L117 75L121 75L117 74z"/>
<path style="fill:#000000; stroke:none;" d="M121 74L121 75L124 75L121 74z"/>
<path style="fill:#ffffff; stroke:none;" d="M124 74L125 75L124 74z"/>
<path style="fill:#000000; stroke:none;" d="M140 74L141 75L140 74M83 75L84 76L83 75z"/>
<path style="fill:#ffffff; stroke:none;" d="M97 75L98 76L97 75z"/>
<path style="fill:#000000; stroke:none;" d="M98.6667 75.3333L99.3333 75.6667L98.6667 75.3333z"/>
<path style="fill:#000000; stroke:none;" d="M100.667 75.3333L101.333 75.6667L100.667 75.3333M123.667 75.3333L124.333 75.6667L123.667 75.3333z"/>
<path style="fill:#000000; stroke:none;" d="M125.667 75.3333L126.333 75.6667L125.667 75.3333z"/>
<path style="fill:#ffffff; stroke:none;" d="M127 75L128 76L127 75z"/>
<path style="fill:#000000; stroke:none;" d="M141 75L142 76L141 75z"/>
<path style="fill:#000000; stroke:none;" d="M142 75L143 76L142 75z"/>
<path style="fill:#000000; stroke:none;" d="M24.3333 76.6667L24.6667 77.3333L24.3333 76.6667z"/>
<path style="fill:#000000; stroke:none;" d="M80 76L81 77L80 76z"/>
<path style="fill:#000000; stroke:none;" d="M81 76L82 77L81 76z"/>
<path style="fill:#ffffff; stroke:none;" d="M94 76L95 77L94 76z"/>
<path style="fill:#000000; stroke:none;" d="M95 76L96 77L95 76z"/>
<path style="fill:#000000; stroke:none;" d="M96 76L96 77L99 77L96 76M126.667 76.3333L127.333 76.6667L126.667 76.3333z"/>
<path style="fill:#000000; stroke:none;" d="M128.667 76.3333L129.333 76.6667L128.667 76.3333z"/>
<path style="fill:#ffffff; stroke:none;" d="M130 76L131 77L130 76z"/>
<path style="fill:#000000; stroke:none;" d="M143 76L144 77L143 76z"/>
<path style="fill:#000000; stroke:none;" d="M144 76L146 78L144 76M76 80L80 78L76 80z"/>
<path style="fill:#ffffff; stroke:none;" d="M92 77L93 78L92 77z"/>
<path style="fill:#000000; stroke:none;" d="M93.6667 77.3333L94.3333 77.6667L93.6667 77.3333M130 77L131 78L130 77z"/>
<path style="fill:#000000; stroke:none;" d="M131 77L132 78L131 77z"/>
<path style="fill:#ffffff; stroke:none;" d="M132 77L133 78L132 77M144 77L145 78L144 77z"/>
<path style="fill:#000000; stroke:none;" d="M24 78L24 97L25 97L24 78z"/>
<path style="fill:#000000; stroke:none;" d="M78 78L79 79L78 78z"/>
<path style="fill:#ffffff; stroke:none;" d="M79 78L80 79L79 78z"/>
<path style="fill:#000000; stroke:none;" d="M90 78L89 80L90 78z"/>
<path style="fill:#000000; stroke:none;" d="M91 78L92 79L91 78M133 78L134 79L133 78z"/>
<path style="fill:#ffffff; stroke:none;" d="M134 78L135 79L134 78z"/>
<path style="fill:#000000; stroke:none;" d="M146 78L148 80L146 78z"/>
<path style="fill:#000000; stroke:none;" d="M147 78L148 79L147 78z"/>
<path style="fill:#000000; stroke:none;" d="M77 79L78 80L77 79z"/>
<path style="fill:#000000; stroke:none;" d="M90 79L91 80L90 79M135 79L136 80L135 79M75 80L72 84L75 80z"/>
<path style="fill:#ffffff; stroke:none;" d="M86 80L87 81L86 80z"/>
<path style="fill:#000000; stroke:none;" d="M87 80L88 81L87 80M137 80L139 82L137 80z"/>
<path style="fill:#ffffff; stroke:none;" d="M138 80L139 81L138 80z"/>
<path style="fill:#000000; stroke:none;" d="M149 80L150 81L149 80M200 80L200 98L201 98L200 80z"/>
<path style="fill:#000000; stroke:none;" d="M207 80L207 96L208 96L207 80z"/>
<path style="fill:#ffffff; stroke:none;" d="M75 81L76 82L75 81M84 81L83 83L84 81z"/>
<path style="fill:#000000; stroke:none;" d="M85 81L86 82L85 81z"/>
<path style="fill:#000000; stroke:none;" d="M86 81L87 82L86 81M104 81L104 82L107 82L104 81z"/>
<path style="fill:#000000; stroke:none;" d="M107 81L108 82L107 81z"/>
<path style="fill:#ffffff; stroke:none;" d="M108.667 81.3333L109.333 81.6667L108.667 81.3333z"/>
<path style="fill:#000000; stroke:none;" d="M82 94C86.1506 101.428 93.6917 92.1951 99 90.1188C109.019 86.1999 122.092 86.8076 131 92.9244C132.801 94.1611 139.835 100.751 141.694 96.642C144.113 91.2937 130.455 85.3669 127 84.206C109.91 78.4633 95.8142 83.438 82 94z"/>
<path style="fill:#ffffff; stroke:none;" d="M115 81L116 82L115 81z"/>
<path style="fill:#000000; stroke:none;" d="M116 81L116 82L120 82L116 81z"/>
<path style="fill:#000000; stroke:none;" d="M120.667 81.3333L121.333 81.6667L120.667 81.3333z"/>
<path style="fill:#000000; stroke:none;" d="M139 81L140 82L139 81z"/>
<path style="fill:#000000; stroke:none;" d="M150 81L151 82L150 81z"/>
<path style="fill:#000000; stroke:none;" d="M17 82L17 104L18 104L17 82z"/>
<path style="fill:#ffffff; stroke:none;" d="M74 82L75 83L74 82z"/>
<path style="fill:#000000; stroke:none;" d="M84.6667 82.3333L85.3333 82.6667L84.6667 82.3333M100.667 82.3333L101.333 82.6667L100.667 82.3333z"/>
<path style="fill:#000000; stroke:none;" d="M102 82L103 83L102 82z"/>
<path style="fill:#ffffff; stroke:none;" d="M103 82L104 83L103 82M121 82L122 83L121 82z"/>
<path style="fill:#000000; stroke:none;" d="M122 82L123 83L122 82z"/>
<path style="fill:#000000; stroke:none;" d="M123.667 82.3333L124.333 82.6667L123.667 82.3333M140 82L144 85L144 84L140 82z"/>
<path style="fill:#ffffff; stroke:none;" d="M141 82L142 83L141 82z"/>
<path style="fill:#000000; stroke:none;" d="M151 82L152 83L151 82z"/>
<path style="fill:#ffffff; stroke:none;" d="M73 83L74 84L73 83z"/>
<path style="fill:#000000; stroke:none;" d="M82 83L81 85L82 83z"/>
<path style="fill:#000000; stroke:none;" d="M83 83L84 84L83 83M89 87L89 88L99 84L89 87z"/>
<path style="fill:#000000; stroke:none;" d="M99 83L100 84L99 83z"/>
<path style="fill:#ffffff; stroke:none;" d="M124 83L125 84L124 83z"/>
<path style="fill:#000000; stroke:none;" d="M125 83L126 84L125 83z"/>
<path style="fill:#000000; stroke:none;" d="M126.667 83.3333L127.333 83.6667L126.667 83.3333z"/>
<path style="fill:#ffffff; stroke:none;" d="M142 83L143 84L142 83z"/>
<path style="fill:#000000; stroke:none;" d="M152 83L153 84L152 83z"/>
<path style="fill:#ffffff; stroke:none;" d="M72 84L73 85L72 84z"/>
<path style="fill:#000000; stroke:none;" d="M82 84L83 85L82 84z"/>
<path style="fill:#ffffff; stroke:none;" d="M96.6667 84.3333L97.3333 84.6667L96.6667 84.3333z"/>
<path style="fill:#000000; stroke:none;" d="M128 84L129 85L128 84z"/>
<path style="fill:#000000; stroke:none;" d="M129.667 84.3333L130.333 84.6667L129.667 84.3333z"/>
<path style="fill:#ffffff; stroke:none;" d="M152 84L153 85L152 84M76 85L77 86L76 85z"/>
<path style="fill:#000000; stroke:none;" d="M80 85L81 86L80 85z"/>
<path style="fill:#ffffff; stroke:none;" d="M94 85L95 86L94 85M130 85L131 86L130 85z"/>
<path style="fill:#000000; stroke:none;" d="M131 85L133 87L131 85z"/>
<path style="fill:#000000; stroke:none;" d="M132 85L133 86L132 85M144 85L145 86L144 85z"/>
<path style="fill:#ffffff; stroke:none;" d="M151 85L152 86L151 85z"/>
<path style="fill:#000000; stroke:none;" d="M153 85L154 86L153 85M79 86L80 87L79 86z"/>
<path style="fill:#000000; stroke:none;" d="M92 86L93 87L92 86z"/>
<path style="fill:#000000; stroke:none;" d="M133 86L134 87L133 86M145 86L146 87L145 86z"/>
<path style="fill:#000000; stroke:none;" d="M72 87L73 88L72 87z"/>
<path style="fill:#ffffff; stroke:none;" d="M73 87L76 89L76 88L73 87z"/>
<path style="fill:#000000; stroke:none;" d="M78 87L79 88L78 87z"/>
<path style="fill:#ffffff; stroke:none;" d="M90 87L91 88L90 87z"/>
<path style="fill:#000000; stroke:none;" d="M134 87L135 88L134 87z"/>
<path style="fill:#000000; stroke:none;" d="M135 87L136 88L135 87M146 87L147 88L146 87z"/>
<path style="fill:#000000; stroke:none;" d="M152 87L153 88L152 87z"/>
<path style="fill:#000000; stroke:none;" d="M73 88L74 89L73 88z"/>
<path style="fill:#000000; stroke:none;" d="M76 88L77 89L76 88z"/>
<path style="fill:#000000; stroke:none;" d="M77 88L78 89L77 88z"/>
<path style="fill:#000000; stroke:none;" d="M88 88L89 89L88 88M104.667 88.3333L105.333 88.6667L104.667 88.3333z"/>
<path style="fill:#000000; stroke:none;" d="M106.667 88.3333L107.333 88.6667L106.667 88.3333M116 88L116 89L119 89L116 88z"/>
<path style="fill:#000000; stroke:none;" d="M119 88L119 89L122 89L119 88z"/>
<path style="fill:#ffffff; stroke:none;" d="M122 88L123 89L122 88z"/>
<path style="fill:#000000; stroke:none;" d="M136 88L139 91L136 88z"/>
<path style="fill:#000000; stroke:none;" d="M137 88L138 89L137 88M147 88L148 89L147 88z"/>
<path style="fill:#000000; stroke:none;" d="M148 88L149 89L148 88z"/>
<path style="fill:#ffffff; stroke:none;" d="M149 88L150 89L149 88z"/>
<path style="fill:#000000; stroke:none;" d="M150.667 88.3333L151.333 88.6667L150.667 88.3333z"/>
<path style="fill:#000000; stroke:none;" d="M74.6667 89.3333L75.3333 89.6667L74.6667 89.3333M86 89L85 91L86 89z"/>
<path style="fill:#000000; stroke:none;" d="M87 89L88 90L87 89z"/>
<path style="fill:#ffffff; stroke:none;" d="M90.6667 89.3333L91.3333 89.6667L90.6667 89.3333M100 89L101 90L100 89z"/>
<path style="fill:#000000; stroke:none;" d="M101 89L102 90L101 89z"/>
<path style="fill:#000000; stroke:none;" d="M102 89L103 90L102 89M122 89L123 90L122 89z"/>
<path style="fill:#000000; stroke:none;" d="M123 89L124 90L123 89z"/>
<path style="fill:#ffffff; stroke:none;" d="M124 89L125 90L124 89M136 89L137 90L136 89z"/>
<path style="fill:#000000; stroke:none;" d="M138 89L139 90L138 89M149.667 89.3333L150.333 89.6667L149.667 89.3333z"/>
<path style="fill:#000000; stroke:none;" d="M86 90L87 91L86 90z"/>
<path style="fill:#ffffff; stroke:none;" d="M97 90L98 91L97 90z"/>
<path style="fill:#000000; stroke:none;" d="M98 90L99 91L98 90z"/>
<path style="fill:#000000; stroke:none;" d="M99 90L100 91L99 90M125 90L126 91L125 90z"/>
<path style="fill:#000000; stroke:none;" d="M126 90L127 91L126 90z"/>
<path style="fill:#ffffff; stroke:none;" d="M127 90L128 91L127 90z"/>
<path style="fill:#000000; stroke:none;" d="M139 90L141 92L139 90M84 91L85 92L84 91z"/>
<path style="fill:#ffffff; stroke:none;" d="M95 91L94 93L95 91z"/>
<path style="fill:#000000; stroke:none;" d="M96.6667 91.3333L97.3333 91.6667L96.6667 91.3333z"/>
<path style="fill:#000000; stroke:none;" d="M128 91L129 92L128 91z"/>
<path style="fill:#ffffff; stroke:none;" d="M129 91L130 92L129 91M139 91L140 92L139 91z"/>
<path style="fill:#000000; stroke:none;" d="M83 92L84 93L83 92M95 92L96 93L95 92M129 92L130 93L129 92z"/>
<path style="fill:#000000; stroke:none;" d="M130 92L131 93L130 92z"/>
<path style="fill:#000000; stroke:none;" d="M141 92L143 94L141 92z"/>
<path style="fill:#000000; stroke:none;" d="M82 93L83 94L82 93z"/>
<path style="fill:#ffffff; stroke:none;" d="M83 93L84 94L83 93M92 93L93 94L92 93z"/>
<path style="fill:#000000; stroke:none;" d="M93.6667 93.3333L94.3333 93.6667L93.6667 93.3333z"/>
<path style="fill:#000000; stroke:none;" d="M131 93L132 94L131 93z"/>
<path style="fill:#ffffff; stroke:none;" d="M141 93L142 94L141 93z"/>
<path style="fill:#000000; stroke:none;" d="M81 94L86 100L86 99L81 94z"/>
<path style="fill:#000000; stroke:none;" d="M91 94L92 95L91 94z"/>
<path style="fill:#000000; stroke:none;" d="M132 94L133 95L132 94z"/>
<path style="fill:#000000; stroke:none;" d="M133 94L134 95L133 94z"/>
<path style="fill:#ffffff; stroke:none;" d="M135 94L136 95L135 94M140 94L141 95L140 94M142 94L143 95L142 94z"/>
<path style="fill:#000000; stroke:none;" d="M90 95L91 96L90 95M105 95L105 96L108 96L105 95z"/>
<path style="fill:#000000; stroke:none;" d="M108 95L109 96L108 95z"/>
<path style="fill:#ffffff; stroke:none;" d="M109 95L110 96L109 95z"/>
<path style="fill:#000000; stroke:none;" d="M131 109C134.866 94.6112 109.258 93.9854 101 98.044C98.763 99.1435 90.5174 103.488 94.0471 107.114C96.4212 109.553 104.119 102.92 107 102.343C116.946 100.352 122.562 105.264 131 109z"/>
<path style="fill:#ffffff; stroke:none;" d="M115 95L116 96L115 95z"/>
<path style="fill:#000000; stroke:none;" d="M116 95L117 96L116 95z"/>
<path style="fill:#000000; stroke:none;" d="M117 95L117 96L120 96L117 95M134 95L135 96L134 95M143.333 95.6667L143.667 96.3333L143.333 95.6667z"/>
<path style="fill:#ffffff; stroke:none;" d="M82 96L83 97L82 96M88 96L89 97L88 96z"/>
<path style="fill:#000000; stroke:none;" d="M89 96L90 97L89 96M102 96L103 97L102 96z"/>
<path style="fill:#000000; stroke:none;" d="M103 96L104 97L103 96z"/>
<path style="fill:#ffffff; stroke:none;" d="M120 96L121 97L120 96z"/>
<path style="fill:#000000; stroke:none;" d="M121 96L122 97L121 96z"/>
<path style="fill:#000000; stroke:none;" d="M122 96L123 97L122 96M135 96L136 97L135 96z"/>
<path style="fill:#000000; stroke:none;" d="M24.3333 97.6667L24.6667 98.3333L24.3333 97.6667z"/>
<path style="fill:#ffffff; stroke:none;" d="M83 97L84 98L83 97z"/>
<path style="fill:#000000; stroke:none;" d="M87 97L86 99L87 97z"/>
<path style="fill:#000000; stroke:none;" d="M88 97L89 98L88 97M100 97L101 98L100 97z"/>
<path style="fill:#000000; stroke:none;" d="M101 97L102 98L101 97z"/>
<path style="fill:#ffffff; stroke:none;" d="M102 97L103 98L102 97z"/>
<path style="fill:#000000; stroke:none;" d="M123 97L124 98L123 97z"/>
<path style="fill:#000000; stroke:none;" d="M124 97L125 98L124 97M136 97L138 99L136 97z"/>
<path style="fill:#ffffff; stroke:none;" d="M137 97L138 98L137 97z"/>
<path style="fill:#000000; stroke:none;" d="M142 97L141 99L142 97M84 98L85 99L84 98z"/>
<path style="fill:#ffffff; stroke:none;" d="M85 98L86 99L85 98z"/>
<path style="fill:#000000; stroke:none;" d="M87 98L88 99L87 98M98 98L95 100L95 101L99 99L98 98z"/>
<path style="fill:#000000; stroke:none;" d="M99 98L100 99L99 98M125 98L126 99L125 98z"/>
<path style="fill:#000000; stroke:none;" d="M126 98L126 99L132 103L126 98z"/>
<path style="fill:#000000; stroke:none;" d="M138 98L139 99L138 98z"/>
<path style="fill:#000000; stroke:none;" d="M142 98L143 99L142 98z"/>
<path style="fill:#000000; stroke:none;" d="M200 98L200 102L201 102L200 98M207 98L207 102L208 102L207 98z"/>
<path style="fill:#000000; stroke:none;" d="M24.3333 99.6667L24.6667 100.333L24.3333 99.6667z"/>
<path style="fill:#ffffff; stroke:none;" d="M98 99L99 100L98 99M126 99L127 100L126 99z"/>
<path style="fill:#000000; stroke:none;" d="M127 99L128 100L127 99z"/>
<path style="fill:#000000; stroke:none;" d="M139.667 99.3333L140.333 99.6667L139.667 99.3333z"/>
<path style="fill:#ffffff; stroke:none;" d="M96 100L97 101L96 100M128 100L129 101L128 100z"/>
<path style="fill:#000000; stroke:none;" d="M24.3333 101.667L24.6667 102.333L24.3333 101.667z"/>
<path style="fill:#000000; stroke:none;" d="M94 101L95 102L94 101z"/>
<path style="fill:#ffffff; stroke:none;" d="M123.667 101.333L124.333 101.667L123.667 101.333M129 101L130 102L129 101z"/>
<path style="fill:#000000; stroke:none;" d="M93 102L94 103L93 102z"/>
<path style="fill:#ffffff; stroke:none;" d="M105 102L106 103L105 102z"/>
<path style="fill:#000000; stroke:none;" d="M106 102L107 103L106 102z"/>
<path style="fill:#000000; stroke:none;" d="M107.667 102.333L108.333 102.667L107.667 102.333M116.667 102.333L117.333 102.667L116.667 102.333z"/>
<path style="fill:#000000; stroke:none;" d="M118 102L119 103L118 102z"/>
<path style="fill:#ffffff; stroke:none;" d="M119 102L120 103L119 102M130 102L131 103L130 102z"/>
<path style="fill:#000000; stroke:none;" d="M200 102L200 122L201 122L200 102M24 103L24 121L25 121L24 103M92 103L91 107L92 107L92 103z"/>
<path style="fill:#ffffff; stroke:none;" d="M102 103L103 104L102 103z"/>
<path style="fill:#000000; stroke:none;" d="M103 103L104 104L103 103z"/>
<path style="fill:#000000; stroke:none;" d="M104.667 103.333L105.333 103.667L104.667 103.333z"/>
<path style="fill:#000000; stroke:none;" d="M120.667 103.333L121.333 103.667L120.667 103.333z"/>
<path style="fill:#000000; stroke:none;" d="M132 103L132 109L133 109L132 103z"/>
<path style="fill:#ffffff; stroke:none;" d="M92 104L92 107L93 107L92 104M95 104L96 105L95 104z"/>
<path style="fill:#000000; stroke:none;" d="M101 104L100 106L101 104z"/>
<path style="fill:#000000; stroke:none;" d="M102 104L103 105L102 104M122 104L124 106L122 104z"/>
<path style="fill:#ffffff; stroke:none;" d="M123 104L124 105L123 104M128 104L129 105L128 104z"/>
<path style="fill:#000000; stroke:none;" d="M132 104L133 105L132 104M207 104L207 120L208 120L207 104z"/>
<path style="fill:#000000; stroke:none;" d="M101 105L102 106L101 105z"/>
<path style="fill:#000000; stroke:none;" d="M124 105L125 106L124 105z"/>
<path style="fill:#ffffff; stroke:none;" d="M125 105L126 106L125 105M132.333 105.667L132.667 106.333L132.333 105.667z"/>
<path style="fill:#000000; stroke:none;" d="M17 106L17 118L18 118L17 106M98 106L96 109L98 106z"/>
<path style="fill:#000000; stroke:none;" d="M99 106L100 107L99 106M125 106L127 108L125 106z"/>
<path style="fill:#000000; stroke:none;" d="M126 106L127 107L126 106M92 107L94 109L92 107z"/>
<path style="fill:#000000; stroke:none;" d="M98 107L99 108L98 107z"/>
<path style="fill:#000000; stroke:none;" d="M127 107L128 108L127 107M132 107L133 108L132 107z"/>
<path style="fill:#000000; stroke:none;" d="M92 108L93 109L92 108z"/>
<path style="fill:#ffffff; stroke:none;" d="M94 108L95 109L94 108z"/>
<path style="fill:#000000; stroke:none;" d="M97 108L98 109L97 108z"/>
<path style="fill:#ffffff; stroke:none;" d="M128 108L129 109L128 108z"/>
<path style="fill:#000000; stroke:none;" d="M131 108L132 109L131 108z"/>
<path style="fill:#000000; stroke:none;" d="M108 109L109 110L108 109z"/>
<path style="fill:#000000; stroke:none;" d="M109 109L110 110L109 109z"/>
<path style="fill:#ffffff; stroke:none;" d="M110 109L111 110L110 109z"/>
<path style="fill:#000000; stroke:none;" d="M111.001 109.758C98.5913 111.778 101.972 131.576 114 129.323C126.539 126.973 123.366 107.744 111.001 109.758z"/>
<path style="fill:#ffffff; stroke:none;" d="M113 109L114 110L113 109z"/>
<path style="fill:#000000; stroke:none;" d="M114.667 109.333L115.333 109.667L114.667 109.333z"/>
<path style="fill:#000000; stroke:none;" d="M116 109L116 110L120 112L120 111L116 109M106 110L103 114L106 110z"/>
<path style="fill:#000000; stroke:none;" d="M107 110L108 111L107 110z"/>
<path style="fill:#ffffff; stroke:none;" d="M116 110L117 111L116 110z"/>
<path style="fill:#000000; stroke:none;" d="M106 111L107 112L106 111M118 111L119 112L118 111z"/>
<path style="fill:#ffffff; stroke:none;" d="M105 112L106 113L105 112z"/>
<path style="fill:#000000; stroke:none;" d="M120 112L122 114L120 112z"/>
<path style="fill:#ffffff; stroke:none;" d="M104 113L105 114L104 113z"/>
<path style="fill:#000000; stroke:none;" d="M120 113L121 114L120 113M103 114L104 115L103 114M121 114L122 115L121 114z"/>
<path style="fill:#000000; stroke:none;" d="M102.333 115.667L102.667 116.333L102.333 115.667z"/>
<path style="fill:#ffffff; stroke:none;" d="M103 115L104 116L103 115M112 115L113 116L112 115M121 115L122 116L121 115z"/>
<path style="fill:#000000; stroke:none;" d="M122.333 115.667L122.667 116.333L122.333 115.667z"/>
<path style="fill:#000000; stroke:none;" d="M110 116L109 118L110 116z"/>
<path style="fill:#000000; stroke:none;" d="M111.318 117.175C108.318 118.708 110.688 123.355 113.682 121.825C116.682 120.292 114.312 115.645 111.318 117.175z"/>
<path style="fill:#000000; stroke:none;" d="M114 116L115 117L114 116M102 117L103 118L102 117M115 117L116 118L115 117M122 117L123 118L122 117z"/>
<path style="fill:#ffffff; stroke:none;" d="M102 118L103 119L102 118z"/>
<path style="fill:#000000; stroke:none;" d="M17 120L17 136L18 136L17 120z"/>
<path style="fill:#ffffff; stroke:none;" d="M116 120L117 121L116 120z"/>
<path style="fill:#000000; stroke:none;" d="M24.3333 121.667L24.6667 122.333L24.3333 121.667z"/>
<path style="fill:#ffffff; stroke:none;" d="M102 121L103 122L102 121z"/>
<path style="fill:#000000; stroke:none;" d="M109 121L110 122L109 121M115 121L116 122L115 121z"/>
<path style="fill:#ffffff; stroke:none;" d="M122 121L123 122L122 121z"/>
<path style="fill:#000000; stroke:none;" d="M102 122L103 123L102 122M110 122L111 123L110 122M114 122L115 123L114 122M122 122L123 123L122 122M200 122L200 126L201 126L200 122M207 122L207 126L208 126L207 122z"/>
<path style="fill:#000000; stroke:none;" d="M24 123L24 126L25 126L24 123M102 123L103 124L102 123z"/>
<path style="fill:#ffffff; stroke:none;" d="M103 123L104 124L103 123M112 123L113 124L112 123z"/>
<path style="fill:#000000; stroke:none;" d="M122 123L123 124L122 123z"/>
<path style="fill:#000000; stroke:none;" d="M103 124L104 125L103 124M121 124L122 125L121 124z"/>
<path style="fill:#000000; stroke:none;" d="M103 125L107 129L103 125z"/>
<path style="fill:#ffffff; stroke:none;" d="M104 125L105 126L104 125M120 125L119 127L120 125z"/>
<path style="fill:#000000; stroke:none;" d="M121 125L122 126L121 125z"/>
<path style="fill:#000000; stroke:none;" d="M24.3333 126.667L24.6667 127.333L24.3333 126.667z"/>
<path style="fill:#ffffff; stroke:none;" d="M105 126L106 127L105 126z"/>
<path style="fill:#000000; stroke:none;" d="M120 126L121 127L120 126M200 126L200 144L201 144L200 126z"/>
<path style="fill:#ffffff; stroke:none;" d="M106 127L107 128L106 127z"/>
<path style="fill:#000000; stroke:none;" d="M118 127L117 129L118 127z"/>
<path style="fill:#000000; stroke:none;" d="M119 127L120 128L119 127M24 128L24 144L25 144L24 128z"/>
<path style="fill:#000000; stroke:none;" d="M107 128L108 129L107 128z"/>
<path style="fill:#ffffff; stroke:none;" d="M108 128L109 129L108 128z"/>
<path style="fill:#000000; stroke:none;" d="M118 128L119 129L118 128z"/>
<path style="fill:#000000; stroke:none;" d="M207 128L207 145L208 145L207 128z"/>
<path style="fill:#000000; stroke:none;" d="M108.667 129.333L109.333 129.667L108.667 129.333z"/>
<path style="fill:#ffffff; stroke:none;" d="M110 129L111 130L110 129M114 129L115 130L114 129z"/>
<path style="fill:#000000; stroke:none;" d="M115 129L116 130L115 129z"/>
<path style="fill:#000000; stroke:none;" d="M116 129L117 130L116 129z"/>
<path style="fill:#000000; stroke:none;" d="M17 137L17 143L18 143L17 137M17 144L17 148L18 148L17 144z"/>
<path style="fill:#ffffff; stroke:none;" d="M23 144L23 145L72 145C59.348 139.691 36.7879 144 23 144z"/>
<path style="fill:#000000; stroke:none;" d="M72 144L73 145L72 144z"/>
<path style="fill:#ffffff; stroke:none;" d="M73 144L74 145L73 144z"/>
<path style="fill:#000000; stroke:none;" d="M74 144L75 145L74 144z"/>
<path style="fill:#ffffff; stroke:none;" d="M75.6667 144.333L76.3333 144.667L75.6667 144.333z"/>
<path style="fill:#000000; stroke:none;" d="M77 144L78 145L77 144z"/>
<path style="fill:#ffffff; stroke:none;" d="M78 144L79 145L78 144z"/>
<path style="fill:#000000; stroke:none;" d="M79 144L80 145L79 144z"/>
<path style="fill:#ffffff; stroke:none;" d="M80 144L80 145L103 145L80 144z"/>
<path style="fill:#000000; stroke:none;" d="M103 144L104 145L103 144z"/>
<path style="fill:#ffffff; stroke:none;" d="M104 144L104 145L127 145L104 144z"/>
<path style="fill:#000000; stroke:none;" d="M127 144L128 145L127 144z"/>
<path style="fill:#ffffff; stroke:none;" d="M128 144L128 145L192 145L172 144L128 144z"/>
<path style="fill:#000000; stroke:none;" d="M192 144L193 145L192 144z"/>
<path style="fill:#ffffff; stroke:none;" d="M193 144L193 145L200 145L193 144z"/>
<path style="fill:#000000; stroke:none;" d="M207 147L208 148L207 147M18 149L19 150L18 149M206 149L207 150L206 149M19 150L20 151L19 150z"/>
<path style="fill:#ffffff; stroke:none;" d="M20 150L21 151L20 150M204 150L205 151L204 150z"/>
<path style="fill:#000000; stroke:none;" d="M205 150L206 151L205 150M202.667 151.333L203.333 151.667L202.667 151.333z"/>
<path style="fill:#ffffff; stroke:none;" d="M217 153L217 156L218 156L217 153z"/>
<path style="fill:#000000; stroke:none;" d="M14 154L15 155L14 154M31 154L32 155L31 154M47 154L48 155L47 154M80 154L81 155L80 154M195 154L196 155L195 154M208 154L208 155L211 155L208 154z"/>
<path style="fill:#ffffff; stroke:none;" d="M7 155L8 156L7 155M210 155L211 156L210 155z"/>
<path style="fill:#000000; stroke:none;" d="M7 156L8 157L7 156M217 156L218 157L217 156z"/>
<path style="fill:#000000; stroke:none;" d="M7 157L8 158L7 157M217 157L218 158L217 157z"/>
<path style="fill:#000000; stroke:none;" d="M8 158L9 159L8 158M216 158L217 159L216 158M9 159L10 160L9 159z"/>
<path style="fill:#000000; stroke:none;" d="M216 159L217 160L216 159z"/>
<path style="fill:#000000; stroke:none;" d="M10 160L11 161L10 160z"/>
<path style="fill:#ffffff; stroke:none;" d="M11 160L12 161L11 160M147 160L148 161L147 160M213 160L214 161L213 160z"/>
<path style="fill:#000000; stroke:none;" d="M214.667 160.333L215.333 160.667L214.667 160.333M11.6667 161.333L12.3333 161.667L11.6667 161.333z"/>
<path style="fill:#000000; stroke:none;" d="M13 161L13 162L68 162L50 161L13 161z"/>
<path style="fill:#ffffff; stroke:none;" d="M75 161L76 162L75 161z"/>
<path style="fill:#000000; stroke:none;" d="M76 161L76 162L149 162L126 161L76 161z"/>
<path style="fill:#ffffff; stroke:none;" d="M149 161L150 162L149 161z"/>
<path style="fill:#000000; stroke:none;" d="M157 161L157 162L212 162L194 161L157 161z"/>
<path style="fill:#000000; stroke:none;" d="M212.667 161.333L213.333 161.667L212.667 161.333M67 162L68 163L67 162z"/>
<path style="fill:#ffffff; stroke:none;" d="M68 162L69 163L68 162z"/>
<path style="fill:#000000; stroke:none;" d="M75 162L72 170L73 170L75 162z"/>
<path style="fill:#fbfbfb; stroke:none;" d="M66 182L158 183C157.017 177.29 153.402 166.437 148.387 163.028C145.115 160.803 138.771 162 135 162L103 162C96.5589 162 82.0187 159.277 76.6373 163.028C71.8196 166.386 68.4466 176.758 66 182z"/>
<path style="fill:#000000; stroke:none;" d="M149 162L151 167L152 167L149 162z"/>
<path style="fill:#ffffff; stroke:none;" d="M156 162L157 163L156 162z"/>
<path style="fill:#000000; stroke:none;" d="M157 162L159 167L160 167L157 162z"/>
<path style="fill:#000000; stroke:none;" d="M67 163L68 164L67 163z"/>
<path style="fill:#ffffff; stroke:none;" d="M74 163L75 164L74 163M150 163L151 164L150 163z"/>
<path style="fill:#000000; stroke:none;" d="M66 164L67 165L66 164z"/>
<path style="fill:#ffffff; stroke:none;" d="M67 164L68 165L67 164M157 164L158 165L157 164z"/>
<path style="fill:#000000; stroke:none;" d="M66 165L67 166L66 165z"/>
<path style="fill:#ffffff; stroke:none;" d="M73 165L74 166L73 165M151 165L152 166L151 165z"/>
<path style="fill:#000000; stroke:none;" d="M65 166L66 167L65 166z"/>
<path style="fill:#ffffff; stroke:none;" d="M158 166L159 167L158 166z"/>
<path style="fill:#000000; stroke:none;" d="M65 167L66 168L65 167M159 167L160 168L159 167z"/>
<path style="fill:#000000; stroke:none;" d="M64 168L65 169L64 168M152 168L154 173L155 173L152 168M160 168L162 171L160 168z"/>
<path style="fill:#000000; stroke:none;" d="M64 169L65 170L64 169z"/>
<path style="fill:#ffffff; stroke:none;" d="M153 169L154 170L153 169z"/>
<path style="fill:#000000; stroke:none;" d="M63 170L64 171L63 170z"/>
<path style="fill:#ffffff; stroke:none;" d="M65 170L66 171L65 170z"/>
<path style="fill:#000000; stroke:none;" d="M71 170L72 171L71 170z"/>
<path style="fill:#ffffff; stroke:none;" d="M160 170L161 171L160 170z"/>
<path style="fill:#000000; stroke:none;" d="M63 171L64 172L63 171z"/>
<path style="fill:#ffffff; stroke:none;" d="M70 171L71 172L70 171M154 171L155 172L154 171z"/>
<path style="fill:#000000; stroke:none;" d="M161 171L162 172L161 171z"/>
<path style="fill:#000000; stroke:none;" d="M62 172L63 173L62 172z"/>
<path style="fill:#ffffff; stroke:none;" d="M63 172L64 173L63 172M66 172L67 173L66 172z"/>
<path style="fill:#000000; stroke:none;" d="M70 172L67 179L68 179L70 172z"/>
<path style="fill:#ffffff; stroke:none;" d="M161 172L162 173L161 172z"/>
<path style="fill:#000000; stroke:none;" d="M162 172L163 173L162 172z"/>
<path style="fill:#000000; stroke:none;" d="M62 173L63 174L62 173M69 173L70 174L69 173z"/>
<path style="fill:#ffffff; stroke:none;" d="M155 173L156 174L155 173z"/>
<path style="fill:#000000; stroke:none;" d="M162 173L163 174L162 173z"/>
<path style="fill:#000000; stroke:none;" d="M61.3333 174.667L61.6667 175.333L61.3333 174.667z"/>
<path style="fill:#ffffff; stroke:none;" d="M62 174L63 175L62 174z"/>
<path style="fill:#000000; stroke:none;" d="M155 174L156 175L155 174z"/>
<path style="fill:#ffffff; stroke:none;" d="M162 174L163 175L162 174z"/>
<path style="fill:#000000; stroke:none;" d="M163 174L164 175L163 174z"/>
<path style="fill:#000000; stroke:none;" d="M68 175L69 176L68 175M156 175L157 176L156 175M163 175L164 176L163 175z"/>
<path style="fill:#000000; stroke:none;" d="M60 176L61 177L60 176M156 176L157 180L158 180L156 176M164 176L165 177L164 176z"/>
<path style="fill:#000000; stroke:none;" d="M60 177L61 178L60 177M67 177L68 178L67 177M157 177L158 178L157 177z"/>
<path style="fill:#ffffff; stroke:none;" d="M160 177L161 178L160 177z"/>
<path style="fill:#000000; stroke:none;" d="M164 177L165 178L164 177z"/>
<path style="fill:#000000; stroke:none;" d="M59 178L60 179L59 178M165 178L166 179L165 178z"/>
<path style="fill:#000000; stroke:none;" d="M59 179L60 180L59 179z"/>
<path style="fill:#ffffff; stroke:none;" d="M66 179L67 180L66 179M158 179L159 180L158 179z"/>
<path style="fill:#000000; stroke:none;" d="M165 179L166 180L165 179z"/>
<path style="fill:#000000; stroke:none;" d="M58 180L59 181L58 180z"/>
<path style="fill:#000000; stroke:none;" d="M66 180L67 181L66 180M158 180L159 181L158 180z"/>
<path style="fill:#000000; stroke:none;" d="M166 180L167 181L166 180z"/>
<path style="fill:#ffffff; stroke:none;" d="M58 181L59 182L58 181M65 181L64 183L65 181z"/>
<path style="fill:#000000; stroke:none;" d="M158.333 181.667L158.667 182.333L158.333 181.667z"/>
<path style="fill:#ffffff; stroke:none;" d="M159 181L160 182L159 181z"/>
<path style="fill:#000000; stroke:none;" d="M166 181L167 182L166 181z"/>
<path style="fill:#000000; stroke:none;" d="M41 184L44 183L41 184M57 182L58 183L57 182z"/>
<path style="fill:#000000; stroke:none;" d="M65 182L66 183L65 182z"/>
<path style="fill:#000000; stroke:none;" d="M66 182L66 183L70 183L66 182M84.6667 182.333L85.3333 182.667L84.6667 182.333M91 182L91 183L94 183L91 182M108.667 182.333L109.333 182.667L108.667 182.333M116 182L116 183L120 183L116 182M133 182L133 183L136 183L133 182M141 182L141 183L144 183L141 182z"/>
<path style="fill:#000000; stroke:none;" d="M159 182L160 183L159 182z"/>
<path style="fill:#000000; stroke:none;" d="M167 182L168 183L167 182z"/>
<path style="fill:#000000; stroke:none;" d="M42 183L43 184L42 183M182 183L182 187L183 187L182 183z"/>
<path style="fill:#ffffff; stroke:none;" d="M42 184L43 185L42 184M178.667 184.333L179.333 184.667L178.667 184.333z"/>
<path style="fill:#000000; stroke:none;" d="M42.3333 185.667L42.6667 186.333L42.3333 185.667z"/>
<path style="fill:#ffffff; stroke:none;" d="M42 187L43 188L42 187M182 187L183 188L182 187z"/>
<path style="fill:#000000; stroke:none;" d="M42.3333 188.667L42.6667 189.333L42.3333 188.667M182 188L180 189L180 190L182 188z"/>
<path style="fill:#ffffff; stroke:none;" d="M43.6667 189.333L44.3333 189.667L43.6667 189.333z"/>
<path style="fill:#000000; stroke:none;" d="M45 189L46 190L45 189z"/>
<path style="fill:#ffffff; stroke:none;" d="M46.6667 189.333L47.3333 189.667L46.6667 189.333z"/>
<path style="fill:#000000; stroke:none;" d="M48 189L48 190L58 190L48 189z"/>
<path style="fill:#ffffff; stroke:none;" d="M58 189L58 190L63 190L58 189z"/>
<path style="fill:#000000; stroke:none;" d="M63 189L63 190L66 190L63 189z"/>
<path style="fill:#ffffff; stroke:none;" d="M66 189L66 190L71 190L66 189z"/>
<path style="fill:#000000; stroke:none;" d="M71 189L71 190L80 190L71 189z"/>
<path style="fill:#ffffff; stroke:none;" d="M80 189L80 190L88 190L80 189z"/>
<path style="fill:#000000; stroke:none;" d="M88.6667 189.333L89.3333 189.667L88.6667 189.333z"/>
<path style="fill:#ffffff; stroke:none;" d="M90 189L90 190L95 190L90 189z"/>
<path style="fill:#000000; stroke:none;" d="M95 189L95 190L106 190L95 189z"/>
<path style="fill:#ffffff; stroke:none;" d="M106 189L106 190L120 190L106 189z"/>
<path style="fill:#000000; stroke:none;" d="M120 189L120 190L131 190L120 189z"/>
<path style="fill:#ffffff; stroke:none;" d="M131 189L131 190L144 190L131 189z"/>
<path style="fill:#000000; stroke:none;" d="M144 189L144 190L154 190L144 189z"/>
<path style="fill:#ffffff; stroke:none;" d="M154 189L154 190L163 190L154 189z"/>
<path style="fill:#000000; stroke:none;" d="M163 189L164 190L163 189z"/>
<path style="fill:#ffffff; stroke:none;" d="M164 189L164 190L172 190L164 189z"/>
<path style="fill:#000000; stroke:none;" d="M172 189L172 190L176 190L172 189z"/>
<path style="fill:#ffffff; stroke:none;" d="M176 189L177 190L176 189z"/>
<path style="fill:#000000; stroke:none;" d="M177.667 189.333L178.333 189.667L177.667 189.333z"/>
<path style="fill:#ffffff; stroke:none;" d="M179 189L180 190L179 189z"/>
<path style="fill:#000000; stroke:none;" d="M182 189L183 190L182 189z"/>
</svg>
