<svg xmlns="http://www.w3.org/2000/svg" width="14.3" height="20.02" viewBox="0 0 14.3 20.02">
  <g id="sortby" transform="translate(-6 -2)">
    <path id="Path_9057" data-name="Path 9057" d="M6.715,10.14h12.87a.715.715,0,0,0,.66-.457.759.759,0,0,0-.155-.806l-6.435-6.66a.7.7,0,0,0-1.011,0L6.21,8.877a.759.759,0,0,0-.155.806.715.715,0,0,0,.66.457Z" fill="#fff"/>
    <path id="Path_9058" data-name="Path 9058" d="M19.585,19H6.715a.715.715,0,0,0-.66.457.759.759,0,0,0,.155.806l6.435,6.66a.7.7,0,0,0,1.011,0l6.435-6.66a.759.759,0,0,0,.155-.806A.715.715,0,0,0,19.585,19Z" transform="translate(0 -5.12)" fill="#fff"/>
  </g>
</svg>
