<svg xmlns="http://www.w3.org/2000/svg" width="20" height="20" viewBox="0 0 20 20">
  <path id="star" d="M12.113,22.083a10.132,10.132,0,0,1-3.923-.768,9.547,9.547,0,0,1-5.3-5.3,10.132,10.132,0,0,1-.768-3.923,10.155,10.155,0,0,1,.757-3.923A9.671,9.671,0,0,1,4.989,4.994a10.1,10.1,0,0,1,7.124-2.911,10.106,10.106,0,0,1,3.935.768A9.684,9.684,0,0,1,21.357,8.16a10.106,10.106,0,0,1,.768,3.935,10.043,10.043,0,0,1-2.911,7.124,9.671,9.671,0,0,1-3.178,2.107A10.155,10.155,0,0,1,12.113,22.083ZM8.365,17.706l3.748-2.841,3.748,2.841L14.395,13.1l3.749-2.654H13.557l-1.443-4.8-1.467,4.8H6.083L9.808,13.1Z" transform="translate(-2.125 -2.083)" fill="#dc3a1a"/>
</svg>
