<svg xmlns="http://www.w3.org/2000/svg" width="20" height="20" viewBox="0 0 20 20">
  <g id="star" transform="translate(13664.333 2733.333)">
    <circle id="Ellipse_257" data-name="Ellipse 257" cx="10" cy="10" r="10" transform="translate(-13664.333 -2733.333)" fill="#dc3a1a"/>
    <path id="Path_8974" data-name="Path 8974" d="M40.436,35.985a.651.651,0,0,0-.364-1.106l-2.546-.364a.65.65,0,0,1-.485-.348l-1.136-2.3a.638.638,0,0,0-1.152,0l-1.136,2.3a.615.615,0,0,1-.485.348l-2.546.364a.651.651,0,0,0-.364,1.106l1.833,1.8a.628.628,0,0,1,.182.576l-.439,2.53a.662.662,0,0,0,.955.682l2.273-1.2a.617.617,0,0,1,.606,0l2.273,1.2a.649.649,0,0,0,.939-.682l-.439-2.53a.67.67,0,0,1,.182-.576Z" transform="translate(-13689.662 -2759.909)" fill="#fff"/>
  </g>
</svg>
