<svg xmlns="http://www.w3.org/2000/svg" width="27.957" height="30" viewBox="0 0 27.957 30">
  <g id="user_6_" data-name="user (6)" transform="translate(-17.439)">
    <g id="Group_2165" data-name="Group 2165" transform="translate(17.44 16.898)">
      <g id="Group_2164" data-name="Group 2164" transform="translate(0)">
        <path id="Path_8592" data-name="Path 8592" d="M31.418,288.389c-9.014,0-13.978,4.264-13.978,12.007a1.1,1.1,0,0,0,1.095,1.095H44.3A1.1,1.1,0,0,0,45.4,300.4C45.4,292.654,40.432,288.389,31.418,288.389ZM19.67,299.3c.431-5.789,4.378-8.723,11.748-8.723s11.318,2.933,11.749,8.723Z" transform="translate(-17.44 -288.389)" fill="#fff"/>
      </g>
    </g>
    <g id="Group_2167" data-name="Group 2167" transform="translate(24.155)">
      <g id="Group_2166" data-name="Group 2166">
        <path id="Path_8593" data-name="Path 8593" d="M139.312,0a7.176,7.176,0,0,0-7.263,7.408c0,4.347,3.258,7.883,7.263,7.883s7.263-3.536,7.263-7.883A7.176,7.176,0,0,0,139.312,0Zm0,13.1c-2.8,0-5.073-2.554-5.073-5.693a4.979,4.979,0,0,1,5.073-5.219,5.034,5.034,0,0,1,5.073,5.219C144.385,10.548,142.109,13.1,139.312,13.1Z" transform="translate(-132.049)" fill="#fff"/>
      </g>
    </g>
  </g>
</svg>
