<svg id="user" xmlns="http://www.w3.org/2000/svg" width="22.871" height="24.54" viewBox="0 0 22.871 24.54">
  <g id="Group_2165" data-name="Group 2165" transform="translate(0 13.823)">
    <g id="Group_2164" data-name="Group 2164" transform="translate(0)">
      <path id="Path_8592" data-name="Path 8592" d="M28.874,288.389c-7.373,0-11.434,3.488-11.434,9.822a.9.9,0,0,0,.9.9H39.411a.9.9,0,0,0,.9-.892C40.311,291.878,36.247,288.389,28.874,288.389Zm-9.61,8.925c.353-4.735,3.581-7.135,9.61-7.135s9.258,2.4,9.611,7.135Z" transform="translate(-17.44 -288.389)" fill="#fff"/>
    </g>
  </g>
  <g id="Group_2167" data-name="Group 2167" transform="translate(5.49 0)">
    <g id="Group_2166" data-name="Group 2166" transform="translate(0)">
      <path id="Path_8593" data-name="Path 8593" d="M137.989,0a5.87,5.87,0,0,0-5.941,6.06,5.961,5.961,0,1,0,11.882,0A5.87,5.87,0,0,0,137.989,0Zm0,10.716a4.429,4.429,0,0,1-4.15-4.657,4.073,4.073,0,0,1,4.15-4.269,4.118,4.118,0,0,1,4.15,4.269A4.429,4.429,0,0,1,137.989,10.716Z" transform="translate(-132.045 0.001)" fill="#fff"/>
    </g>
  </g>
</svg>
