<svg xmlns="http://www.w3.org/2000/svg" width="29.935" height="29" viewBox="0 0 29.935 29">
  <g id="white_side_menu_icon" transform="translate(-3208 -709.658)">
    <path id="menu_FILL0_wght600_GRAD0_opsz48" d="M7.118,31.912A1.589,1.589,0,0,1,5.5,30.294a1.5,1.5,0,0,1,.465-1.133,1.6,1.6,0,0,1,1.153-.445H19.472a1.566,1.566,0,0,1,1.153.465,1.518,1.518,0,0,1,.465,1.112,1.589,1.589,0,0,1-1.618,1.618Zm0-8.738a1.618,1.618,0,1,1,0-3.236h26.7a1.618,1.618,0,1,1,0,3.236Zm0-8.778a1.566,1.566,0,0,1-1.153-.465A1.518,1.518,0,0,1,5.5,12.818,1.589,1.589,0,0,1,7.118,11.2H27.177a1.589,1.589,0,0,1,1.618,1.618,1.5,1.5,0,0,1-.465,1.133,1.6,1.6,0,0,1-1.153.445Z" transform="translate(3202.5 702.845)" fill="#fff"/>
    <rect id="Rectangle_17" data-name="Rectangle 17" width="29" height="29" transform="translate(3208.468 709.658)" fill="none"/>
  </g>
</svg>
