<svg xmlns="http://www.w3.org/2000/svg" width="96" height="95.842" viewBox="0 0 96 95.842">
  <g id="wrench_1_" data-name="wrench (1)" transform="translate(0 -0.422)">
    <path id="Path_8562" data-name="Path 8562" d="M91.1,66.9a16.9,16.9,0,0,0-17.995-3.742l-2.7-2.7a5.865,5.865,0,0,0,.616-.533l6.739-6.725a5.857,5.857,0,0,0,0-8.278h0a5.857,5.857,0,0,0-4.467-1.7,6.62,6.62,0,0,0,.062-.9,6.48,6.48,0,0,0-6.191-6.475,6.476,6.476,0,0,0-6.908-8.491,6.651,6.651,0,0,0,.044-.746,6.435,6.435,0,0,0-1.9-4.587,6.513,6.513,0,0,0-9.186,0l-4.307,4.3L44.575,26A4.15,4.15,0,0,0,38.721,26l-1.429,1.426-4.166-4.16A16.74,16.74,0,0,0,14.362.718c-.784.148-3.171.6-3.66,2.422-.479,1.786,1.224,3.249,2.043,3.953.083.071,6.726,6.687,6.726,6.687a4.71,4.71,0,0,1,.28,6.348,4.743,4.743,0,0,1-6.371-.28s-6.63-6.628-6.7-6.711C5.973,12.321,4.5,10.622,2.719,11.1.894,11.593.444,13.972.3,14.754A16.736,16.736,0,0,0,4.9,29.738,16.9,16.9,0,0,0,22.894,33.48l4.823,4.812a11.633,11.633,0,0,0-.763,4.876c.229,3.773-1.771,7.474-6.688,12.374l-5.121,5.11a4.623,4.623,0,0,0-5.368.835L2.605,68.645a4.607,4.607,0,0,0,0,6.511L22.412,94.92a4.621,4.621,0,0,0,6.517,0L36.1,87.763a4.613,4.613,0,0,0,.841-5.36l8.712-8.693c2.582-2.576,3-2.507,5.737-2.05.46.077.982.164,1.569.248,2.388.343,5.16-.87,6.733-1.71l3.179,3.173a16.919,16.919,0,0,0-1.13,6.833,1.406,1.406,0,0,0,1.4,1.347h.06a1.406,1.406,0,0,0,1.346-1.464,14.042,14.042,0,0,1,1.263-6.45,1.406,1.406,0,0,0-.283-1.585l-22.5-22.457a12.327,12.327,0,0,0,1.49-5.359,15.419,15.419,0,0,0,5.833,3.087,10.229,10.229,0,0,0,4.734.236c0,.016,0,.032,0,.048a6.48,6.48,0,0,0,6.187,6.469,5.889,5.889,0,0,0-.254,1.717,5.843,5.843,0,0,0,5.857,5.849,5.886,5.886,0,0,0,.684-.041l4.228,4.218a1.406,1.406,0,0,0,1.579.283A14.076,14.076,0,0,1,89.114,68.89a13.925,13.925,0,0,1,3.827,12.47,4.819,4.819,0,0,1-.414,1.358,6.048,6.048,0,0,1-1.076-1.057c-.122-.141-6.844-6.864-6.844-6.864a7.563,7.563,0,0,0-10.277-.348,1.442,1.442,0,0,0-.135.134,7.529,7.529,0,0,0,.349,10.263l7.934,7.9a4.87,4.87,0,0,1-1.36.412,13.928,13.928,0,0,1-15.054-7.319,1.406,1.406,0,1,0-2.5,1.283,16.718,16.718,0,0,0,14.923,9.095,17.012,17.012,0,0,0,3.154-.3c.784-.148,3.171-.6,3.66-2.422.479-1.785-1.224-3.249-2.043-3.953-.083-.071-6.726-6.687-6.726-6.687a4.315,4.315,0,1,1,6.09-6.068s6.63,6.628,6.7,6.711c.705.817,2.174,2.516,3.959,2.035,1.825-.491,2.275-2.871,2.423-3.652A16.735,16.735,0,0,0,91.1,66.9ZM63.614,31.2a3.688,3.688,0,0,1,.051,5.144l-4.52,4.51C58.369,39.735,54.1,35.5,54.1,35.5l4.3-4.294A3.7,3.7,0,0,1,63.614,31.2ZM51.2,24.022a3.7,3.7,0,0,1,5.213,0,3.681,3.681,0,0,1,0,5.193l-4.307,4.3-5.209-5.2Zm-26.991,6.8a1.406,1.406,0,0,0-1.579-.283A14.077,14.077,0,0,1,6.886,27.747,13.925,13.925,0,0,1,3.06,15.277a4.82,4.82,0,0,1,.414-1.358,6.048,6.048,0,0,1,1.076,1.057c.122.141,6.844,6.864,6.844,6.864a7.563,7.563,0,0,0,10.277.348,1.444,1.444,0,0,0,.135-.134,7.529,7.529,0,0,0-.349-10.263s-7.8-7.694-7.934-7.9a4.87,4.87,0,0,1,1.36-.412A13.93,13.93,0,0,1,30.184,23a1.406,1.406,0,0,0,.284,1.583L35.3,29.415l-5.24,5.228a9.865,9.865,0,0,0-.933,1.085Zm32.776,12.19a6.521,6.521,0,0,0-.942,1.19c-3,1.856-7.732-.188-10.089-2.459l-.292-.291c-2.154-2.147-3.3-3.29-3.406-3.4l-.006-.005-.015-.016-.023-.02a1.405,1.405,0,0,0-1.992,1.981l.028.029A5.33,5.33,0,0,1,41.718,43.9a10.876,10.876,0,0,1-3.4,7.36,1.406,1.406,0,0,0,1.987,1.991,15.994,15.994,0,0,0,1.138-1.269L57.6,68.106a8.485,8.485,0,0,1-4.239,1.017c-.556-.079-1.06-.163-1.5-.238-3.258-.544-4.719-.627-8.187,2.833l-8.56,8.541L28.036,73.2a1.406,1.406,0,1,0-1.986,1.991l8.063,8.045h0l0,0a1.794,1.794,0,0,1,0,2.53l-7.173,7.157a1.8,1.8,0,0,1-2.544,0L4.591,73.166a1.794,1.794,0,0,1,0-2.53l7.173-7.157a1.8,1.8,0,0,1,2.544,0L21.4,70.556a1.406,1.406,0,0,0,1.987-1.991l-6.1-6.082,4.961-4.95C27.8,52.006,30.044,47.659,29.762,43a8.482,8.482,0,0,1,2.285-6.366l8.66-8.641a1.35,1.35,0,0,1,1.881-.005l1.324,1.321,9.165,9.144c.247.247.494.491.737.732a23.162,23.162,0,0,1,3.3,3.7Zm4.593,8.258A3.671,3.671,0,0,1,58.974,45l5.28-5.268a3.7,3.7,0,0,1,5.213,0h0a3.672,3.672,0,0,1,0,5.19v0L64.186,50.2a3.656,3.656,0,0,1-2.605,1.073Zm3.138,6.67a3.045,3.045,0,0,1,0-4.3l6.734-6.724a3.063,3.063,0,0,1,4.32,0h0a3.045,3.045,0,0,1,0,4.3l-6.739,6.725a3.06,3.06,0,0,1-4.315,0Z" transform="translate(0 0)"/>
  </g>
</svg>
