<svg xmlns="http://www.w3.org/2000/svg" width="63.332" height="63.345" viewBox="0 0 63.332 63.345">
  <g id="exclusive-offers" transform="translate(0 0.013)">
    <path id="Path_8557" data-name="Path 8557" d="M50.818,43.666H5.958A3.963,3.963,0,0,1,2,39.708V13.319A1.32,1.32,0,0,1,3.319,12H53.457a1.32,1.32,0,0,1,1.319,1.319V39.708a3.963,3.963,0,0,1-3.958,3.958ZM4.639,14.639V39.708a1.323,1.323,0,0,0,1.319,1.319h44.86a1.323,1.323,0,0,0,1.319-1.319V14.639Z" transform="translate(3.278 19.666)"/>
    <path id="Path_8558" data-name="Path 8558" d="M59.374,22.833H3.958A3.963,3.963,0,0,1,0,18.875V10.958A3.963,3.963,0,0,1,3.958,7H59.374a3.963,3.963,0,0,1,3.958,3.958v7.917a3.963,3.963,0,0,1-3.958,3.958ZM3.958,9.639a1.323,1.323,0,0,0-1.319,1.319v7.917a1.323,1.323,0,0,0,1.319,1.319H59.374a1.323,1.323,0,0,0,1.319-1.319V10.958a1.323,1.323,0,0,0-1.319-1.319Z" transform="translate(0 11.472)"/>
    <path id="Path_8559" data-name="Path 8559" d="M12.82,21.111a1.32,1.32,0,0,1-1.306-1.5C11.543,19.409,14.493,0,29.972,0c6.819,0,9.239,3.684,9.239,6.837,0,5.927-8.188,14.273-26.391,14.273ZM29.972,2.639c-10.851,0-14.551,11.571-15.54,15.807,14.458-.449,22.14-6.9,22.14-11.608A3.433,3.433,0,0,0,35.11,3.974,8.6,8.6,0,0,0,29.972,2.639Z" transform="translate(18.846)"/>
    <path id="Path_8560" data-name="Path 8560" d="M28.391,21.111C10.188,21.111,2,12.764,2,6.837A6.106,6.106,0,0,1,4.515,1.863,11.147,11.147,0,0,1,11.239,0C26.718,0,29.668,19.409,29.7,19.607a1.32,1.32,0,0,1-1.306,1.5ZM11.239,2.639c-4.072,0-6.6,1.607-6.6,4.2,0,4.708,7.687,11.162,22.153,11.611C25.834,14.186,22.227,2.639,11.239,2.639Z" transform="translate(3.278)"/>
    <path id="Path_8561" data-name="Path 8561" d="M12.819,51.86A1.32,1.32,0,0,1,11.5,50.541V8.319a1.319,1.319,0,1,1,2.639,0V50.541a1.32,1.32,0,0,1-1.32,1.319Z" transform="translate(18.847 11.472)"/>
  </g>
</svg>
