<svg xmlns="http://www.w3.org/2000/svg" width="64.672" height="64.57" viewBox="0 0 64.672 64.57">
  <g id="installation" transform="translate(0.002 -0.416)">
    <path id="Path_8562" data-name="Path 8562" d="M61.369,45.2a11.387,11.387,0,0,0-12.122-2.521l-1.82-1.816a3.953,3.953,0,0,0,.415-.359l4.54-4.53a3.946,3.946,0,0,0,0-5.577h0a3.946,3.946,0,0,0-3.009-1.146,4.462,4.462,0,0,0,.042-.6,4.365,4.365,0,0,0-4.171-4.362,4.363,4.363,0,0,0-4.653-5.72,4.48,4.48,0,0,0,.029-.5,4.335,4.335,0,0,0-1.278-3.09,4.388,4.388,0,0,0-6.188,0l-2.9,2.9-.225-.224a2.8,2.8,0,0,0-3.943,0l-.963.961-2.806-2.8A11.277,11.277,0,0,0,9.675.622c-.528.1-2.136.4-2.466,1.632-.323,1.2.825,2.189,1.376,2.663.056.048,4.531,4.5,4.531,4.5a3.173,3.173,0,0,1,.189,4.276A3.2,3.2,0,0,1,9.013,13.5S4.547,9.044,4.5,8.988c-.475-.55-1.464-1.694-2.667-1.371C.6,7.947.3,9.55.2,10.077A11.274,11.274,0,0,0,3.3,20.171a11.387,11.387,0,0,0,12.122,2.521l3.249,3.242a7.837,7.837,0,0,0-.514,3.285c.154,2.542-1.193,5.035-4.505,8.336L10.2,41a3.114,3.114,0,0,0-3.616.563L1.755,46.38a3.1,3.1,0,0,0,0,4.386L15.1,64.08a3.113,3.113,0,0,0,4.39,0l4.832-4.821a3.108,3.108,0,0,0,.567-3.611l5.869-5.856c1.74-1.736,2.022-1.689,3.865-1.381.31.052.662.111,1.057.167a8.191,8.191,0,0,0,4.536-1.152l2.142,2.137a11.4,11.4,0,0,0-.761,4.6.947.947,0,0,0,.946.908h.041a.947.947,0,0,0,.907-.986,9.459,9.459,0,0,1,.851-4.345.947.947,0,0,0-.191-1.068L28.987,33.546a8.3,8.3,0,0,0,1-3.61,10.387,10.387,0,0,0,3.929,2.079,6.891,6.891,0,0,0,3.189.159v.032a4.365,4.365,0,0,0,4.168,4.358,3.94,3.94,0,0,0,4.235,5.068l2.848,2.842a.947.947,0,0,0,1.064.19,9.483,9.483,0,0,1,10.607,1.88,9.381,9.381,0,0,1,2.578,8.4,3.247,3.247,0,0,1-.279.915,4.074,4.074,0,0,1-.725-.712c-.082-.1-4.611-4.624-4.611-4.624a5.1,5.1,0,0,0-6.923-.234.972.972,0,0,0-.091.09,5.072,5.072,0,0,0,.235,6.914l5.345,5.319a3.28,3.28,0,0,1-.916.277A9.383,9.383,0,0,1,44.5,57.962a.947.947,0,1,0-1.686.864A11.262,11.262,0,0,0,52.87,64.953a11.46,11.46,0,0,0,2.125-.2c.528-.1,2.136-.4,2.466-1.632.323-1.2-.825-2.189-1.376-2.663-.056-.048-4.531-4.5-4.531-4.5a2.907,2.907,0,1,1,4.1-4.088s4.466,4.465,4.515,4.521c.475.55,1.465,1.695,2.667,1.371,1.229-.331,1.533-1.934,1.632-2.46a11.273,11.273,0,0,0-3.1-10.094ZM42.853,21.159a2.484,2.484,0,0,1,.035,3.465l-3.045,3.038c-.523-.757-3.4-3.61-3.4-3.61l2.9-2.892a2.49,2.49,0,0,1,3.51,0ZM34.492,16.32A2.479,2.479,0,0,1,38,19.82l-2.9,2.9-3.509-3.5ZM16.31,20.9a.947.947,0,0,0-1.064-.19A9.483,9.483,0,0,1,4.639,18.83a9.381,9.381,0,0,1-2.578-8.4,3.247,3.247,0,0,1,.279-.915,4.074,4.074,0,0,1,.725.712c.082.1,4.611,4.624,4.611,4.624a5.1,5.1,0,0,0,6.923.234.973.973,0,0,0,.091-.09,5.072,5.072,0,0,0-.235-6.914S9.2,2.9,9.11,2.761a3.28,3.28,0,0,1,.916-.277,9.384,9.384,0,0,1,10.307,13.15.947.947,0,0,0,.191,1.067l3.256,3.252-3.53,3.522a6.644,6.644,0,0,0-.628.731Zm22.08,8.212a4.393,4.393,0,0,0-.635.8c-2.018,1.25-5.208-.127-6.8-1.656l-.2-.2c-1.451-1.446-2.223-2.217-2.3-2.29h0l-.01-.011-.015-.013A.947.947,0,0,0,27.1,27.079l.019.02a3.59,3.59,0,0,1,.988,2.613,7.327,7.327,0,0,1-2.289,4.958.947.947,0,1,0,1.338,1.341,10.773,10.773,0,0,0,.767-.855L38.8,46.017a5.716,5.716,0,0,1-2.856.685c-.374-.053-.714-.11-1.014-.16-2.2-.366-3.179-.422-5.515,1.909L23.651,54.2l-4.765-4.754a.947.947,0,1,0-1.338,1.341l5.432,5.42h0a1.209,1.209,0,0,1,0,1.7l-4.83,4.832a1.215,1.215,0,0,1-1.714,0L3.093,49.426a1.209,1.209,0,0,1,0-1.7L7.925,42.9a1.215,1.215,0,0,1,1.714,0l4.778,4.767a.947.947,0,1,0,1.338-1.341l-4.106-4.1L14.991,38.9c3.736-3.724,5.249-6.652,5.059-9.791a5.714,5.714,0,0,1,1.539-4.288L27.422,19a.909.909,0,0,1,1.267,0l.892.89,6.174,6.16.5.493a15.6,15.6,0,0,1,2.223,2.492Zm3.094,5.563a2.473,2.473,0,0,1-1.756-4.222L43.284,26.9a2.49,2.49,0,0,1,3.512,0h0a2.474,2.474,0,0,1,0,3.5h0l-3.557,3.549a2.463,2.463,0,0,1-1.755.723ZM43.6,39.168a2.051,2.051,0,0,1,0-2.894l4.536-4.53a2.063,2.063,0,0,1,2.91,0h0a2.051,2.051,0,0,1,0,2.894l-4.54,4.53a2.061,2.061,0,0,1-2.907,0Z"/>
  </g>
</svg>
