<svg xmlns="http://www.w3.org/2000/svg" width="57.333" height="63.813" viewBox="0 0 57.333 63.813">
  <g id="secure_payments" transform="translate(-25.999 0)">
    <g id="Group_2092" data-name="Group 2092" transform="translate(25.999)">
      <g id="Group_2091" data-name="Group 2091">
        <path id="Path_8551" data-name="Path 8551" d="M82.4,11.045A116.248,116.248,0,0,1,55.273.158a1.247,1.247,0,0,0-1.216,0A113.067,113.067,0,0,1,26.933,11.045,1.246,1.246,0,0,0,26,12.252V26.01A38.563,38.563,0,0,0,38.671,54.882c6.2,5.75,13.393,8.931,15.993,8.931s9.792-3.18,15.993-8.931A38.563,38.563,0,0,0,83.331,26.01V12.251a1.247,1.247,0,0,0-.931-1.206ZM68.964,53.053A40.667,40.667,0,0,1,60,59.375a16.068,16.068,0,0,1-5.331,1.945,16.066,16.066,0,0,1-5.331-1.945,40.675,40.675,0,0,1-8.967-6.321A36.125,36.125,0,0,1,28.492,26.01V13.21A115.357,115.357,0,0,0,54.665,2.671a118.978,118.978,0,0,0,26.173,10.54v12.8h0A36.126,36.126,0,0,1,68.964,53.053Z" transform="translate(-25.999)"/>
      </g>
    </g>
    <g id="Group_2094" data-name="Group 2094" transform="translate(30.361 4.968)">
      <g id="Group_2093" data-name="Group 2093">
        <path id="Path_8552" data-name="Path 8552" d="M108.707,49.271a120.191,120.191,0,0,1-22.819-9.265,1.246,1.246,0,0,0-1.171,0A118.759,118.759,0,0,1,61.9,49.274a1.246,1.246,0,0,0-.9,1.2V60.9a34.649,34.649,0,0,0,2.741,13.74A35.031,35.031,0,0,0,71.768,86.1a39.325,39.325,0,0,0,8.4,6.159A22.555,22.555,0,0,0,85.075,94.3a1.247,1.247,0,0,0,.452,0,22.556,22.556,0,0,0,4.911-2.047,39.341,39.341,0,0,0,8.4-6.159,35.029,35.029,0,0,0,8.028-11.458A34.648,34.648,0,0,0,109.605,60.9V50.468a1.246,1.246,0,0,0-.9-1.2ZM107.113,60.9a31.365,31.365,0,0,1-10,23.4,36.807,36.807,0,0,1-7.856,5.764A22.129,22.129,0,0,1,85.3,91.8a22.125,22.125,0,0,1-3.95-1.737A36.81,36.81,0,0,1,73.5,84.3,31.365,31.365,0,0,1,63.491,60.9V51.4A121.28,121.28,0,0,0,85.3,42.517,122.734,122.734,0,0,0,107.113,51.4Z" transform="translate(-60.998 -39.861)"/>
      </g>
    </g>
    <g id="Group_2096" data-name="Group 2096" transform="translate(42.132 44.224)">
      <g id="Group_2095" data-name="Group 2095">
        <path id="Path_8553" data-name="Path 8553" d="M157.635,355.266l-.025-.027a1.246,1.246,0,0,0-1.847,1.674l.025.027a1.246,1.246,0,0,0,1.847-1.674Z" transform="translate(-155.443 -354.833)"/>
      </g>
    </g>
    <g id="Group_2098" data-name="Group 2098" transform="translate(44.672 46.75)">
      <g id="Group_2097" data-name="Group 2097">
        <path id="Path_8554" data-name="Path 8554" d="M182.2,378.669a32.473,32.473,0,0,1-4.3-3.246,1.246,1.246,0,0,0-1.661,1.858,34.962,34.962,0,0,0,4.628,3.5,1.246,1.246,0,0,0,1.33-2.108Z" transform="translate(-175.826 -375.106)"/>
      </g>
    </g>
    <g id="Group_2100" data-name="Group 2100" transform="translate(45.399 15.362)">
      <g id="Group_2099" data-name="Group 2099">
        <path id="Path_8555" data-name="Path 8555" d="M197.512,133.954v-4.1a6.593,6.593,0,0,0-13.186,0v4.1a2.777,2.777,0,0,0-2.673,2.771v9.568a2.777,2.777,0,0,0,2.774,2.774h12.984a2.777,2.777,0,0,0,2.774-2.774v-9.568a2.777,2.777,0,0,0-2.673-2.771Zm-10.693-4.1a4.1,4.1,0,0,1,8.2,0v4.1h-8.2ZM197.693,146.3a.285.285,0,0,1-.281.281H184.427a.285.285,0,0,1-.281-.281v-9.568h0a.285.285,0,0,1,.281-.281h12.984a.285.285,0,0,1,.281.281Z" transform="translate(-181.653 -123.258)"/>
      </g>
    </g>
    <g id="Group_2102" data-name="Group 2102" transform="translate(52.922 31.113)">
      <g id="Group_2101" data-name="Group 2101">
        <path id="Path_8556" data-name="Path 8556" d="M243.761,249.64a1.74,1.74,0,0,0-1.246,2.957v1.22a1.246,1.246,0,1,0,2.493,0V252.6a1.74,1.74,0,0,0-1.246-2.957Z" transform="translate(-242.018 -249.64)"/>
      </g>
    </g>
  </g>
</svg>
