<svg xmlns="http://www.w3.org/2000/svg" width="72" height="45.539" viewBox="0 0 72 45.539">
  <g id="shipping" transform="translate(0 -94.067)">
    <g id="Group_2080" data-name="Group 2080" transform="translate(0 94.062)">
      <g id="Group_2079" data-name="Group 2079">
        <path id="Path_8545" data-name="Path 8545" d="M66.961,113.37,65.1,105.912a1.128,1.128,0,0,0,.892-1.1v-1.2a4.74,4.74,0,0,0-4.735-4.735h-8.5V96.4a2.332,2.332,0,0,0-2.33-2.33H7.14A2.332,2.332,0,0,0,4.81,96.4V116.84a1.128,1.128,0,0,0,2.255,0V96.392a.075.075,0,0,1,.075-.075H50.431a.075.075,0,0,1,.075.075v20.443a1.128,1.128,0,1,0,2.255,0v-1.278H66.066a3.689,3.689,0,0,1,3.5,2.555h-3.5a1.127,1.127,0,0,0-1.127,1.127v2.4a3.536,3.536,0,0,0,3.532,3.532h1.278v4.96H66.8a7.138,7.138,0,0,0-13.5,0h-.54v-8.493a1.128,1.128,0,1,0-2.255,0v8.493H27.115a7.138,7.138,0,0,0-13.5,0H7.14a.075.075,0,0,1-.075-.075v-2.48H11.95a1.127,1.127,0,1,0,0-2.255H1.127a1.127,1.127,0,1,0,0,2.255H4.81v2.48a2.332,2.332,0,0,0,2.33,2.33h6.09v.075a7.14,7.14,0,0,0,14.28,0v-.075h25.4v.075a7.14,7.14,0,0,0,14.28,0v-.075h3.685A1.127,1.127,0,0,0,72,131.265V119.24a5.946,5.946,0,0,0-5.039-5.87Zm-14.2-12.243h8.493a2.483,2.483,0,0,1,2.48,2.48v.075H52.761Zm0,12.176v-7.365H62.778L64.62,113.3Zm-32.393,24.05a4.885,4.885,0,1,1,4.885-4.885,4.885,4.885,0,0,1-4.885,4.885Zm39.683,0a4.885,4.885,0,1,1,4.885-4.885,4.885,4.885,0,0,1-4.885,4.885Zm9.7-14.43H68.469a1.279,1.279,0,0,1-1.278-1.278v-1.278h2.555v2.555Z" transform="translate(0 -94.062)"/>
      </g>
    </g>
    <g id="Group_2082" data-name="Group 2082" transform="translate(18.038 130.138)">
      <g id="Group_2081" data-name="Group 2081">
        <path id="Path_8546" data-name="Path 8546" d="M130.6,350.6a2.33,2.33,0,1,0,2.33,2.33,2.33,2.33,0,0,0-2.33-2.33Z" transform="translate(-128.267 -350.597)"/>
      </g>
    </g>
    <g id="Group_2084" data-name="Group 2084" transform="translate(57.721 130.138)">
      <g id="Group_2083" data-name="Group 2083">
        <path id="Path_8547" data-name="Path 8547" d="M412.785,350.6a2.33,2.33,0,1,0,2.33,2.33,2.33,2.33,0,0,0-2.33-2.33Z" transform="translate(-410.455 -350.597)"/>
      </g>
    </g>
    <g id="Group_2086" data-name="Group 2086" transform="translate(28.861 125.328)">
      <g id="Group_2085" data-name="Group 2085">
        <path id="Path_8548" data-name="Path 8548" d="M223.19,316.393H206.354a1.128,1.128,0,0,0,0,2.255H223.19a1.128,1.128,0,0,0,0-2.255Z" transform="translate(-205.227 -316.393)"/>
      </g>
    </g>
    <g id="Group_2088" data-name="Group 2088" transform="translate(2.405 120.518)">
      <g id="Group_2087" data-name="Group 2087">
        <path id="Path_8549" data-name="Path 8549" d="M32.66,282.188H18.229a1.128,1.128,0,0,0,0,2.255H32.66a1.128,1.128,0,1,0,0-2.255Z" transform="translate(-17.102 -282.188)"/>
      </g>
    </g>
    <g id="Group_2090" data-name="Group 2090" transform="translate(20.443 104.885)">
      <g id="Group_2089" data-name="Group 2089">
        <path id="Path_8550" data-name="Path 8550" d="M164.13,171.353a1.127,1.127,0,0,0-1.594,0L152.51,181.378l-5.215-5.215a1.127,1.127,0,1,0-1.594,1.594l6.013,6.013a1.127,1.127,0,0,0,1.594,0l10.823-10.823a1.128,1.128,0,0,0,0-1.594Z" transform="translate(-145.37 -171.023)"/>
      </g>
    </g>
  </g>
</svg>
