<svg xmlns="http://www.w3.org/2000/svg" width="25.04" height="24.083" viewBox="0 0 25.04 24.083">
  <path id="favorite" d="M17.616,10.346a6.924,6.924,0,0,0-5.346,2.531A6.92,6.92,0,0,0,0,17.269c0,2.989,1.782,6.447,5.3,10.276A51.026,51.026,0,0,0,11.784,33.4l.486.365.486-.365a51.026,51.026,0,0,0,6.486-5.858c3.516-3.83,5.3-7.287,5.3-10.276A6.931,6.931,0,0,0,17.616,10.346Zm.434,16.106a49.207,49.207,0,0,1-5.78,5.287,49.213,49.213,0,0,1-5.78-5.287C3.3,22.98,1.618,19.8,1.618,17.269A5.3,5.3,0,0,1,11.562,14.7l.708,1.276.708-1.276a5.3,5.3,0,0,1,9.944,2.567C22.922,19.8,21.237,22.98,18.05,26.452Z" transform="translate(0.25 -9.999)" fill="#fff" stroke="#fff" stroke-width="0.5"/>
</svg>
