<svg xmlns="http://www.w3.org/2000/svg" width="22" height="30.557" viewBox="0 0 22 30.557">
  <g id="unlock" transform="translate(0 0.001)">
    <path id="Path_8503" data-name="Path 8503" d="M98.944,23.444H84.889V17.333a6.111,6.111,0,0,1,12.222,0,.611.611,0,0,0,1.222,0,7.333,7.333,0,1,0-14.667,0v6.111h-.611A3.059,3.059,0,0,0,80,26.5v11a3.059,3.059,0,0,0,3.056,3.056H98.944A3.059,3.059,0,0,0,102,37.5v-11a3.059,3.059,0,0,0-3.056-3.056ZM100.778,37.5a1.835,1.835,0,0,1-1.833,1.833H83.056A1.835,1.835,0,0,1,81.222,37.5v-11a1.835,1.835,0,0,1,1.833-1.833H98.944a1.835,1.835,0,0,1,1.833,1.833Z" transform="translate(-80 -10)" fill="#707070"/>
    <path id="Path_8504" data-name="Path 8504" d="M213.056,290a3.056,3.056,0,0,0-.611,6.05v3.117a.611.611,0,0,0,1.222,0V296.05a3.056,3.056,0,0,0-.611-6.05Zm0,4.889a1.833,1.833,0,1,1,1.833-1.833,1.833,1.833,0,0,1-1.833,1.833Z" transform="translate(-202.056 -272.889)" fill="#707070"/>
  </g>
</svg>
