<svg xmlns="http://www.w3.org/2000/svg" width="40.745" height="48" viewBox="0 0 40.745 48">
  <g id="cash-on-delivery" transform="translate(-42.7 -4.01)">
    <path id="Path_8983" data-name="Path 8983" d="M42.7,260.28v13.888a.731.731,0,0,0,.731.731h4.382a2.194,2.194,0,0,0,2.162-1.856l6.979,3.218a9.445,9.445,0,0,0,10.2-1.631l9.3-8.422a2.214,2.214,0,0,0-1.589-3.835v-7.94a2.2,2.2,0,0,0-2.193-2.193c-2.642,0-8.372,0-10.964,0H55.126a2.2,2.2,0,0,0-2.193,2.193v6.6c-.018-.044-2.926-.017-3.059-.024a2.193,2.193,0,0,0-2.061-1.462H43.431a.731.731,0,0,0-.731.731ZM65.359,253.7v3l-1.05-.717c-.609-.439-1.29.391-1.874.717v-3Zm-10.233,0h5.848v4.386a.773.773,0,0,0,.281.562.748.748,0,0,0,.862.042l1.781-1.217,1.78,1.217a.733.733,0,0,0,.948-.114.853.853,0,0,0,.2-.489V253.7h5.848a.732.732,0,0,1,.731.731v8.458l-10.756,5.246a3.3,3.3,0,0,0-2.809-4.932h-4.9a4.663,4.663,0,0,0-.544-1.3v-7.469a.732.732,0,0,1,.731-.731Zm-1.8,9.272c.274.637.3,1.7,1.087,1.692h5.425a1.827,1.827,0,0,1,0,3.654H56.588a.731.731,0,1,0,0,1.462h5.848a.734.734,0,0,0,.32-.074l11.886-5.8a.7.7,0,0,1,.937.245.717.717,0,0,1-.112.97l-9.3,8.42a7.98,7.98,0,0,1-8.61,1.384l-7.55-3.481v-8.975h2.622A.728.728,0,0,1,53.324,262.974Zm-9.162-1.963h3.651a.736.736,0,0,1,.735.735V272.7a.736.736,0,0,1-.735.735H44.162Z" transform="translate(0 -225.071)" fill="#818181"/>
    <path id="Path_8984" data-name="Path 8984" d="M291.909,354.6H294.1a.731.731,0,0,0,0-1.462h-2.193A.731.731,0,0,0,291.909,354.6Z" transform="translate(-225.205 -316.397)" fill="#818181"/>
    <path id="Path_8985" data-name="Path 8985" d="M108.047,20.08V9.116a.729.729,0,0,0-.727-.731c-.514.044-4.7-.122-5.083.132l-6.3-3.551a7.269,7.269,0,0,0-8.665,1.1L83.925,9.324,78.539,5.975l-2.477-1.54a.729.729,0,0,0-1.006.245l-3.575,5.964-1.517,2.531a.733.733,0,0,0,.234,1l14.995,9.518c3.72,2.289,2.635,2.5,5.046-1.127h0l1.372-2.138,1.4.853a5.009,5.009,0,0,0,5.325-.049l2.648-1.681a2.179,2.179,0,0,0,1.97,1.267h4.364a.729.729,0,0,0,.727-.731ZM75.922,6.067l1.128.7a2.1,2.1,0,0,1-1.823.458Zm-3.651,6.092a2.2,2.2,0,0,1,.441,1.876l-1.134-.72ZM87.824,23.627l-1.135-.72a2.1,2.1,0,0,1,1.874-.431Zm1.552-2.416a3.58,3.58,0,0,0-3.963.885L73.985,14.843a3.7,3.7,0,0,0-.93-3.992l1.4-2.334a3.578,3.578,0,0,0,3.88-.951l7.833,4.87a2.747,2.747,0,0,0-.013,4.658l4.215,2.568ZM97.56,19.99a3.567,3.567,0,0,1-3.793.035l-6.859-4.179a1.25,1.25,0,0,1,1.268-2.154l4.556,2.828c.312.219.767.484,1.135.238a.73.73,0,0,0,.015-1.242l-8.681-5.4,3.087-3.006a5.814,5.814,0,0,1,6.936-.874l5.829,3.287a2.171,2.171,0,0,0-.279,1.051V17.95Zm9.033-.64h-3.637a.73.73,0,0,1-.727-.731V10.576a.728.728,0,0,1,.726-.729h3.638Z" transform="translate(-24.602)" fill="#818181"/>
    <path id="Path_8986" data-name="Path 8986" d="M170.047,89.268a2.924,2.924,0,0,0,0,5.848A2.924,2.924,0,0,0,170.047,89.268Zm0,4.386a1.462,1.462,0,0,1,0-2.924A1.462,1.462,0,0,1,170.047,93.654Z" transform="translate(-112.79 -77.27)" fill="#818181"/>
    <path id="Path_8987" data-name="Path 8987" d="M432,137.082a.734.734,0,1,0-1.038,0A.742.742,0,0,0,432,137.082Z" transform="translate(-351.688 -119.465)" fill="#818181"/>
    <path id="Path_8988" data-name="Path 8988" d="M73.968,446.447a.742.742,0,0,0,0,1.038.734.734,0,1,0,0-1.038Z" transform="translate(-28.132 -400.793)" fill="#818181"/>
  </g>
</svg>
