<svg id="return-box" xmlns="http://www.w3.org/2000/svg" width="47.968" height="48" viewBox="0 0 47.968 48">
  <path id="Path_8505" data-name="Path 8505" d="M11.517,86.7c-.33-.647-.636-1.315-.909-1.986a.673.673,0,0,0-1.247.507c.287.707.609,1.41.957,2.091a.673.673,0,1,0,1.2-.612Z" transform="translate(-7.393 -52.355)" fill="#818181"/>
  <path id="Path_8506" data-name="Path 8506" d="M8.237,77.4c-.216-.694-.4-1.4-.56-2.112a.673.673,0,1,0-1.315.289c.163.745.361,1.493.588,2.224a.673.673,0,0,0,1.286-.4Z" transform="translate(-5.758 -46.572)" fill="#818181"/>
  <path id="Path_8507" data-name="Path 8507" d="M6,68.434a.673.673,0,0,0,.579-.755c-.1-.718-.161-1.449-.2-2.177a.664.664,0,0,0-.7-.64.673.673,0,0,0-.64.7c.036.766.105,1.536.205,2.288A.673.673,0,0,0,6,68.433Z" transform="translate(-5.035 -40.561)" fill="#818181"/>
  <path id="Path_8508" data-name="Path 8508" d="M29.893,109.534c-.6-.406-1.193-.843-1.759-1.3a.673.673,0,0,0-.844,1.049c.595.478,1.217.938,1.85,1.365a.673.673,0,1,0,.752-1.115Z" transform="translate(-18.399 -67.291)" fill="#818181"/>
  <path id="Path_8509" data-name="Path 8509" d="M15.092,93.51a.673.673,0,1,0-1.143.711c.4.647.838,1.286,1.3,1.9a.673.673,0,1,0,1.08-.8C15.89,94.73,15.475,94.123,15.092,93.51Z" transform="translate(-9.893 -57.743)" fill="#818181"/>
  <path id="Path_8510" data-name="Path 8510" d="M20.991,101.421a.673.673,0,1,0-1.008.892c.507.573,1.045,1.129,1.6,1.656a.673.673,0,1,0,.929-.974C21.983,102.494,21.473,101.964,20.991,101.421Z" transform="translate(-13.183 -63.491)" fill="#818181"/>
  <path id="Path_8511" data-name="Path 8511" d="M35.21,2.9A23.645,23.645,0,0,0,15.833,13.092a.6.6,0,0,0,.142.828.581.581,0,0,0,.817-.144A22.327,22.327,0,0,1,46.962,7.464a22.971,22.971,0,0,1,8.131,30.1A22.374,22.374,0,0,1,25.955,47.7c-.574-.263-1.147-.554-1.7-.868a.582.582,0,0,0-.8.229.6.6,0,0,0,.226.808c.583.329,1.184.637,1.789.913A23.461,23.461,0,0,0,51.61,44.215a24.223,24.223,0,0,0,5.576-26.27A23.694,23.694,0,0,0,35.21,2.9Z" transform="translate(-10.929 -2.9)" fill="#818181"/>
  <path id="Path_8512" data-name="Path 8512" d="M13.487,27.469A1.874,1.874,0,0,1,11.64,25.9l-.56-3.477a.673.673,0,0,1,1.329-.214l.561,3.476a.528.528,0,0,0,.6.435l3.476-.56a.673.673,0,0,1,.214,1.329l-3.476.56A1.864,1.864,0,0,1,13.487,27.469Z" transform="translate(-8.365 -14.349)" fill="#818181"/>
  <path id="Path_8513" data-name="Path 8513" d="M54.049,25.6,40.52,18.341a1.753,1.753,0,0,0-1.665,0L25.326,25.6a1.82,1.82,0,0,0-.954,1.61V43.372a1.82,1.82,0,0,0,.954,1.61l13.529,7.264a1.757,1.757,0,0,0,1.665,0l13.528-7.264A1.82,1.82,0,0,0,55,43.372V27.214A1.82,1.82,0,0,0,54.049,25.6ZM34.409,30.258a1.815,1.815,0,0,0-.98,1.624v6.482a.051.051,0,0,1-.037.055.048.048,0,0,1-.063-.014l-1.217-1.294a1.166,1.166,0,0,0-1.093-.34l-.794.174a.057.057,0,0,1-.049-.012.06.06,0,0,1-.022-.046V29.62a.682.682,0,0,1,.369-.612l14.016-7.227,3.091,1.66Zm4.964-10.914a.663.663,0,0,1,.628,0l3.33,1.788L30.022,28a1.773,1.773,0,0,0-.374.26l-3.506-1.808Zm-.243,31.767L25.845,43.978a.685.685,0,0,1-.359-.605V27.381l3.6,1.856a1.843,1.843,0,0,0-.044.383v7.266a1.2,1.2,0,0,0,.435.928,1.156,1.156,0,0,0,.983.239l.794-.174a.053.053,0,0,1,.055.017l1.217,1.294a1.156,1.156,0,0,0,1.283.282,1.194,1.194,0,0,0,.735-1.107V32.052l4.338,2.237a1.7,1.7,0,0,0,.249.1Zm.254-17.834L35.2,31.121,48.838,24.09l4.394,2.359L39.992,33.277a.665.665,0,0,1-.608,0ZM53.889,43.371a.685.685,0,0,1-.359.605L40.244,51.112V34.392a1.738,1.738,0,0,0,.251-.1l13.394-6.907Z" transform="translate(-15.696 -11.297)" fill="#818181"/>
</svg>
