<svg xmlns="http://www.w3.org/2000/svg" width="30.925" height="48" viewBox="0 0 30.925 48">
  <g id="_x32_7_Warranty" transform="translate(-91.73 -1.031)">
    <g id="Group_3497" data-name="Group 3497" transform="translate(91.73 1.031)">
      <path id="Path_8980" data-name="Path 8980" d="M116.189,29.055a15.462,15.462,0,1,0-17.989,0l-5.054,15.7a1.179,1.179,0,0,0,.35,1.253,1.162,1.162,0,0,0,1.289.167l4.572-2.2,2.378,4.434a1.182,1.182,0,0,0,2.164-.2l3.291-10.24,3.294,10.24a1.183,1.183,0,0,0,2.166.194l2.438-4.448,4.511,2.213h0a1.182,1.182,0,0,0,1.644-1.421ZM92.864,16.493a14.329,14.329,0,1,1,14.277,14.339A14.345,14.345,0,0,1,92.864,16.493Zm9.956,31.375-2.461-4.422a1.185,1.185,0,0,0-1.562-.5c-.076.034-4.648,2.088-4.571,2.158l4.95-15.373a15.629,15.629,0,0,0,8.76,2.223Zm12.767-4.926a1.181,1.181,0,0,0-1.559.5c-.043.076-2.54,4.423-2.464,4.427L107.787,36.13l1.379-4.286a16.482,16.482,0,0,0,6.046-2.116l4.937,15.42Z" transform="translate(-91.73 -1.031)" fill="#818181"/>
      <path id="Path_8981" data-name="Path 8981" d="M154.249,53a10.673,10.673,0,1,0,10.526,10.663A10.606,10.606,0,0,0,154.249,53Zm0,20.2a9.529,9.529,0,1,1,9.4-9.537A9.478,9.478,0,0,1,154.249,73.2Z" transform="translate(-138.787 -48.063)" fill="#818181"/>
      <path id="Path_8982" data-name="Path 8982" d="M220.08,132.307l-4.911,4.711-1.281-1.777a.572.572,0,0,0-.928.669l1.666,2.311a.572.572,0,0,0,.86.078l5.386-5.167a.572.572,0,0,0-.792-.825Z" transform="translate(-201.487 -119.822)" fill="#818181"/>
    </g>
  </g>
</svg>
