<svg xmlns="http://www.w3.org/2000/svg" width="169.968" height="30" viewBox="0 0 169.968 30">
  <g id="Group_1903" data-name="Group 1903" transform="translate(-70.429 -228.355)">
    <path id="Path_8399" data-name="Path 8399" d="M83.644,233.516a14.766,14.766,0,0,0-2.516-.682,14.467,14.467,0,0,0-2.516-.227,7.617,7.617,0,0,0-1.559.162,4.322,4.322,0,0,0-1.347.5,2.662,2.662,0,0,0-.925.942,2.707,2.707,0,0,0-.357,1.412,2.8,2.8,0,0,0,.243,1.2,3,3,0,0,0,.8.99,7.57,7.57,0,0,0,1.429.925q.877.455,2.143.974a23.68,23.68,0,0,1,2.711,1.25,9.671,9.671,0,0,1,2.078,1.493,5.521,5.521,0,0,1,1.3,1.9,6.561,6.561,0,0,1,.438,2.5,6.263,6.263,0,0,1-.666,2.955,5.749,5.749,0,0,1-1.834,2.078,8.3,8.3,0,0,1-2.647,1.2,11.854,11.854,0,0,1-3.036.389,20.9,20.9,0,0,1-3.41-.308,16.758,16.758,0,0,1-3.539-.991l.78-3.149a15.055,15.055,0,0,0,3.2,1.039,14.827,14.827,0,0,0,2.906.325,5.7,5.7,0,0,0,3.279-.828,3.052,3.052,0,0,0,.876-3.8,3.624,3.624,0,0,0-.958-1.1,8.838,8.838,0,0,0-1.591-.974q-.958-.471-2.192-.958a18.577,18.577,0,0,1-2.581-1.25,8.949,8.949,0,0,1-1.9-1.477,5.9,5.9,0,0,1-1.2-1.818,5.738,5.738,0,0,1-.422-2.24,5.81,5.81,0,0,1,.682-2.857,6.024,6.024,0,0,1,1.8-2.029,7.784,7.784,0,0,1,2.5-1.169,10.957,10.957,0,0,1,2.873-.374,21.116,21.116,0,0,1,3.133.227,14.728,14.728,0,0,1,2.776.682Z" transform="translate(0 -0.875)" fill="#fff"/>
    <path id="Path_8400" data-name="Path 8400" d="M159.9,262.486a11.05,11.05,0,0,1-.584,3.725,7.887,7.887,0,0,1-1.672,2.794,7.2,7.2,0,0,1-2.63,1.766,10.109,10.109,0,0,1-6.916,0,7.188,7.188,0,0,1-2.63-1.766,7.881,7.881,0,0,1-1.672-2.794,12.106,12.106,0,0,1,0-7.434A7.538,7.538,0,0,1,145.473,256a7.38,7.38,0,0,1,2.63-1.734,9.33,9.33,0,0,1,3.458-.611,9.559,9.559,0,0,1,3.458.594,7.128,7.128,0,0,1,2.63,1.734,7.7,7.7,0,0,1,1.672,2.794A11.09,11.09,0,0,1,159.9,262.486Zm-3.7,0a10.025,10.025,0,0,0-.276-2.425,5.645,5.645,0,0,0-.844-1.911,3.967,3.967,0,0,0-1.445-1.253,5.028,5.028,0,0,0-4.156,0,3.9,3.9,0,0,0-1.445,1.269,5.809,5.809,0,0,0-.844,1.91,9.833,9.833,0,0,0-.276,2.409,7.6,7.6,0,0,0,1.153,4.4,4.46,4.46,0,0,0,7,.016A7.671,7.671,0,0,0,156.2,262.486Z" transform="translate(-54.572 -18.969)" fill="#fff"/>
    <path id="Path_8401" data-name="Path 8401" d="M229.99,254.04v2.376h.065a4.851,4.851,0,0,1,2.143-2.039,6.876,6.876,0,0,1,3.149-.723,6.185,6.185,0,0,1,4.546,1.67,6.038,6.038,0,0,1,1.688,4.495v11.173h-3.7V261.2a11.249,11.249,0,0,0-.162-1.99,3.81,3.81,0,0,0-.584-1.509,2.742,2.742,0,0,0-1.1-.931,4.141,4.141,0,0,0-1.753-.321,4.2,4.2,0,0,0-1.526.289,3.655,3.655,0,0,0-1.331.9,4.66,4.66,0,0,0-.958,1.589,6.729,6.729,0,0,0-.374,2.392v9.375h-3.7V254.04Z" transform="translate(-117.207 -18.969)" fill="#fff"/>
    <path id="Path_8402" data-name="Path 8402" d="M304.695,267.843h.065l4.578-12.631h3.9l-9.319,23.475h-3.9l2.76-6.688-6.721-16.787h4.027Z" transform="translate(-169.573 -20.332)" fill="#fff"/>
    <path id="Path_8403" data-name="Path 8403" d="M418.327,234.326h-.066l-3.831,19.936h-5.357l-5.325-23.183h4.091l4,19.774h.064l3.571-19.774h5.683l3.571,19.774h.066l4.057-19.774h3.963l-5.359,23.183h-5.357Z" transform="translate(-250.559 -2.042)" fill="#fff"/>
    <path id="Path_8404" data-name="Path 8404" d="M542.658,262.486a11.049,11.049,0,0,1-.584,3.725,7.9,7.9,0,0,1-1.673,2.794,7.2,7.2,0,0,1-2.63,1.766,10.109,10.109,0,0,1-6.916,0,7.179,7.179,0,0,1-2.629-1.766,7.885,7.885,0,0,1-1.673-2.794,12.117,12.117,0,0,1,0-7.434A7.541,7.541,0,0,1,528.225,256a7.371,7.371,0,0,1,2.629-1.734,9.334,9.334,0,0,1,3.458-.611,9.556,9.556,0,0,1,3.458.594,7.132,7.132,0,0,1,2.63,1.734,7.717,7.717,0,0,1,1.673,2.794A11.089,11.089,0,0,1,542.658,262.486Zm-3.7,0a10.064,10.064,0,0,0-.276-2.425,5.649,5.649,0,0,0-.844-1.911,3.971,3.971,0,0,0-1.445-1.253,5.027,5.027,0,0,0-4.156,0,3.894,3.894,0,0,0-1.445,1.269,5.8,5.8,0,0,0-.844,1.91,9.807,9.807,0,0,0-.277,2.409,7.607,7.607,0,0,0,1.152,4.4,4.461,4.461,0,0,0,7,.016A7.671,7.671,0,0,0,538.955,262.486Z" transform="translate(-342.361 -18.969)" fill="#fff"/>
    <path id="Path_8405" data-name="Path 8405" d="M618.359,256.577a6.359,6.359,0,0,0-1.4-.128,3.954,3.954,0,0,0-1.559.273,3.3,3.3,0,0,0-1.363.947,4.684,4.684,0,0,0-.877,1.734,8.928,8.928,0,0,0-.325,2.537v9.054h-3.7V254.04h3.6v2.248h.065a4.435,4.435,0,0,1,4.48-2.633q.26,0,.584.016c.216.011.433.027.65.048Z" transform="translate(-404.824 -18.969)" fill="#fff"/>
    <path id="Path_8406" data-name="Path 8406" d="M661.491,228.355V252.22h-3.7V228.355Z" transform="translate(-441.485)" fill="#fff"/>
    <path id="Path_8407" data-name="Path 8407" d="M701.625,228.355h3.7V252.22h-3.6v-2.37h-.065a5.905,5.905,0,0,1-2.4,2.094,6.929,6.929,0,0,1-2.955.666,6.65,6.65,0,0,1-3.1-.7A6.518,6.518,0,0,1,690.943,250a9.018,9.018,0,0,1-1.4-2.841,12.156,12.156,0,0,1-.487-3.507,11.944,11.944,0,0,1,.5-3.523,8.659,8.659,0,0,1,1.445-2.841,6.8,6.8,0,0,1,2.272-1.883,7.04,7.04,0,0,1,3.118-.715,6.886,6.886,0,0,1,2.922.6,5.756,5.756,0,0,1,2.24,1.9h.065Zm-8.865,15.293a10.132,10.132,0,0,0,.26,2.354,6.482,6.482,0,0,0,.812,1.964,3.755,3.755,0,0,0,3.312,1.818,4.122,4.122,0,0,0,1.98-.47,4.351,4.351,0,0,0,1.478-1.3,6.021,6.021,0,0,0,.909-1.949,9.235,9.235,0,0,0,.309-2.451,9.11,9.11,0,0,0-.309-2.419,5.831,5.831,0,0,0-.909-1.932,4.419,4.419,0,0,0-1.478-1.282,4.119,4.119,0,0,0-1.98-.471,3.866,3.866,0,0,0-1.916.471,3.91,3.91,0,0,0-1.4,1.331,6.265,6.265,0,0,0-.812,1.964A10.342,10.342,0,0,0,692.76,243.648Z" transform="translate(-464.929)" fill="#fff"/>
  </g>
</svg>
