<svg xmlns="http://www.w3.org/2000/svg" width="40" height="40" viewBox="0 0 40 40">
  <g id="instaicon" transform="translate(-414 -6209)">
    <circle id="Ellipse_154" data-name="Ellipse 154" cx="20" cy="20" r="20" transform="translate(414 6209)" fill="#fff"/>
    <g id="instagram_8_" data-name="instagram (8)" transform="translate(424.098 6219.098)">
      <path id="Path_1176" data-name="Path 1176" d="M20.2,5.823a7.237,7.237,0,0,0-.46-2.4,5.073,5.073,0,0,0-2.9-2.9,7.255,7.255,0,0,0-2.4-.46C13.378.012,13.042,0,10.353,0S7.327.012,6.271.058a7.239,7.239,0,0,0-2.4.46A4.832,4.832,0,0,0,2.112,1.664,4.876,4.876,0,0,0,.971,3.416a7.256,7.256,0,0,0-.46,2.4C.46,6.879.449,7.215.449,9.9S.46,12.93.507,13.986a7.236,7.236,0,0,0,.46,2.4,5.072,5.072,0,0,0,2.9,2.9,7.256,7.256,0,0,0,2.4.46c1.056.047,1.393.058,4.082.058s3.025-.011,4.082-.058a7.235,7.235,0,0,0,2.4-.46,5.066,5.066,0,0,0,2.9-2.9,7.261,7.261,0,0,0,.46-2.4c.046-1.056.058-1.393.058-4.082s0-3.025-.05-4.082Zm-1.783,8.086a5.428,5.428,0,0,1-.34,1.838,3.285,3.285,0,0,1-1.88,1.88,5.448,5.448,0,0,1-1.838.34c-1.045.047-1.358.058-4,.058s-2.96-.011-4-.058a5.426,5.426,0,0,1-1.838-.34,3.047,3.047,0,0,1-1.137-.739,3.079,3.079,0,0,1-.739-1.137,5.448,5.448,0,0,1-.34-1.838c-.047-1.045-.058-1.358-.058-4s.011-2.96.058-4a5.426,5.426,0,0,1,.34-1.838,3.01,3.01,0,0,1,.743-1.138A3.074,3.074,0,0,1,4.523,2.2a5.451,5.451,0,0,1,1.838-.34c1.045-.046,1.358-.058,4-.058s2.96.012,4,.058A5.428,5.428,0,0,1,16.2,2.2a3.045,3.045,0,0,1,1.137.739,3.078,3.078,0,0,1,.739,1.138,5.45,5.45,0,0,1,.34,1.838c.046,1.045.058,1.358.058,4s-.012,2.952-.058,4Zm0,0" transform="translate(-0.449 0)"/>
      <path id="Path_1177" data-name="Path 1177" d="M130.3,124.5a5.355,5.355,0,1,0,5.355,5.355A5.356,5.356,0,0,0,130.3,124.5Zm0,8.829a3.474,3.474,0,1,1,3.474-3.474A3.474,3.474,0,0,1,130.3,133.329Zm0,0" transform="translate(-120.4 -119.951)"/>
      <path id="Path_1178" data-name="Path 1178" d="M364.693,89.724a1.122,1.122,0,1,1-1.122-1.122,1.122,1.122,0,0,1,1.122,1.122Zm0,0" transform="translate(-348.338 -85.148)"/>
    </g>
  </g>
</svg>
