<svg xmlns="http://www.w3.org/2000/svg" width="104" height="104" viewBox="0 0 104 104">
  <g id="live_chat_button" transform="translate(-1233 -6133)">
    <circle id="Ellipse_215" data-name="Ellipse 215" cx="52" cy="52" r="52" transform="translate(1233 6133)" fill="#ff4f04"/>
    <g id="customer-support_2_" data-name="customer-support (2)" transform="translate(1255.357 6155.639)">
      <path id="Path_8595" data-name="Path 8595" d="M54.3,25.556a25.089,25.089,0,0,0-50.146,0A5.9,5.9,0,0,0,.643,30.944v6.62a5.9,5.9,0,0,0,5.9,5.9,3.819,3.819,0,0,0,3.815-3.815V28.862a3.808,3.808,0,0,0-3.441-3.778,22.354,22.354,0,0,1,44.625,0A3.807,3.807,0,0,0,48.1,28.862V39.644a3.806,3.806,0,0,0,3.488,3.781V46.15a5.571,5.571,0,0,1-5.565,5.564H41.9a4.1,4.1,0,0,0-3.89-2.769H33.765a4.078,4.078,0,0,0-1.731.379,4.137,4.137,0,0,0,1.731,7.9h4.248a4.154,4.154,0,0,0,3.892-2.77h4.118a8.308,8.308,0,0,0,8.3-8.3V42.938a5.9,5.9,0,0,0,3.488-5.376v-6.62a5.9,5.9,0,0,0-3.51-5.386ZM7.618,28.862V39.644a1.081,1.081,0,0,1-1.08,1.08,3.165,3.165,0,0,1-3.161-3.161v-6.62a3.165,3.165,0,0,1,3.161-3.161,1.081,1.081,0,0,1,1.08,1.08ZM39.385,53.375a1.409,1.409,0,0,1-1.373,1.111H33.764a1.4,1.4,0,0,1-.582-2.678,1.359,1.359,0,0,1,.582-.127h4.248a1.408,1.408,0,0,1,1.373,1.694ZM55.076,37.563a3.165,3.165,0,0,1-3.161,3.161,1.081,1.081,0,0,1-1.08-1.08V28.862a1.081,1.081,0,0,1,1.08-1.08,3.165,3.165,0,0,1,3.161,3.161Z" fill="#fff"/>
      <path id="Path_8596" data-name="Path 8596" d="M38.167,38.122a5.5,5.5,0,0,0,5.482-5.5v-11.2a5.5,5.5,0,0,0-5.482-5.5H21.413a5.5,5.5,0,0,0-5.482,5.5v11.2a5.5,5.5,0,0,0,5.482,5.5h.1v2.9a2.688,2.688,0,0,0,2.684,2.7,2.627,2.627,0,0,0,1.894-.8l4.815-4.8Zm-8.7-2.217-5.211,5.2a.065.065,0,0,1-.09.021.087.087,0,0,1-.06-.1v-4.2a1.3,1.3,0,0,0-1.294-1.3h-1.4a2.9,2.9,0,0,1-2.894-2.9v-11.2a2.9,2.9,0,0,1,2.894-2.9H38.167a2.9,2.9,0,0,1,2.894,2.9v11.2a2.9,2.9,0,0,1-2.894,2.9H30.376a1.293,1.293,0,0,0-.912.374Z" transform="translate(-0.563 -0.536)" fill="#fff"/>
      <path id="Path_8597" data-name="Path 8597" d="M24.632,26.787a2.132,2.132,0,1,0,2.133,2.132,2.132,2.132,0,0,0-2.133-2.132Z" transform="translate(-2.019 -2.351)" fill="#fff"/>
      <path id="Path_8598" data-name="Path 8598" d="M31.918,26.787a2.132,2.132,0,1,0,2.133,2.132,2.132,2.132,0,0,0-2.133-2.132Z" transform="translate(-2.692 -2.351)" fill="#fff"/>
      <path id="Path_8599" data-name="Path 8599" d="M39.2,26.787a2.132,2.132,0,1,0,2.133,2.132A2.132,2.132,0,0,0,39.2,26.787Z" transform="translate(-3.364 -2.351)" fill="#fff"/>
    </g>
  </g>
</svg>
