<svg xmlns="http://www.w3.org/2000/svg" width="40" height="40" viewBox="0 0 40 40">
  <g id="twitttericon" transform="translate(-462 -6209)">
    <circle id="Ellipse_155" data-name="Ellipse 155" cx="20" cy="20" r="20" transform="translate(462 6209)" fill="#fff"/>
    <g id="twitter_3_" data-name="twitter (3)" transform="translate(471.959 6220.748)">
      <g id="Group_812" data-name="Group 812" transform="translate(0 0)">
        <path id="Path_1179" data-name="Path 1179" d="M19.8,49.9a8.465,8.465,0,0,1-2.339.641A4.037,4.037,0,0,0,19.251,48.3a8.114,8.114,0,0,1-2.575.983,4.06,4.06,0,0,0-7.023,2.776,4.181,4.181,0,0,0,.094.926A11.492,11.492,0,0,1,1.379,48.74a4.061,4.061,0,0,0,1.248,5.426,4.01,4.01,0,0,1-1.834-.5v.045A4.079,4.079,0,0,0,4.045,57.7a4.052,4.052,0,0,1-1.065.134,3.59,3.59,0,0,1-.769-.069,4.1,4.1,0,0,0,3.794,2.828A8.158,8.158,0,0,1,.972,62.325,7.6,7.6,0,0,1,0,62.269a11.43,11.43,0,0,0,6.229,1.822A11.476,11.476,0,0,0,17.785,52.538c0-.179-.006-.353-.015-.525A8.1,8.1,0,0,0,19.8,49.9Z" transform="translate(0 -48)"/>
      </g>
    </g>
  </g>
</svg>
